<svg xmlns="http://www.w3.org/2000/svg" viewBox="0 0 73.784 58.753"><path d="M44.848 16.743l-4.213 4.212c2.17 2.148 3.514 5.127 3.514 8.421s-1.344 6.273-3.514 8.421l4.213 4.213c3.23-3.235 5.229-7.701 5.229-12.634 0-4.932-1.998-9.397-5.229-12.633zM61.93 29.377c0-8.204-3.334-15.629-8.721-20.995l-4.17 4.17c4.303 4.307 6.963 10.255 6.963 16.824s-2.661 12.517-6.963 16.825l4.17 4.17c5.387-5.365 8.721-12.79 8.721-20.994zM73.784 29.377c0-11.478-4.662-21.866-12.192-29.377l-4.192 4.191c6.46 6.438 10.456 15.345 10.456 25.186 0 9.84-3.996 18.747-10.456 25.186l4.191 4.19c7.531-7.51 12.193-17.899 12.193-29.376zM0 41.229h15.619l16.974 15.709v-55.123l-16.655 15.71h-15.938z"/></svg>