<svg xmlns="http://www.w3.org/2000/svg" viewBox="58.599 334.157 494.802 123.686" enable-background="new 58.599 334.157 494.802 123.686"><path d="M120.441 334.157c-34.149 0-61.842 27.693-61.842 61.843s27.693 61.843 61.842 61.843c34.15 0 61.843-27.693 61.843-61.843s-27.693-61.843-61.843-61.843zm0 92.78c-17.075 0-30.937-13.831-30.937-30.937s13.862-30.937 30.937-30.937c17.075 0 30.906 13.831 30.906 30.937s-13.83 30.937-30.906 30.937zm371.118-92.78c-34.149 0-61.843 27.693-61.843 61.843s27.693 61.843 61.843 61.843 61.843-27.693 61.843-61.843-27.664-61.843-61.843-61.843zm0 92.78c-17.105 0-30.937-13.831-30.937-30.937s13.831-30.937 30.937-30.937 30.937 13.831 30.937 30.937-13.832 30.937-30.937 30.937zm-185.559-92.78c-34.149 0-61.843 27.693-61.843 61.843s27.693 61.843 61.843 61.843 61.843-27.693 61.843-61.843-27.694-61.843-61.843-61.843zm0 92.78c-17.075 0-30.937-13.831-30.937-30.937s13.862-30.937 30.937-30.937c17.075 0 30.937 13.831 30.937 30.937s-13.862 30.937-30.937 30.937z" fill="none"/></svg>