<svg xmlns="http://www.w3.org/2000/svg" viewBox="0 0 184.497 45.724"><path d="M.76 12.83c1.98-.964 3.12-1.456 3.42-1.472.348 0 .522 1.528.522 4.584v13.966c0 3.357-.14 5.233-.423 5.63-.39.395-1.578.64-3.568.735v1.164h11.97v-1.164c-2.093-.095-3.29-.312-3.588-.653-.3-.34-.448-3.076-.448-8.206V5.54H7.353L0 11.62l.76 1.21zM20.537 33.673c1.93 2.874 4.58 4.31 7.948 4.31 3.27 0 5.914-1.654 7.927-4.963 1.66-2.755 2.49-6.39 2.49-10.9.014-5.448-.845-9.533-2.58-12.257-1.92-3.024-4.452-4.537-7.6-4.537-3.337 0-6.018 1.512-8.042 4.537-2.025 3.024-3.037 7.015-3.037 11.97 0 5.02.964 8.966 2.894 11.84zM24 10.147c1.006-2.043 2.422-3.064 4.247-3.064 1.887 0 3.41 1.22 4.57 3.658 1.426 2.978 2.14 7.3 2.14 12.97 0 7.536-1.784 11.304-5.353 11.304-2.27 0-4.022-1.417-5.26-4.25-1.237-2.835-1.856-6.833-1.856-11.995 0-3.706.503-6.58 1.51-8.623zM45.233 33.673c1.93 2.874 4.58 4.31 7.947 4.31 3.272 0 5.914-1.654 7.927-4.963 1.66-2.755 2.49-6.39 2.49-10.9.015-5.448-.845-9.533-2.58-12.257-1.92-3.024-4.452-4.537-7.6-4.537-3.337 0-6.018 1.512-8.042 4.537s-3.037 7.015-3.037 11.97c0 5.02.965 8.966 2.895 11.84zm3.462-23.526c1.007-2.043 2.423-3.064 4.248-3.064 1.888 0 3.41 1.22 4.57 3.658 1.427 2.978 2.14 7.3 2.14 12.97 0 7.536-1.784 11.304-5.353 11.304-2.27 0-4.022-1.417-5.26-4.25-1.236-2.835-1.855-6.833-1.855-11.995 0-3.706.503-6.58 1.51-8.623zM69.725 45.724L87.845 0h-2.88L66.82 45.724h2.907zM112.452 15.89s.05 0 .098.048c-.05 0-.05 0-.05-.048-.048.048-.048.048 0 .048-.048.05-.048.05-.096.05 0 .048-.05.145-.097.29h.048-.048c-.05.05-.05.147-.05.195-.048.05-.048.146-.096.195h.05c0 .048 0 .048.048.048-.05.05-.097.05-.097.097 0 .05 0 .05.05.05h-.05v.048c.05 0-.096-.097-.145-.048 0 .05 0 .05-.05.05v.047-.05c0 .05 0 .098-.047.098l-.05.05h.098c.05.047.05.047 0 .047-.048.05-.097.05-.097.097 0-.048 0-.048.048-.048l-.05-.05c-.047.05-.047.05-.047.098v.146c.05-.048.05-.048.05 0-.05.05-.05.097 0 .097l.048-.048v.048c-.05.05-.097.146-.146.244-.05.096-.05.145-.098.145v-.097l-.048.05c.048-.05.048-.05.097-.05 0 0 0-.048.05-.097-.05 0-.05 0-.05-.048-.05-.048-.243.098-.146.146.05.05 0 .097-.048.195l-.05-.05-.05.05c0 .194.05.292.147.34 0-.146 0-.195.05-.195v.195c-.05 0-.05 0 0-.05.047-.047 0-.047-.05 0v.05h-.097c-.05.048-.05.097-.097.146-.05.047-.146.145-.195.096 0 .146.05.243.098.243v.048c-.05 0-.05 0-.05.048h.05c-.05.05-.05.05 0 .098h-.098v.048c-.048 0-.048-.048-.048-.097-.05-.05-.05-.05-.097-.05h-.05c-.048.05-.145.1-.194.1.048.047.243.193.388.242-.048 0-.194 0-.146.097.048.05 0 .097-.05.097v-.047c-.048 0-.048 0-.048.048v.098c0-.194-.194-.097-.146.05 0 .048 0 .096.05.145l.048-.195c.048 0 .097 0 .048.05-.048.048-.048.096 0 .145l-.097.097v-.05c-.05.05-.05.05-.05 0l-.047.05c-.05-.05-.05-.146-.097-.292-.05-.097-.05-.194-.098-.243v.098h-.048c0 .048.048.146.097.243.05.097.05.194.097.243-.047.047-.096 0-.145-.05l-.048-.05c-.05.05-.05.1 0 .147.048.05.048.146 0 .195l.048-.05c0 .05 0 .05-.048.05-.05 0-.05 0-.05.048-.047 0-.096 0-.145-.048l.05.194c0-.048 0-.048-.05-.097-.048 0-.048 0-.048-.05-.05.05.048.195.097.146-.048.05-.096.05-.145.05l.05.047h-.05.05v.098c-.05 0-.05 0-.05.05 0-.05-.048-.098-.194-.244 0 .05 0 .097.05.146l.097.097v.096l-.05-.097c-.096-.05-.145-.098-.096-.098.05 0 0 0-.048-.05l.097.244-.098-.097c.146.145-.05.242-.195.388h.05c-.147-.146-.147.05-.147.098v.097l.05.048h-.098l.048-.047h-.098c.05.048.098.097.098.097-.048 0-.048 0-.048-.05h-.05s0 .05.05.1H109.486c.194.145.292.193.292.193.05.05.05.05 0 0-.194-.097-.39-.146-.243.05.05.096.05.145 0 .145l-.048-.146c-.05-.05-.05-.05-.05 0 0 .048 0 .097.05.146-.05 0-.097-.048-.146-.097l-.145.098h.05-.05l.146.146.098.098-.048-.292c.048.048.097.146.097.194 0 .05.048.146.146.195l-.146.096c0-.146-.05-.146-.243-.194l-.146-.146c0-.05-.05-.098-.097-.146.05.097.05.146.098.146H109v.048l.147.146c-.048 0-.097-.048-.146-.097 0 .05 0 .146-.048.194 0-.048 0-.097-.05-.097v.05c.05.047.1.096.05.145h.097c0 .048 0 .048-.05.048-.048.05-.048.05 0 .097-.145-.048-.242-.146-.29-.194v.05l.145.193-.097-.098h-.05v.048c.05.05.098.098.147.098-.05 0-.097 0-.097-.05h-.098l-.048.05c.048.048.048.048.097.048l.048.05c.048.145-.098.047-.098 0 0 0-.097-.05-.097 0l.146.096c-.05 0-.05.05 0 .146l-.147-.146v.05s-.048 0-.097-.05l.097.146c0-.05-.048-.097-.097-.146-.05 0-.05 0-.05.05v.096h-.047c0 .097-.05.146-.1.146h.147c-.048.05-.097.05-.097.05-.05.047-.097.047-.146.047l.05-.096c-.05.05-.05.05-.098.05v.047c.048.05.048.098.097.147 0 .05-.05.097-.097.05.048-.05.048-.1-.05-.147h-.048v.097c-.048.05 0 .097.146.194-.048-.047-.097-.047-.097-.047 0 .048-.05 0-.097-.05l.048.244-.048-.048c-.05 0-.05 0-.097-.05.048 0 .097-.05.048-.146-.047-.097-.047-.097.05-.048l-.05-.05-.047.05v-.05l-.05.098h-.096v.05c.048.047.048.096.097.145.05.047.05.145.097.193h-.242l.097.05-.146-.098h-.05c.05.048.05.048 0 .048l.05.05-.05-.05-.048.05.05.047-.05-.048v.097c-.048 0-.048-.05 0-.098h-.146c.05.146.098.194.146.194 0 .05 0 .097.05.195-.05-.048-.098-.048-.098-.097 0 0-.05 0-.098-.048.098.146.05.146-.097.097-.34-.146-.098.097 0 .146.048.048.048.097.096.146-.048-.05-.097-.098-.097-.05l.096.147c-.048-.048-.048-.048-.048-.096 0-.05-.05-.05-.098-.05.05.196 0 .293-.048.293-.05.05 0 .097.146.146.097.048.097.097.048.146-.048-.05-.097-.147-.146-.196-.048-.048-.146-.048-.194 0 .146.146.194.243.194.292l-.194-.195c0 .05-.05.05-.146 0 .05.05 0 .1-.048.1.048.047.097.145.243.193.146.05.194.097.243.146-.098-.05-.146-.05-.146-.05-.05.05-.097 0-.243-.048v-.098c-.05-.048-.098-.048-.098 0 0 .05 0 .05.048.098v.048c-.048 0-.097-.048-.194-.097.097-.097.048-.194-.146-.243l.048.146c-.048-.05-.048-.05 0-.05 0 0-.048 0-.097-.047.05.047.05.047.098.096 0 .048 0 .097.05.146l-.05.097-.048-.05v.146c0-.146-.05-.146-.146-.05-.05 0-.05 0 0 .05s.146.195.194.243c0 .048-.048.048-.097 0l-.096-.05c.146.147.194.244.097.293-.096.05-.047.146.098.292-.097-.05-.146-.097-.097-.146 0 0-.047-.05-.096-.147l-.146-.048c0-.146-.146-.243-.097-.05.05.098.05.195.098.244-.048 0-.097-.05-.146-.147-.048-.048-.097-.048-.097 0-.048.097 0 .146.097.195.098.048.146.097.146.146l-.243-.146c.05.146.05.194 0 .146-.048 0-.146 0-.194.048 0 .05 0 .05.05.05v.048c-.05 0-.098.048-.05.146.05.098 0 .146-.048.146 0-.048 0-.048-.05-.048-.047 0-.096 0-.145-.05l.05.195c0-.05-.098-.147-.244-.293 0 .048 0 .048.05.048v.098c-.05-.05-.05-.05-.05-.098l-.05-.048.05.292h.05v.048c0 .194-.196-.05-.196-.097.05.05.05 0 0-.145-.048.05-.048.097-.048.05-.05-.05-.1-.05-.147-.1 0 .147.048.244.194.293-.048.05-.097.05-.097.05-.05 0 0 .047.05.145l-.147-.194v.096l-.146-.194c-.097 0-.097.048.05.097.096.096.096.145 0 .193l-.147-.146c0 .048.048.146.097.194s.05.05-.05 0c.05.05.1.098.147.098.05.05.097.098.05.146-.05-.048-.147-.048-.244-.048.048.048.097.097.194.097-.048.097-.146.097-.292-.05-.146-.145-.243-.145-.194 0l.146.147c.048.05.097.05.146 0 .048.05 0 .097-.098.05-.097-.05-.146 0-.097.047l-.097-.194v.146l-.097-.147c.05.146.05.243-.048.194-.097-.048-.048 0 .097.146-.147-.146-.147-.146-.098-.05.05.1 0 .1-.048.05-.05-.097-.05-.146 0-.194.048 0 .048-.05-.098-.147-.048-.05-.048-.05 0 0 0 .097-.097 0-.097-.05-.05-.047-.196-.145-.098.05.048.097.048.194.048.243l.05-.146.096.097c-.048 0 0 .05.05.146-.05-.05-.098 0-.05.05 0 .047-.048.096-.097.047v-.048c-.05.048-.147.048-.244-.05-.146-.096-.195-.145-.243-.096-.05 0-.05.048 0 .097 0 .05.048.097.097.146s.05.048.097 0c0-.05.05 0 .195.145-.195-.146-.243-.146-.195 0 .05.146 0 .146-.146.097-.047-.048-.047-.097-.096-.146-.048 0-.097-.048-.146-.097 0 .048.05.096.098.242l-.098-.097c.05.146.098.243.146.243 0 0 0 .05.05.194-.05-.048-.05-.097-.098-.097-.05 0-.098-.048-.146-.097-.05.05-.05.097 0 .194v-.048c-.05.048-.05.097-.097.048-.05 0-.098.05-.098.146l.098.05c0 .096 0 .145-.05.193.244-.047.487-.145.73-.193.195-.05.39-.146.632-.195.827-.243 1.605-.438 2.432-.632s1.605-.39 2.432-.632c.63-.194.874 0 1.312.535.34.438.535.924.584 1.41.048.536.097 1.022.243 1.51.34 1.166-.584 2.334-1.8 2.674-.195.05-.34.146-.44.194-.486.245-.972.536-1.458.828-.973.583-2.14 1.167-3.502 1.75-1.362.585-2.918 1.168-4.62 1.606-.828.243-1.703.486-2.53.73-.34.047-.68.145-1.02.193-.633.195-1.314.097-1.898-.146-.34-.145-.583-.29-.827-.534-.73-.73-1.46-1.46-2.14-2.19l-2.19-2.188c-.534-.535-.29-.924.05-1.46.534-.63 1.02-1.312 1.556-1.994.487-.632 1.022-1.313 1.558-1.945 1.945-2.24 3.89-4.476 5.885-6.713 1.946-2.19 3.892-4.427 5.837-6.664.05-.097.146-.194.195-.292.05-.096.146-.242.194-.388-2.58.778-4.816 1.946-5.984 4.815-.194-.097-.39-.194-.583-.292-.243-.098-.39-.243-.535-.39-.778-1.02-1.41-2.042-2.14-3.16-.194-.342-.39-.633-.583-.974-.438-.582-1.216-1.7-1.07-2.382.05-.34.34-.73.778-1.265 1.41-1.557 3.162-2.626 5.107-3.356 2.334-.924 4.767-1.167 7.345-.778 1.362.242 2.14 1.02 2.724 2.14.437.923.875 1.8 1.312 2.674l1.313 2.626c.39.827.486 1.605.292 2.383v-.043zm-10.847 12.55c-.195.193-.34.34-.438.485l.05-.05c.048 0 .048 0 .048-.047h.048c.05-.05.05-.05.05-.097l.047-.048.098-.097c0-.05 0-.05.048-.098v-.048h.05zm5.254-3.552c.145.048.047-.05 0-.097h-.05c-.05 0 0 .05.05.098zm.34-1.702c0-.048 0-.048.047-.048-.048-.05-.048-.05-.097-.05v.05c-.048-.098-.097-.146-.146-.146l.05.146s.048 0 .096.048h.05c0-.048 0-.048-.05-.048l.05.048zm.242.39c.05 0 .05 0 .05-.05l-.05.05zm.098 0h-.048l.048.048v-.05zm.486-.634v-.048.048zm.146-.146h-.048l.048.05v-.05zm0-.583c.05-.05.097-.05.146-.05-.146-.096-.243-.193-.292-.242-.048 0-.048 0-.048.05l.194.243zm.34.29c-.048.05-.048.05 0 .05h.05l-.05-.05zm.195-.874v-.05l-.05-.048v.097h.05zm.146-.244c-.05.05 0 .098.048.098v-.05c-.047-.048-.047-.096-.096-.145-.048 0-.048-.05-.097-.098l-.097.097c.048.048.097.145.146.194.048-.05.097-.098.097-.098zm.097.146v-.048.048zm.195 0c.05 0 .05 0 .098-.048h-.05l-.048.048zm0-.535c.05-.05.098-.098.05-.098l-.098-.098h-.05c0 .05 0 .05-.047.05l.145.145zm.146-.146l-.145-.145v.048c-.048 0-.048 0-.048.05l.146.096.048-.05zm.195.39c0-.05 0-.05.048-.05l-.048-.048c-.05 0-.05 0-.097-.048v.048l.097.098zm.292-.876v-.048c-.048.048-.097.097-.146.097-.048 0-.145.05-.194.097l-.048-.048-.05.048.147.146.194-.194c.048 0 .048-.05.048-.098l.048.05v-.05zm.39-.048v.048-.048zm-.098-.535c.048.05.097 0 .097-.048-.05-.048 0-.048.048 0v-.048h-.048c-.05.048-.098.048-.146.097-.048.05-.097.098-.145.098-.05.146-.146.243-.195.292l.097.097c.05 0 .05-.048.05-.097 0 .05 0 .05.048.05 0-.05 0-.05.048-.05v-.097l.05.048.096-.096c-.05-.05-.05-.097 0-.146v-.097zm.34-.486c0-.05 0-.05.048-.097h-.048l-.098-.098c-.048.145-.097.194-.097.194v.05h-.048v.047c-.05.05-.05.05-.05.098h.05v-.048l.097.097.048-.05c.05-.047.098-.144.098-.193l-.05.05.05-.05zm.097-.097c0-.05 0-.05.048-.05-.048-.048-.097-.145-.146-.193l-.05.048c0 .05 0 .05-.05.097l.147.097s.05-.05.05 0zm.048-.146c.05 0 .05 0 .05.05l-.05-.05zm.05.05c.048-.048.096-.097.096-.146h-.047c-.098-.05-.098 0-.05.146zm.485-.827c-.048-.05-.048-.05-.048-.097l-.05.048.05.05c-.05 0-.05 0-.05-.05l-.437.584c.05.048.098.097.098.146 0-.05 0-.05.048-.098-.047 0-.047 0-.047-.048h.048l.05-.05-.05-.048c.05-.146.098-.292.244-.292-.048 0 0-.05.098-.146h.048zm.292-.535c-.05.05-.097.146-.146.195-.05.097-.146.194-.194.243 0 .048 0 .048.048.048v.05c.05-.05.05-.098.05-.147.096-.05.145-.146.145-.194 0-.05.048-.098.097-.146v-.05zm.292-.292v-.048l-.048.048h.048zm.05-.146c0 .048 0 .048-.05.048 0 .05 0 .05.05.05V17.3zm.34-.535c.047 0 .047 0 .047-.05v-.047c.002.048.002.048-.047.097zM112.695 14.82v.096-.097zm0 .194c-.05.048-.098.048-.05.097s0 .098-.048.098c.05-.048.05-.048.05-.097-.05-.048-.05-.096 0-.145l-.05-.05.05.05.048.05zm0 .243c-.05 0-.05 0 0-.05v.05zm-1.46 2.724c.05.05 0 .05-.05.05l.05-.05zm-.097.147c0-.05 0-.05.047-.097v.048c-.048 0-.048 0-.048.05zm-.973 2.383h.048-.048zm2.09-3.94l.05.05h-.05v-.05zm-.242.438l.097.05h-.048l-.05-.05zm-.098.34v-.096h.048l-.048.097zm.146-.194l-.05.048.05-.048zm-.535.827l.048.05c-.048.048-.048.048-.048 0v-.05zm.195-.096c.05 0 .05 0 .05-.05l.048.05h-.097zm-.68 1.07l-.05.048-.097-.097.146.05zm-.39.924c0 .05 0 .05.048 0-.047.05-.047.05 0 .05.05 0 0 0-.047.047-.05 0-.05-.048 0-.097zm-2.286 2.918c0-.048 0-.048.048-.048v.048h-.048zm-.584.487h.05v.05l-.05-.05zm-1.12 1.75l.05.05-.05-.05zm-.68 1.314s-.05-.048-.098-.146l.098.147zm3.794-5.107c-.048 0-.048 0-.097-.05h.05c0 .05 0 .05.047.05zm-.486.827c-.047 0-.047 0 0 .05.05.047.05.096 0 .096-.096-.05-.145-.097-.145-.097s0-.05-.048-.098c.048.05.048.05.097 0 .048 0 .048 0 .097.05zm-1.945 2.918h-.05c-.048-.05-.048-.05-.096-.05l.145.05zm-.827.34l.195.1v.047l-.195-.146zm-.048.78c-.146-.05-.146-.098-.098-.098l.098.05v.047zM139.546 13.944c.146.146.146.243.097.39-.097.145-.146.242-.097.388.048.438.048.924-.098 1.362-.146.438-.243.924-.292 1.362-.146 1.362-.584 2.53-1.02 3.843-.05.048-.05.194-.05.34-.048.437-.146.874-.292 1.264-.146.438-.243.827-.39 1.264.05.146.05.292-.097.438-.146.146-.194.292-.146.438.05.243-.048.292-.194.438-.34 1.167-1.07 2.14-1.703 3.113-.146.146-.243.34-.292.535-.048.195-.145.39-.29.535-.925 1.313-1.947 2.53-3.26 3.502-.243.243-.535.486-.827.73l-.875.728-.048.05c0 .047 0 .047-.05.096-.34.34-.68.633-1.02.974-.34.34-.73.632-1.07.973-.486.486-1.02.778-1.556.924-.827.39-1.703.585-2.675.39-.73 0-1.314-.34-1.947-.68-.146 0-.292-.05-.39-.147-.145-.05-.242-.146-.388-.195-.146-.048-.39-.146-.632-.292l-.05-.05c-.047 0-.047 0-.096-.048l-.292-.146c-.34-.146-.632-.292-.924-.39-.145 0-.242-.048-.29-.145l-.195-.195.146-.146-.145.146c-.05-.048-.098-.048-.146-.097-.05-.048-.098-.048-.147-.097-.924-.438-1.654-1.167-2.237-2.092-.05-.048-.098-.097-.098-.243-.194-.146-.34-.34-.39-.68-.097-.05-.145-.147-.145-.244v-.245c-.535-1.313-.778-2.53-.535-3.842v-.39c-.195-1.507.048-2.966.39-4.377.047-.34.096-.632.145-.973 0-.34.097-.632.243-.924 0-.05 0-.098.048-.147v-.146c.243-1.362.487-2.724 1.02-4.038 0-.244.098-.44.244-.682 0-.486.146-.875.39-1.167.048-.242.145-.534.29-.777.147-.632.293-1.265.633-1.848 0-.05 0-.098.05-.098 0-.243.048-.39.194-.535.05-.292.146-.486.292-.633l.146-.293c-.05-.097 0-.195.097-.292.048-.048.048-.146.096-.194.05-.048.05-.097.097-.145 0-.292.098-.535.243-.68.05-.05.098-.147.098-.244.097-.34.292-.68.535-1.07.29-.437.534-.875.777-1.264.195-.535.39-.924.827-1.167v.145-.192c.146-.193.34-.388.486-.63.34-.39 1.07-.682 1.508-.536.195.098.438.34.68.68l.195.195c.097.195.195.34.39.487.096.047.145.193.096.34.242.242.388.534.534.826.146.34.34.584.68.73.244-.146.536-.34.78-.535.242-.145.534-.34.777-.485.196-.146.44-.243.682-.39.05 0 .195-.048.39-.096.048-.05.096-.147.242-.196 0-.243.097-.39.292-.438.146-.048.34-.097.486-.194.05-.097.146-.146.292-.146.097 0 .194-.048.243-.097.292-.098.583-.244.875-.39.243-.146.583-.194.924-.194.438-.34.875-.535 1.46-.487 1.556-.39 2.43.534 3.258 1.653.73.973 1.265 2.043 1.703 3.21.146.05.243.243.292.486.047.097.096.194.145.242 0 .098.05.195.098.292.05.05.097.146.146.292 0 .048.047.097.096.243.54.923.588 1.895.54 3.014zm-24.564 17.754c0-.048 0-.048-.048-.048l.048.048zm1.07-9.388v-.05l-.05.05h.05zm1.362 4.718c.05 0 .05 0 .05-.05l-.05.05zm14.398-20.624l-.05.05c-.048 0-.048 0-.096.048.097 0 .146-.05.146-.098zm-2.092 3.454h-.048.048zm-1.8 4.475v.05-.05zm-1.994-5.788v.048-.048zm-1.702.29c-.048.05-.048.05-.097.05h.097v-.05zm-.584 10.703c-.05 0-.097.05-.097.097.146 0 .146-.05.097-.097zm-.097-10.896c-.05.048-.097.097-.146.097.05.048.05.048.097.048 0-.05 0-.05.05-.05v-.096zm-.39 10.896c-.048 0-.048 0-.048.05h.097l-.048-.05zm-.145.048v-.05.05zm-.097-9.436h.05-.05zm-.194 9.29h.098c-.05 0-.05 0-.05-.05l-.048.05zm-.195-.486l.098.097c-.048-.048-.048-.048-.048-.096l-.05-.05v.05zm.147 3.21c-.05.05-.097.05-.097.05-.05 0 0 .047.097.096.048 0 .097 0 .048-.05-.048-.047-.048-.047-.048-.096zm-.194-15.468l-.05.05.05.047c.05 0 .05 0 .05-.048l-.05-.05zm-.098 12.842s.048 0 .097.05c0-.05 0-.1.05-.1l-.147-.145v.195zm-.194.826l.05.05c0-.05 0-.05.05-.05h.047c-.048-.048-.146-.097-.194-.146-.097-.05-.195-.05-.243-.098l.292.292h.05l-.05-.048zm-.242.73c-.146-.05-.243-.146-.34-.195.05.048.05.097.05.097 0 .048 0 .097.047.146.145 0 .194 0 .243-.05zm.34-.827c.048.05.048.05.097.05h-.05l-.047-.05zm.05-.146l.096.1-.097-.1zm.096-.436c-.048 0 .05.097.098.048-.05 0-.05 0-.098-.048zm-.097-.876h-.048.047zm-1.12 1.022c-.047.146-.096.34-.145.68.098-.047.146-.145.195-.242.048-.048.097-.097.146-.097.048 0 .048 0 .048-.048v-.048h.05c-.05-.05-.05-.098-.05-.146 0 0-.047-.05-.096-.097.05.05.146.098.194.098l.05-.05-.098-.096.097.05.097-.1c-.048-.047-.097-.096-.097-.145 0-.05-.05-.098-.097-.146.146.05.146.05.097 0-.05-.048 0-.048.146 0-.05 0-.05 0-.05-.048h-.047c-.05-.048-.098-.048-.146-.097-.05-.05-.097-.05-.05-.05l.196.1c-.05-.05-.05-.05-.05-.1l-.048-.047h.098c.048.048.048.048.048 0l-.048-.05c.146.05.146 0 .048-.145-.097-.146-.048-.194.146-.146-.048 0-.048 0 0 .05.05-.05.097-.098.146-.098.05.047.097 0 .097-.05-.39 0-.486.195-.632.438h.098c-.048 0-.097 0-.097.048-.047.098-.047.195-.096.292-.05.146-.097.243-.146.292zm.098 1.46c.05 0 .05 0 .098.048h.048v-.05c-.047 0-.047 0-.047-.047h-.098v.05-.05.05h.05-.05zm-.29-.683c.047 0 .047 0 0-.048v.047zm0 .05v.048c0-.05 0-.05-.05-.05h.05zm-.196.34c-.244.243-.487.535-.633.875.05.048.05.048.097.048.05-.194.098-.292.098-.292.048-.048.048-.097.048-.048 0 .048 0 .048.05.048.048-.097.048-.146 0-.146-.05.048-.05 0 .048-.098v.05c0 .048.097 0 .243-.098 0-.05 0-.05.05-.05-.195-.145-.147-.193 0-.193l.048.048c.05 0 .05 0 .05-.047 0-.05 0-.05.047-.05l-.048-.047c-.05 0-.05 0-.098-.05v.05zm-.633.973c-.048 0-.048 0-.048.048h.047v-.048zm-.146.29s0 .05-.047.1h.097c.05 0 .05 0 .05-.05s-.05-.05-.1-.05zm-.097.244h.05l-.05-.048v.048zm0 0v.098c-.05.048-.05.048-.05.097h.05c.05 0 .05-.05.05-.098 0 0 0-.05-.05-.098zm-.048.244c-.048.048-.048.048-.048.097s0 .05-.05.097H119.946v-.048c-.05-.05-.05-.098-.05-.146zm-.244 2.627c-.047 0-.047.05-.047.097.048-.05.048-.05.048-.097zm-.144-3.99v.05-.05zm-.632 3.308c.146-.146.243-.292.292-.34.05.05.098.05.146 0v-.196c-.048.05-.146.1-.194.147-.05.05-.146.098-.243.146v.243zm.39 2.724v-.05h-.05l.05.05zm-.05 0v.048c.05 0 .05 0 .05-.048h-.05zm-.243.292c.05.047.098.047.098 0 0-.05.05-.05.097 0 0-.05 0-.05.05-.1v-.096c-.05.05-.098.05-.098.097 0 .05-.05.1-.146.1zm.195 0h-.048c0 .047 0 .047-.05.047h.05l.048-.048zm-.34-2.725c0 .05 0 .05-.05.097h.1l.047-.048-.097-.05zm-.05.195h.05l-.05-.048v.048zm-.047.05v.048-.05zm-.05.145c0 .097-.047.194-.096.243.05-.05.146-.097.292-.097-.098-.048-.146-.048-.098-.048 0 0-.048-.05-.097-.097zm.098 2.82l.05.05v-.05h-.05zm-.243-2.334c-.048.05-.048.098-.048.098 0 .05 0 .098-.05.146.098 0 .196.05.34.098.05-.05-.193-.146-.242-.146.05-.05.05-.146 0-.195zm.243 2.482h-.048c0 .048 0 .048.048.048v.097-.145zm-.39-1.946h.1-.1zm0 1.946v.048-.048zm0 .145v.05c-.047.048-.047.048-.047.096 0-.048 0-.048.047-.048v-.098zm-.048.146v.05-.05zm0 .243c-.05.292-.097.584-.097.876v.924c.05-.048.098-.146.098-.292 0-.098.048-.146.097-.098 0-.048 0-.097-.05-.097-.047 0-.047 0-.047.048 0-.195 0-.34-.05-.438.05-.048.05-.194.05-.438 0-.243.048-.39.097-.438-.05.05-.05 0-.097-.097v.05zm.05 3.26v-.098c.048-.048.048-.048.048-.097 0-.047 0-.047-.05 0-.047-.145-.096-.34-.047-.485.047-.146 0-.292-.05-.438.05-.048.05-.097.097-.048v-.05c-.048.05-.097 0-.048-.146 0-.146-.05-.146-.098-.097l.145 1.46zm.048 1.07c.05 0 .097.05.195.146-.048-.34-.145-.68-.145-1.02 0-.05 0-.05-.05 0 .05-.05.05-.098 0-.098s-.048-.05-.048-.097c0 .34.05.632.098.973-.05-.002-.05.047-.05.096zm.438-1.46V31.7v.05zm.194-1.75c.05-.146.05-.292-.05-.438.05 0 .05-.146.05-.39.05-.242.146-.388.292-.437-.146.05-.195.05-.146 0 .05-.048 0-.097-.05-.145l-.242.048.097-.194c-.05-.05 0-.098.048-.05.05.05.243-.146.146-.194-.05-.05-.146-.097-.195-.146v.05-.1c0-.047.048-.047.097.05.146.243.194.05 0-.146-.146.05-.195.146-.195.195h-.048v.096c.048.048.048.048.097.048-.048 0-.096 0-.096-.048v.194c-.05 0-.05 0-.05-.048v.097c-.048.047-.048.096 0 .145V28.683c-.048.146-.048.194-.096.243-.097.05-.146.194-.097.292 0 .048 0 .097.05.048v-.097c.048-.097.048-.146.096-.097-.048.05-.048.147 0 .195.05.097 0 .243-.048.39-.05-.05-.05-.098-.05-.05-.047.05-.047.05-.096 0 .05.098.05.195.097.244h-.05c.05.096.098.145.098.096 0 0 0 .097.048.243-.048-.05-.048-.05-.048 0s0 .096-.05.048c0 .097 0 .146.05.194v.243c-.05.05-.05.097 0 .243v-.048c.048.048.048.146.048.194.05-.097.05-.194 0-.292.05-.048.146-.097.195-.048.05.048.05 0 .098-.05-.146.05-.243.05-.194-.096 0-.146-.05-.194-.146-.194.146-.05.243-.098.243-.195-.048-.098.098-.147.34-.098.05-.05 0-.097-.047-.097h-.195zm0-1.557c.05 0 .05 0 .05-.05l-.05.05zm.34-.682h-.243l.098.05h-.05c0 .048 0 .048-.048.048 0 .048.05.097.195.097l.048-.195zm.098-.925c.048-.146.097-.243.097-.34l-.05-.048c-.047.048-.047.048-.096 0-.05 0 0 .048.05.097 0 .048-.05.097-.1.097-.047 0-.047.048 0 .145h.05l.05.048zm.145-.486c.147.05.196 0 .196-.146 0-.097.097-.097.243-.048h-.05c0 .146.292.05.292-.097-.05.048-.146.048-.194-.05-.098-.096-.195-.096-.244 0l-.048-.145c-.05 0-.146 0-.243-.05-.097-.047-.146-.047-.195 0-.048 0 0 0 .05.05l.145.146c.048.05.048 0 .048-.05 0-.047.1-.047.244.05-.097-.05-.146-.05-.146-.05-.05.05-.05.05 0 .1 0 .047.097.145-.098.145-.048-.048-.097-.097-.146-.097-.05.05-.098 0-.146-.048 0 .048.048.097.146.194l-.146-.05c.097.05.146.098.194.098.05.048.05.048.097.097v-.048zm16.004-12.306c0-.193.05-.388.098-.582.048-.146.048-.34.097-.535 0 0-.05 0-.098-.05-.05-.777-.243-1.555.097-2.285h-.05l-.438-.146c-.146 0-.292-.05-.438-.146-.097.048-.243.097-.486.097-.05.097-.146.146-.243.097-.097 0-.195 0-.243.05-.292.047-.535.145-.778.29-.243.195-.486.293-.827.244-.535.39-.973.73-1.702.73-.146.728-.973 1.264-1.605 1.07v.048l-.097.05c-.048 0-.048 0-.048.047h-.05c-.048 0-.048 0-.048.048l.05.048.048-.048c.048.048.097.097.097.194-.05 0-.097.146-.097.195s-.098 0-.243-.05l-.05.05c.05.146 0 .292-.096.438l.048.098-.097-.098c-.097.146-.194.244-.34.34-.05.147-.05.244 0 .293-.146-.048-.146-.097-.097-.146.048 0 .048-.05-.05-.098 0 .05 0 .05-.048.05 0 .145-.048.048-.048.048l-.292.292c-.146.097-.243.195-.39.34.147.147.05.195 0 .147-.048 0-.048.05-.048.098.146.048.146.048.098.048-.098 0-.098.05 0 .146-.05.05-.05.05-.098 0-.048-.048-.048-.048-.097-.048v.048c0 .05 0 .097.05.097-.05-.05-.147-.147-.196-.293-.047.048-.096.097-.145.097-.048.05-.097.097-.146.146.242.194.437.34.534.39.05.047.05.047-.048 0-.097-.05-.146-.05-.195 0-.145-.05-.145-.05-.096.096s0 .194-.05.194l-.047-.146c-.05-.05-.146.146-.097.194-.05-.05-.098-.097-.146-.194-.146-.195-.39-.146-.243.194.05.194.147.34.244.39v-.048c0-.048 0-.097.048-.146v-.243c.05.05.098.147.098.244-.05.098 0 .195.097.244l-.243.194c0-.146-.05-.194-.097-.243-.05.048-.05.096-.05.048h-.145c-.048-.05-.048-.146-.097-.244-.05-.097-.097-.194-.146-.34-.05.05-.147.097-.196.146.05.146.146.243.195.292.048.048.096.146.145.194-.146.05-.438-.194-.486-.34-.05.097-.05.243.096.39s.146.29.048.34h.146c-.048.048-.097.048-.146.096-.048.05-.048.05 0 .098-.048-.05-.146-.05-.194-.098-.097-.048-.146-.097-.194-.146l.194.39c0-.05-.05-.098-.146-.147-.097-.05-.146-.1-.194-.147-.05.048.243.34.292.34-.146-.05-.243-.05-.243 0s-.098 0-.244-.05c0 .05.243.196.39.196 0 .145-.05.193-.147.193 0-.146-.293-.34-.487-.486-.048.05-.048.097-.048.146s0 .05.048.097l.292.486-.292-.292c.195.194-.048.583-.194.73l.047-.05c-.146-.146-.243 0-.194.146-.05-.048-.05-.048 0-.048-.05 0-.097 0-.05.048 0 .05 0 .05.05.097 0 .05 0 .098.05.146 0 .05-.05.05-.1.05.05-.05.05-.098-.096-.244.05.096 0 .193-.05.242-.047.05 0 .146.147.243h-.097c-.05.05-.097 0-.146-.05l.05.342c0-.05 0-.05-.05-.05h-.096c.048-.047.097-.145.048-.242-.048-.097-.048-.146.098-.097-.146-.05-.195-.097-.243-.146-.05.05-.146.097-.195.146.05.194.146.438.292.632l-.292.146.097.048-.244-.097c.05.05.05.05.05.097-.05 0-.05 0-.05-.048h-.048l.048.048c-.146-.048-.243-.146-.34-.292h.097c0 .048 0 .048.05.048-.05-.048-.098-.146-.147-.194-.05 0-.097 0-.097.048.047.05.096.098.096.098v.048h-.05c.147.243.245.39.39.39l-.194.048c.05.146.097.243.097.243 0 .05 0 .098.048.244-.05 0-.097 0-.097-.05 0-.047-.048-.047-.097-.047.05.048.098.097.05.097-.05.048-.147.048-.196.097h-.146c-.048.05-.048.05 0 .098 0 .05.05.098.098.146.048.05.097.098.097.146v-.097c-.05 0-.05 0-.05.05l.1.145c-.05 0-.05 0-.05-.048-.05-.05-.097-.05-.146 0 .048.243.048.39-.05.438-.048.097 0 .146.147.146.146 0 .146.05.098.097-.243-.047-.34-.096-.39-.047.05.048.05.097.098.146.05.047.05.096.097.145l-.194-.097c-.05.05-.05.05-.05.097-.047.05-.096.05-.145 0 .05.098 0 .146-.047.146.048.098.146.147.292.098.146 0 .243 0 .292.05-.146.048-.194.048-.194.096-.05.05-.146.05-.292 0v-.146c-.145.05-.193.146-.096.243.097.1.048.1-.195.05.048-.146 0-.243-.147-.243l.05.194c-.05-.047-.05-.047 0-.096h-.098c.048.146.097.195.146.243l-.047.244c0-.097-.05-.097-.097-.048l.048.194c0-.194-.292.05 0 .195.146.098.146.147 0 .195v-.048l-.146.048c.195.146.195.195.195.292-.05.05-.05.146-.05.194 0 .05.05.1.196.147-.147.05-.196 0-.196-.048 0-.05-.048-.1-.097-.196l-.194.05c0-.05 0-.05.048-.05v-.097c-.242.146-.145.292 0 .438-.047.05-.096 0-.145-.048-.097-.05-.146-.05-.146.048 0 .146.047.244.193.195.097-.05.146 0 .146.05h-.244c.146.242-.05.34-.195.485 0 .048 0 .048.05.048-.05.05-.05.146 0 .243.146.244.097.292-.243.292l.097.243c-.05-.047-.146-.096-.292-.193-.048.048-.048.097 0 .097.05.05.05.05.05.097-.05-.047-.098-.096-.147-.096v.05c0 .047.05.145.097.193 0 .05 0 .05.05.05s.048 0 .048-.05c0 .146-.05.243-.098.292-.048-.05-.097-.098-.146-.098.097-.05.146-.05.097-.098-.05 0-.097-.048-.146-.097v.097c-.05-.048-.243.098-.097.146.048.05.146.05.194.098-.048.048-.048.097-.048.097-.05.048 0 .097.048.194l-.194-.098.048.146-.243-.146c-.097.097-.048.146.098.146.146 0 .146.048.048.194l-.145-.048c0 .048.05.097.146.146.05.05.05.098-.047.098.048.048.097.048.146 0 .048-.05.097 0 .097.146-.05 0-.146.048-.243.146.048.146.194 0 .194-.048 0 .146-.097.243-.292.194-.194-.048-.243.05-.194.243.048-.05.146-.05.243 0 .05.048.097.048.146-.098.05.05 0 .097-.096.146-.098.05-.098.097-.05.195l-.194-.146c0 .048 0 .048.05.048v.098l-.147-.05c.146.147.146.195.05.244s-.05.097.096.194c-.147-.047-.195-.047-.098 0 .048.05.048.1 0 .147-.097-.048-.097-.146-.05-.243.05-.048 0-.146-.145-.194-.048.048-.097.048-.048.097.047.05 0 .05-.05.05l-.146-.147c-.097.097-.097.194 0 .243.05.097.097.194.146.243v-.197c.146.05.195.05.146.05-.05.05-.05.097.097.146-.097.048-.097.048-.048.097.048.05 0 .097-.05.146v-.05c-.048.146-.096.195-.242.195-.292.048-.34.146-.243.292.048.05.097.098.146.05.048.048.097.048.097-.098 0-.098.097-.098.243 0-.146 0-.195 0-.195.047 0 .05 0 .098.05.146 0 .097.097.195-.097.34-.05-.048-.097-.097-.146-.048s-.146 0-.195-.05c0 .05 0 .1.05.1l.145.145h-.146c.147.146.244.194.293.146 0 0 .048.098.097.243-.05-.05-.097-.098-.146-.05-.048.05-.097.098-.146.05-.048.048-.048.145.098.194h-.05c.05.146 0 .243-.048.243s-.048.097 0 .243l.098-.05c.048.147.097.342.048.536-.048.243 0 .438.05.584l.047-.146c0 .048 0 .097.05.146.05.097-.05.243-.097.097-.146 0-.243.048-.243.146l.146.048h-.098c-.048.05 0 .1.098.05.048-.05.097 0 .097.05-.243.047-.292.145-.243.29.048.147-.05.293-.195.342.146.048.243.048.195-.098-.05-.097-.05-.097.097-.048-.05.048-.097.097-.097.146l.146-.05c-.05.195-.098.34-.146.44-.05.145-.098.29-.05.437h-.048c-.048.145-.048.194.098.242-.05 0-.05 0-.05-.048-.048-.05-.096-.05-.145 0 .195.048.243.146.146.243-.096.097-.145.194-.193.243 1.216.438 2.383.535 3.6.194l.583-.146c.73-.34 1.265-.68 1.848-1.07.34-.243.632-.535.973-.827.293-.29.585-.582.925-.826.243-.292.486-.535.778-.778 0-.05.05-.097.097-.146.05-.194.195-.34.39-.39v-.047c.145-.34.388-.535.63-.778.39-.584.828-1.07 1.266-1.605v-.097c-.048-.194.05-.34.243-.438.048 0 .048 0 .097.05.146-.195.292-.39.39-.584.096-.194.242-.388.388-.534l.146-.146c.05-.39.293-.68.487-.924.05-.146.146-.292.195-.438.05-.097.146-.195.194-.34 0-.244.098-.438.244-.535.097-.34.194-.584.34-.778.146-.34.243-.73.39-1.07.096-.34.242-.68.388-1.02-.05-.195 0-.34.243-.39.05-.438.147-.827.244-1.265.097-.39.194-.778.292-1.216-.05-.535 0-.924.243-1.216-.05-.535 0-1.02.096-1.508.043-.488.14-.974.188-1.51zm2.043 3.6h.05-.05zm.39-2.53v-.048.05zm.437.536l-.05-.05v.05h.05zM122.52 22.7c-.048 0-.048 0-.097-.05l.098.05zm-.728 2.285c.097 0 .146.05.097.097l-.098-.097zm-1.46 3.162c.05.05.05.05.05 0l-.05-.048v.047zm4.913-10.07c-.048-.145-.048-.193 0-.242l-.39-.243.39.486zm-1.654 1.8c0 .05.05.05.1.05-.05 0-.1 0-.1-.05zm-1.798 5.108c-.05 0-.05 0-.05-.05l.05.05zm5.448-9.387c-.05 0-.098 0-.146-.05h.097c0 .05 0 .05.05.05zm1.02-1.46c.05 0 .098 0 .098.05-.05.048-.05.048 0 .096-.05.05-.097.05-.05 0 .002-.048.002-.097-.047-.145zm-2.09 2.773c-.098.05-.098.05 0 .098.048.05.048.097 0 .146-.147-.05-.195-.097-.147-.146 0-.05 0-.097-.048-.146.048.05.048.097.097.05.05-.05.05-.05.097 0zm-3.113 5.254c.048-.048.048-.048.097-.048l.048.048h-.145zm-.73 1.022l.195.05-.195-.05zm.048 1.167c-.146-.05-.146-.097-.097-.097.048.048.048.048.097 0v.097zM156.765 11.025c-.048.146-.097.243-.194.34-.096.146-.048.244.195.39.05.048-.048.29-.097.437-.048.292-.146.583-.243.875s-.194.583-.243.875l-.438 1.897c-.146.63-.438 1.264-.876 1.8-.243.34-.34.777-.34 1.215-.048.632-.194 1.313-.438 1.946v.098c0 .05 0 .05-.05.05l-.048.048c.05.048.05.048.05.097v-.05l-.05.05-.146.438c-.05.147-.146.293-.195.44v.047l.05-.048c-.05.096-.05.193-.098.242.05 0 .05 0 .05.048 0 .05 0 .05-.05.05.146 0 0 .29-.048.34.048-.147.048-.147-.05-.05.05.05.05.098 0 .147.147.048.196.146.147.243 0-.05 0-.097-.048-.05v.05l-.048-.05c.048.05.048.098 0 .147-.05.05-.05.146-.05.194 0-.047 0-.047-.047 0 .048.05.048.05 0 .1-.05.047-.05.047 0 .047-.05.146-.098.292-.146.438-.048.194-.097.292-.145.34v.195l-.05-.05c.05.098.05.147.05.147-.05.05-.05.097 0 .146-.05-.05-.097-.05-.146 0l.096.146h-.097s.048.193.048.29c-.05.05-.05.098 0 .147-.05 0-.098 0-.05.05.05.047 0 .096-.048.096v.05c.098 0 .146 0 .098.047h-.05c0 .05 0 .097-.048.146.05 0 .05 0 .05-.05l-.05.05v.097c-.048.05-.097.146-.048.243.048.146 0 .244-.05.292V26.2c-.047.048-.047.097-.096.146-.05.05-.05.146 0 .195h.05c0 .147 0 .244-.05.293l.097.05c-.048.048-.048.145-.048.242s-.05.146-.098.195v.097c-.048.048-.048.097-.048.146h-.05c-.05.048-.05.146-.05.243-.047.05-.096.146-.047.243 0 .096 0 .193-.05.29V28.683c-.047.05-.047.05-.047.097l-.05.096v-.048c-.048.048-.048.048-.096.048v.098h-.05c0 .097 0 .194.05.243 0-.05 0-.05.048-.05 0 .05 0 .05.05.05-.05.048-.098.097-.05.097 0 .048-.048.097-.097.146.05-.05.098-.05.05.048-.05.098-.05.146 0 .098-.05.048-.097.048-.05.048.05 0 0 0-.047.05.048-.05 0-.147-.05-.293l-.048.05c-.048-.05-.048-.05 0-.098.05-.048.05-.048.05-.097l-.05.097h.098c.048-.097 0-.194-.05-.34-.048.05-.048.05 0 0 0-.048-.048-.097-.096-.048v.097s0-.048-.05-.096c.05-.098.098-.195.098-.34s.05-.195.098-.244c-.098 0-.098.05 0 .146l.048-.097c-.047.047-.096.145-.096.242.05-.05.05-.05.097 0 0 .05.244-.146.098-.195-.048-.048-.097-.097-.048-.243 0-.048 0-.048.048-.048v-.05c0-.145-.048-.29-.194-.34 0 .05 0 .05.05.05v.097c0 .048 0 .048-.05.048 0 .1 0 .147-.05.196l-.047-.05c0-.047 0-.047-.05-.047h.05-.05c0 .145.05.193.098.145-.048.05-.048.098-.048.146h.048c-.048 0-.048 0-.048.05v-.05c-.05.05-.05.097 0 .146h-.097v.097l-.05-.097c-.048.097-.048.146 0 .097.05 0 .05.05 0 .195h-.048c0 .048 0 .097.05.097.048.05 0 .097-.05.146.05.05.05.05.098 0 .048-.048.048-.048 0 .05-.05.048-.098.145-.098.194 0 .048 0 .048.05 0v-.05c-.05.147-.098.244-.147.196-.05 0-.097.097-.05.243.05-.05.05-.05.1 0 0 .146.096-.097 0 .05-.05.047-.1.145-.05.193l-.097-.097c0 .047 0 .047.048.096h-.097c.048.05.048.146 0 .194-.05.05-.05.146 0 .195-.05-.05-.098-.05-.05 0 .05.05.05.097 0 .146-.048-.048 0-.145.05-.242.048-.05 0-.098-.05-.146-.048.048-.048.048 0 .048 0 .05 0 .05-.048.098 0-.05 0-.05-.05-.098-.047.05-.096.146-.047.195.048.097.048.194.048.243v-.243c.05.05.097.05.05.05-.05.047-.05.096 0 .145-.05.05-.05.098 0 .146 0 .05 0 .05-.05.097v-.048c-.048.146-.097.194-.146.194-.146.048-.146.194-.146.29 0 .05 0 .098.05.05 0 .048 0 .048.048-.098 0-.097.048-.097.097 0-.097.05-.146.098-.097.146.048.097 0 .195-.097.34 0-.048 0-.097-.048-.048s-.05.05-.05 0c-.047.05-.047.097 0 .097v.097l-.047.05c.048.096.048.145.097.096v.243c-.05-.048-.05-.097-.05-.048-.047.048-.047.097-.096.048v.195c-.048.146-.048.194-.048.194-.05.05-.05.097-.098.243h.05c0 .146 0 .34-.05.486-.048.196-.097.39-.146.536l.05-.097v.145s0 .146-.05.194v-.098c-.048 0-.097.05-.097.097v.048h-.048c0 .05 0 .097.047.05.05-.05.05 0 0 .047-.048.05-.097.146-.097.292-.05.146-.097.243-.146.292.05.047.097.047.097-.05-.047-.097 0-.097.05-.05-.05.05-.05.1-.097.147l.097-.048c-.146.34-.194.485-.194.826h-.05c0 .097 0 .146.05.195-.05.05-.05.05-.05 0 0-.048 0-.048-.048 0 .05.098.05.195 0 .293-.097.097-.097.195-.048.243-.05-.048-.098 0-.146.05-.05.048-.05.096-.098.096v.146c.05.827-.34 1.07-1.07.73-.535-.195-1.02-.39-1.557-.584-.584-.195-.974-.535-1.168-1.07 0 .05 0 .098.05.098-.05 0-.098.048-.147.097-.048.096-.146.096-.194.047l.05.05c-.05 0-.098-.05-.05-.098 0-.05 0-.05-.048-.098l.05-.195h-.1c0-.048 0-.048-.047 0 .048-.048.048-.146.048-.194 0-.05 0-.146.05-.195 0-.146 0-.243-.05-.34 0-.292 0-.535.05-.68 0-.05 0-.05-.05 0 .05-.05.098-.098.05-.098s-.098 0-.098-.05l.097-.096c0-.048 0-.048-.05 0 0-.146 0-.243.05-.39.05-.096.05-.193 0-.29.05-.05.05-.05.097 0v-.05c-.05.05-.098.05-.05-.048.05-.097 0-.146-.048-.097.05-.05.097-.098.097-.195 0-.05.048-.098.097-.05.048-.048.048-.096 0-.096-.05 0-.05 0-.05.047 0-.146 0-.243-.048-.292.048-.05.048-.146.097-.292 0-.146.048-.243.097-.292-.05 0-.05 0-.097-.047l-.05.048v-.193s.05 0 .098-.05c0-.047-.048-.096-.097-.145v-.048c0-.05 0-.05.05 0 0 .048 0 .048.047 0-.048 0-.048 0-.048-.05v-.096c0 .097.048.097.097.048v-.097l-.097.048c.048-.34.146-.68.146-1.02 0-.147 0-.244.05-.293l-.05-.048c-.097-.05-.097-.146-.048-.292.048-.097.097-.195.048-.292-.048-.097 0-.194.05-.292.048-.047.048-.096 0-.145h.096c-.05-.098-.098-.243-.05-.39h.05c-.05-.048-.098-.145-.098-.194h.05v-.193c.096 0 .096-.05.047-.195-.05-.097-.05-.146.048-.194-.05-.05-.05-.146-.05-.292-.047-.05-.047-.097 0-.146.05-.048.05-.097.05-.146 0-.048-.05-.048-.097 0 .05-.048.098-.146.05-.243-.098-.145-.098-.145.048-.145 0-.048 0-.097-.05-.097-.047.05-.047 0 0-.048.05-.05.1-.05.147-.098.05-.048.097-.048.05-.097v.05c-.05-.05 0-.147.047-.196.05-.05.05-.05 0-.098h-.048c.048-.048.097-.097.048-.097-.097 0 0-.243.05-.292.048 0 0 0-.05-.05v.05-.293-.291c0 .047.05.047.098 0-.05-.05-.05-.1 0-.147-.146-.05-.195-.146-.195-.195 0 .05 0 .05.05.05v-.05h.047c-.048-.048-.048-.097 0-.146.05-.05.05-.098 0-.146.05.048.05.048.098 0-.05 0-.05-.05 0-.097.048-.05 0-.05-.05-.05l.147-.438c0-.146.048-.243.097-.292v-.146h.05c-.05-.05-.1-.097-.05-.146 0 0 0-.05-.05-.097.05.05.1.05.147 0l-.096-.145h.097c-.047-.05-.047-.05 0-.097-.047-.05-.047-.146-.047-.292.048 0 .097 0 .048-.05-.047-.047 0-.047.05-.047-.05-.05-.05-.05-.05-.1l-.047.05c-.05 0-.05 0 0-.05l.048-.047v-.098l-.047.05c0-.05 0-.05.048-.05.05-.048.05-.048 0-.097.05-.048.1-.146.05-.243s0-.194.097-.243c-.048 0-.048 0-.048.05.047-.05.047-.147.096-.196.048-.048.048-.097.048-.146h-.048v-.243l-.05-.048c.05-.05.05-.147.05-.244 0-.05.048-.097.097-.146-.05-.05-.05-.05 0-.097.05-.05.05-.098.05-.146h.047c.05-.05.05-.146.05-.195.047-.048.096-.146.096-.243s0-.195.05-.244h.047v-.146c0 .05 0 .05 0 0-.048-.048-.048-.048 0-.097 0-.05.05-.097.098-.146v-.097c0 .05 0 .097.05.05.048-.05.048-.05.096-.05l-.048-.05h.048v-.193h-.048c0-.05 0-.05-.05-.097.05-.05.098-.05.098-.098 0 0 .05 0 .098-.048-.05.048-.05 0 0-.097.048-.05 0-.098-.05-.05.05-.048.098-.048.098-.048-.048 0-.048 0 0-.05-.048.05-.048.098 0 .147v.146l.097-.048c.048.048.048.097 0 .097-.05.05-.098.05-.098.097 0-.05.05-.098.097-.098h-.098c-.048.05-.048.146-.048.292.048-.05.048-.05.048 0 0 .048 0 .097.05.048v-.052h.047v-.097l-.05.048s0-.047.05-.096c.048-.097.048-.195.048-.292s0-.194.05-.292v-.097l-.05.05c0-.05 0-.05-.05-.098h.147v-.195c0-.05 0-.05-.048-.097 0 .048 0 .097-.05.146l.05-.147c0-.05 0-.05.048-.05v.05c.05-.05.05-.097.05-.146v.05c-.05 0-.05 0-.05.047v-.146l-.048-.048c-.05.048-.05.048-.05.097v-.097c-.048-.05-.048-.05-.096-.05s-.048 0-.096-.047c-.243.438-.487.827-.73 1.216s-.486.777-.73 1.215c-.728 1.216-1.07 1.362-2.382.827-.924-.34-1.703-.778-2.626-1.216-.438-.243-.535-.632-.243-1.07 2.53-4.67 5.01-9.193 7.54-13.814.534-.924 1.264-1.8 1.993-2.578.73-.73.924-.632 1.654.097.68.78 1.362 1.558 2.043 2.287 1.362 1.557 2.724 2.87 2.675 4.183-.05.632-.147 1.313-.293 1.945zm-9.824 12.112h-.05.05zm-.097 2.14c-.05 0-.05 0-.098-.05.05 0 0-.096-.048-.048h-.05V25.324l.098-.097c0 .097.05.146.098.146v-.097zm.048-.194c-.047 0-.047 0-.047.05h.048v-.05zm.05-.195c0-.146 0-.243.05-.292-.05 0-.1 0-.147-.048 0 .097.048.194.097.34zm.05-.438c0-.048 0-.048.047-.048v-.05h-.048v.098zm.047-.146c0-.048 0-.146.05-.194-.147 0-.147.048-.05.146v-.05c-.048.05-.048.098 0 .098zm.097-.632h-.097c.05 0 .097.05.097.195v-.195zm.05-.243c-.05-.05-.098-.05-.147-.05-.048.05-.097.05-.146 0l.244.293c.05-.048.05-.048.05-.097l-.098-.048h.097v-.1zm.048-.196l-.098.097c0 .05.05.05.098.05v-.146zm0 0c0-.05 0-.05.048-.097h-.146l.098.097zm.048-.194c-.048 0-.097 0-.097-.048l.097.146v-.098zm.05-.195c0-.05 0-.097.047-.146v-.147h-.194c0 .05 0 .097.05.146.047.048.047.096.096.145zm.047-.39c-.048-.145-.146-.29-.292-.437l.048.146h-.048c0 .146.146.34.292.39v-.098zm.05-.194c0-.047 0-.047.048-.096v-.146h-.098c-.048.098 0 .195.05.243zm.145-.777c-.05 0-.05-.05-.05-.098-.047-.048-.096-.048-.145 0l-.097.098c-.048.048-.048.048-.048.097.048.048.194.097.34.097v-.194zm.05-.048h-.05v.05l.05-.05zm.145-.876l-.048.047c-.05.05-.05.098-.05.146-.048.05-.048.146-.097.195h-.097c0 .146.048.243.194.194-.048.05-.048.098-.048.098-.05 0-.05.048-.05.097l.05-.05.145-.728zm0-.05l.05-.048h-.05v.048zm.048-.194c.05-.097.05-.195.097-.34 0-.098 0-.195.05-.293-.05.048-.098.146-.098.194 0 .097-.05.146-.098.146l.05-.05v-.047l-.05.048c0-.048 0-.048.05-.097.048 0 .048-.048.048-.097-.05 0-.05 0-.05-.05-.048-.047-.29.147-.145.196.048.048.048.097 0 .243l-.05-.05v.098c0 .194.05.292.147.292 0-.146 0-.194.048-.194zm2.627 12.452c.05 0 .05 0 .098-.05-.05.05-.05-.048-.05-.193 0 .097 0 .194-.048.243zm1.605-4.62c.048-.05.048-.098 0-.147v.1l.048.047h-.048zm.05-2.433c.048.05.097-.048.048-.243-.05-.146 0-.243.146-.292v-.048c-.048 0-.048 0-.048-.05-.535.633-.632 1.51-.778 2.336-.097.535-.194 1.02-.292 1.557l-.292 1.605c-.05.34-.097.632-.146.924-.05.292-.146.583-.194.924.048-.048.048-.146.097-.243 0-.048.048-.048.097 0 .05-.048.05-.097 0-.146-.05 0-.05 0-.05.048.05-.097.05-.243.05-.39.05-.047.097-.145.146-.388.05-.194.097-.34.146-.39-.05.05-.05 0-.05-.096l-.096.05.05-.196c0-.048 0-.048.047-.048 0-.05 0-.05.05-.05 0 .05 0 .05 0 0 .047-.048.047-.096.047-.145-.048 0-.048-.048-.048-.097v-.05.05s.048.097.097-.05c-.05-.047-.05-.047-.05-.096s0-.05.05-.097c-.05.048 0 .097.05.097l.047-.146h-.097c.05-.097.05-.194.097-.34 0-.097.05-.195.097-.292l.146-.73c.05.05.097 0 .097-.145 0-.098.05-.147.098-.098-.05.048 0 .097.048.048.05-.048.05-.097.05-.146-.05.048-.05.048-.05-.05-.048-.048-.048-.048-.097.098l-.05-.194c-.097-.097-.097-.243 0-.39.098-.145.146-.29.146-.437v.05c0-.146.05-.292.098-.39.048-.096.097-.194.048-.242h.098c-.05-.146 0-.34.048-.486v-.146c-.048-.05-.048-.097 0-.195h.05l.048-.245zm-1.12 4.913c0 .048 0 .048.05.048v-.048h-.05zm1.265-2.967s-.048 0-.097-.048c0 .05 0 .098.05.098v.048h-.1l.05.146v-.097c0-.05.05-.05.097-.05v-.096zm0-.048c.05-.048.05-.097.05-.146 0 .05 0 .05-.05.05v.096zm.584-3.162l.048.05V24.4h-.048v.048zm-.05.487v-.048.047zm-.048.097v.048-.048zm-.243 1.12v.048c0-.05 0-.05.05-.05h-.05zm-.097 1.166c0-.05 0-.098-.05-.098v.098h.05zm.194-.584l.098-.097c-.05-.05-.098-.05-.195-.05 0 .05 0 .05-.048.098l.145.048h-.146v-.048c0 .048 0 .097-.05.146h.098l.098-.098zm.195-.73h.05c0-.048-.05-.145-.147-.242 0 .097 0 .146.048.146-.048.048-.048.048 0 0 0-.05 0-.098-.048-.146l-.098.097c0-.048 0-.048.05-.048v-.097c-.05.05-.05.097-.05.146.05.05.146.147.195.293v-.146zm.243-1.07h-.05.05zm-.194-.34c.048.05.097.05.194.05l-.097-.147c-.05 0-.05 0-.097.048l.048-.05h-.098v.05l.05.048zm.388-1.216c0-.098 0-.146-.048-.195v.146l.048.05zm.146-.68h.098v-.147c-.05 0-.098.05-.098.097v.05-.05.098l.05-.05h-.05zm-1.605 9.727l.05.098-.05-.098zm.05-.437c0 .048 0 .097.047.146v.194l-.097-.048h.05v-.195c-.05-.05-.05-.05 0-.097zm-.05-.05V32.088l-.05-.05.05-.096zM184.394 28.196c.34 1.313-.195 1.994-1.167 2.724-1.605 1.12-3.21 2.19-5.107 2.772-3.113.924-6.13 1.897-9.242 2.918-.34.098-.632.243-.924.39-.34.145-.68.29-1.02.34-1.217.243-2.384.39-3.698.535-.827.05-1.41-.243-1.848-.924-.34-.534-.68-1.02-1.02-1.507l-1.022-1.46c-.146-.242-.292-.63-.146-.777.146-.194.438-.243.778-.292.05 0 .146 0 .195-.05h.194c.05 0 .05 0 .05-.048h.145c.048-.048.048-.048.097-.048.047 0 .047 0 .096-.05h.34c-.048-.048 0-.048.098-.096l-.098-.05h.243c-.05.05 0 .05.048.05.05-.05.097-.05.146-.097l.048-.05c.05 0 .05 0 0 .05-.048.048-.048.048 0 .048 0-.048 0-.048.05-.048h.096c-.146 0-.048.048 0 .048h.098l-.05-.097c.196-.05.39-.05.584-.05.195.05.39.05.535 0 .05.05.097.1.195.05.048-.05.097 0 .097.05h-.05c-.047 0-.047 0 0 .047.05.05.098.05.147 0-.05 0-.05 0 0-.048.05-.05 0-.05-.097-.05l.146-.096c.048-.098.146-.147.292-.098.146.048.244.048.34 0v.048c.098-.048.195-.097.293-.048.098.048.146.097.195.048l.05.05c.096-.05.242-.098.388-.05.05-.048.147-.097.244-.048h.244c0 .048.048.048.146 0 .097-.05.194-.05.243 0 .048 0 .048 0 .097-.05h.048c.05 0 .05 0 .098-.048h.048c0-.048.097-.048.243-.048h.147c0-.05 0-.05-.048-.098.047.05.145.05.242-.048.146-.146.194-.097.194.048h.05c.047-.048.047-.048.047-.097-.048-.047 0-.047.05 0h-.05.05c0 .05 0 .05.048.05.244-.05.584-.097.925-.243h.146c0-.05 0-.05.05-.05h-.05l.05-.047v.097c0-.05 0-.05.048-.05 0 0 .05-.047.05 0h.096l-.048-.047c.146-.05.243-.098.39-.146.145-.05.243-.098.39-.146.047.048.096.048.145 0 .05-.05.05 0 .1.048h-.05.097c0-.048 0-.097-.048-.097l.047-.098c0-.097.05-.146.195-.146.097.05.194 0 .243-.05.048-.047.146-.096.243-.096.048.05.097.05.097 0l.05.05c.047-.098.145-.147.242-.196l.048.05c0-.098.05-.147.098-.147l.194-.048c.05.047.097.047.146-.05s.146-.097.194 0c0-.05.05-.097.146-.194v.048c.05-.048.098-.097.146-.097.096.05.145-.05.096-.097.05.048.098 0 .146-.05.05-.048.05-.096.097-.096.048 0 .097 0 .097.048-.05.05-.05.05 0 .05.048-.05.097-.05.048-.098-.048-.05-.048-.05 0 0 .05 0 .097.048.146.097s.05.098.098.05l-.048-.05c.048-.048.146-.048.194 0 .05.05.05 0 .05-.048l-.05-.048c.098.048.146.048.146 0 0-.05.05-.05.097-.05v.05c.098-.05.146-.05.146-.097h-.048c.048-.05.146-.05.194-.05l.048-.048c0-.05.194-.098.243-.098-.048.05-.048.05 0 .097 0-.05.05-.098.098-.098 0-.146.05-.194.097-.243-.048.048 0 .096 0 .048v.097c.05-.05.05-.097.097-.097.05.048.098 0 .146-.05v.098c0-.048.05-.097.097-.048.05.048.05 0 0-.05.146 0 .244-.048.39-.096.097-.05.194-.05.242 0 .05 0 .05 0 .098-.05l.097-.096c0 .048.05 0 .097-.05-.05.05-.05.098.048.098l.05-.097.047.05c.05-.05.146-.147.195-.147.048 0 .048 0 .048-.05.05.05.097 0 .097-.047 0-.05 0 0 .05.048l.048-.047c-.05-.05-.05-.097 0-.097l.048.048.05-.048h-.05.098-.048.097c.05.048.146 0 .194-.098.05-.048.1-.097.196-.048-.05 0-.05 0-.05.048.05-.048.147-.048.196-.048.048.048.048 0 .097-.05l-.05-.047c.146-.05.195-.098.195-.098v-.048c.048-.05.146-.098.194-.146.048-.048.097 0 .145.05 0-.05.05-.05.195-.05l.048.05c.05-.05.05-.05.098-.05l.048-.048c.05.05.146 0 .195-.048.047-.05.145-.05.193-.098v.05l.097-.098c0-.05 0-.05.05-.05.048-.047.096-.047.145-.047h.097c-.05 0 0 .05.05.098l.047-.05v.05l.145-.146-.05-.05c.05-.047.05-.047 0-.047.05.048.1.048.147 0h.098c-.05-.05-.05-.05-.098-.05-.243-.047-.486-.145-.632-.193-.194-.05-.39-.05-.535-.05-1.12-.145-2.14-.29-3.113-.145-.875.146-1.75.195-2.578.097-.875-.097-1.75-.146-2.578-.097-2.772.097-4.767-1.167-5.935-3.745-.437-.924-.923-1.897-1.36-2.82-.487-.925-.974-1.898-1.412-2.822-.924-1.848-1.02-3.697-.34-5.545.535-1.216 1.12-2.48 2.335-3.21.486-.34.68-.73.583-1.167-.05-1.362 1.703-1.313 2.53-1.362.437-.05.826-.097 1.264-.146 2.14-.34 4.28-.632 6.47-.973 2.14-.292 4.28-.584 6.468-.924.146 0 .243 0 .292-.048 1.702-.34 2.092.048 2.14 1.8.05.73.097 1.41.195 2.09.048.73.146 1.412.194 2.14v.584c-.05.243 0 .437.048.63.194.78-.292.828-.876.974-1.8.243-3.55.486-5.35.73-1.8.242-3.55.485-5.302.777h-.097s-.048 0-.097.05h-.195c0 .048 0 .048.05.048v.05c0-.05.097-.196.097-.05h.05-.05c0 .05 0 .05-.048.05-.05 0-.05 0 0 .047-.05-.048-.05-.048 0-.048.047 0 0 0-.05-.05v.098s-.05-.048-.097-.097h-.097v.05c-.05.047-.05.047-.05 0l.05-.05h-.05c-.048.05-.048.05-.096.05l.048.047v-.048.097-.05h-.048c-.05 0-.05 0-.05-.047-.096.097-.096.146 0 .146-.047.05-.096.098-.096.05.05.048.097.048.05 0-.05 0-.1 0-.05.048-.05.05-.05 0-.097-.048v.097c-.05-.05-.05-.098 0-.147 0-.048 0-.048-.05-.097v-.048l-.048.048v.097l-.05-.097h-.048c0 .146.05.243.146.34 0 .05-.097 0-.097-.048-.048-.05-.096-.05-.096 0s0 .097-.05.097l.05-.048c-.05-.05-.098-.05-.098.048 0-.097 0-.146-.048-.194-.146.05-.146.147-.097.293l.098-.146c.048.048.048.097 0 .097-.05 0-.05.05-.05.097h-.096v-.047l-.05-.05c0-.096 0-.194.05-.242h-.05.05c0-.048 0-.048-.05-.048h-.047v.05c-.05.047-.05.096-.05.145v.097c-.047 0-.047-.05-.047-.146-.05.05-.098.097-.05.146 0 .05-.048.097-.097.097h.05c0 .05 0 .05-.05.05h-.047c-.146 0-.146-.05-.05-.146l-.047.194s0-.048-.05-.097v-.05V15.305c-.048-.048-.096-.048-.145-.097.05 0 .05 0 .05.05 0 .047 0 .096.048.096-.048.05-.048.05-.097 0 0 0-.047-.097-.096-.243l-.05.293c-.047 0-.047 0-.047-.05v-.096c.048.146-.097.194-.243.243h.048c0-.05 0-.05-.048-.05-.05 0-.05 0-.05.05-.047-.05-.047-.05 0-.05-.047-.047-.096 0-.047.05.048.097 0 .146-.05.097.147 0 .05-.05-.048-.05-.05 0-.05.05 0 .1-.05 0-.098 0-.098-.05l-.097.146c.048-.05.048-.05 0-.05.048 0 .048-.047.048-.096s.05-.05.098 0c-.048-.05-.097-.097-.097-.146-.048 0-.097.098-.146.34h-.098l-.05-.047-.048.048v-.047.048c-.048-.047-.048-.096-.048-.145v-.05.05V15.5l-.05.048v.05h.05c-.05.096-.05.193 0 .242l-.05-.05-.096.196-.05-.05c0 .05-.048.05-.096 0-.05-.047-.098 0-.05.05v.097h-.048v.05l-.048-.05c-.05.097-.097.146-.146.146-.05.048 0 .048.05.048.047.048.047.048 0 .048-.05-.048-.1-.097-.147-.048v.097l-.05-.05h-.047c-.05.05-.05.05-.098.05 0 .048.05.048.098.048.048.05.048.05.048.098l-.048-.048c-.05.05-.05.05-.098 0l.05-.05c-.098 0-.147 0-.098.05 0 .097-.05 0-.05-.05 0-.047 0-.047-.048-.047v.048l-.048-.048v.146l-.05.05-.047-.05v.098c0-.05-.146-.05-.098.05.048.047 0 .096-.05.047h-.048c.05.05.05.097 0 .146-.194.05-.048.196-.048 0h-.098l.05-.048c-.05-.048-.098 0-.098.146-.05 0-.05 0-.05-.048 0-.05 0-.05-.047 0-.048.048 0 .097.05.097.048 0 .048 0 0 .05l-.098-.05c0 .05 0 .097-.05.097-.047 0-.047 0-.096.05v.047c-.05 0-.097 0-.05.05 0 .05 0 .097-.047.097h-.1l-.047.097c.048-.048 0-.097-.05-.146v.097c0-.05 0-.05-.047-.05V17.493l.048-.05-.097.1-.05-.05c.05 0 .05 0 .05-.05h-.097v.05c0 .05 0 .05.048.05-.048.047-.048.047-.048.096l-.05-.05-.047.05v-.05c-.05.05-.05.05 0 .05.048 0 0 .05-.05.097l-.048-.048v.097c0 .048 0 .048.05 0 .048 0 .048.048 0 .097h-.098c0 .05 0 .05.048.05.05 0 .05 0 .05-.05-.05.05-.098.098-.147.05-.048 0-.097.048-.097.097.05-.05.05-.05.05 0 0 .097.146.048.048.048-.048 0-.097 0-.048.05l-.05-.05c-.048 0-.048 0 0 .05l-.048-.05c.05.05.05.098 0 .098-.048 0-.048.048 0 .097-.048-.05-.097-.05-.048 0 0 .048 0 .048-.05.048-.048-.048 0-.097.05-.146.048 0 0 0-.05-.05-.048 0-.048 0 0 0 0 .05 0 .05-.048.05v-.05c-.048.05-.048.098-.048.195l.048-.097c.05.05.098.05.05.05s-.05 0 0 .047c-.05.05-.098.098-.05.098-.048.048-.048.097-.097.048-.098 0-.147.146-.098.146.05.048.05 0 .05-.05 0-.048.047-.048.096 0-.05 0-.097 0-.05.05 0 .048-.047.145-.096.194v-.05c-.05.05-.05.05-.097 0 0 .05 0 .05.048.05v.048h-.048c.048.05.097.098.097.05 0 0 0 .048.05.096-.05-.048-.05-.048-.05 0-.05.05-.05.05-.05 0-.047.05-.047.05 0 .097 0 .05 0 .098-.047.098-.05 0-.05.048 0 .097H164.11c0 .05 0 .05.05.05.63.242 1.312.34 2.042.388.68.05 1.362.05 2.043.098 4.28.194 8.463.68 12.355 2.48.924.39 1.605.875 2.383 1.41 1.12.73 1.07 1.85 1.216 2.968.048.243.097.486.097.73s.048.54.097.782zm-14.592-13.62l-.05.05h.05v-.05zm-.78.195v-.047.048zm-.68.147h.05-.05zm-.34.097v.098-.098zm-.243.097h.048-.098.05zm-.05 0l-.048.05.048-.05zm-.486.488l-.048.05h.048v-.05zm-.098-.146h.05l-.05-.048v.048zm-.243 0v.097l.048-.05v-.048h-.047zm-.097.048c0 .048 0 .048.05.097h.048l-.098-.097zm-.487.876v.048-.048zm.437-.68v-.05.05zm0-.147v.097l.048-.05v-.048h-.048zm-.486.242c-.048 0-.048 0 0 .05.098.096.147.096.147.048h-.05c.05-.05.098-.098.147-.05.048.05.097 0 .048-.048l-.048-.048c.048.048.097.048.097 0 0-.05.05-.05.098-.05v.05c0-.05 0-.05.05-.05l-.05-.145v.145s0-.048-.048-.097c0 .097-.05.146-.195.146 0-.05 0-.05-.048-.05l-.05.05c0 .048 0 .097-.048.048v-.048l-.05.048zm-.097.05v.048-.05zm-1.02.534c0 .048 0 .048-.05.048 0 .05.05.098.147.098v-.05h.048l.05-.048c.048 0 .048 0 .048-.048.048.097.097.097.146 0 0-.097.048-.097.146-.05-.048-.047-.048-.096 0-.145.05 0 .05 0 .05-.047h.048c-.05-.05 0-.05.048-.05h.097c.05-.047.05-.047 0-.096l.05-.05h-.05v.05-.05c-.047.05-.145.1-.193.1 0 .047 0 .047-.05.096v-.05c-.047 0-.096.05-.145.098h-.05v.05-.05h-.048c0 .05-.048.1-.097.1-.05.047 0 .047.05.047.047.05.047.05 0 .097-.05-.048-.1-.097-.147-.097v.097-.048h-.098zm-.05.048h-.05c.05.05.05.05.05 0zm-1.556 1.557v.05c.05 0 .05 0 .05.048V17.933h-.05v.048zm0 .487h.05-.05zm.39-.437v-.05c-.05.05 0 .05.048.05l.048-.05-.097-.047c.097-.098.146-.195.195-.243l.147-.146c0-.05.05-.098.098-.146.048.048.048.048.097 0 0-.05.05-.05.097 0h-.05c0 .048 0 .048.048.048.05 0 .05 0 .05-.048-.05 0-.05-.05 0-.097 0-.048-.05 0-.098.05v-.147c-.05-.048 0-.097.048-.146.097-.05.146-.098.195-.146v.05c.048-.05.097-.098.146-.147.048 0 .097 0 .097-.048l.048.048c0-.146.05-.194.146-.243 0 .05 0 .05.05.05-.05-.05-.05-.05 0-.098h-.146v-.05c-.05-.048-.097-.048-.05 0 0 .098-.047 0-.047-.048l-.05.05v.048h-.048v.048h-.05c.05 0 .05 0 0-.048v.097-.05l-.048.05.05-.05h-.05c-.048 0-.048.05 0 .098.05.048 0 .097-.048.048l-.05-.048c.05.048.05.097 0 .146-.145.05-.048.195-.048 0h-.048v-.048c-.05-.05-.05 0-.05.146 0 0 0-.05-.047-.098l-.048.05v-.05.05c-.05.048 0 .048.05.048.047 0 .047 0 0 .048h-.05c0-.048-.05 0-.146.098v.048c-.05 0-.05 0 0 .05 0 .047 0 .047-.05.096 0-.05-.047-.05-.096-.05v.048c-.048 0-.097-.048-.048 0l-.05-.048V17.348h.05-.05c0 .05 0 .05-.048.05v-.05-.048c-.048 0-.048 0-.048.048 0 .05 0 .05.048.05-.048 0-.048.047-.048.096l-.05-.05v.05l-.047-.05v.05c.047.05.047.05 0 .05h-.05l.05.047v-.047.048h-.05c.05.05.05.05.097 0v.1h-.097c0 .047 0 .047.05.047v-.048c0 .047-.05.047-.147.047v.05c.048 0 .048 0 .097.047v-.048c.05.048.05.048 0 .048s-.097 0-.05.05l-.047-.05v.05h-.05c.05.048.098.096.05.096-.05 0-.05 0 0 .05-.05-.05-.098-.05-.05 0 .05.047-.048 0 0-.05.05 0 0 0-.048-.048v.048h-.048v.05h.048c-.048 0 0 0 .05.047-.05.05-.098.098-.05.098 0 .048-.048.048-.146.048 0 .05 0 .05.047.05v.096-.05c.05.05.05 0 .05-.048-.05-.05 0-.05.047 0-.048.048-.048.048 0 .048.05.05 0 .098-.048.146.048.05.097.146.097.243.05-.195.146-.293.195-.34-.05.048-.05 0-.05-.05h-.096l.048-.097h.098c0-.048 0-.097-.05-.146v-.047c.05 0 .05 0 .05.048 0 .05 0 .05.048 0v-.048zm-2.58 14.543c-.047.05-.047.05-.047 0h.048zm11.286-2.188c.048 0 .048 0 .097-.05h.048-.097c-.047 0-.047 0-.047.05zm.39-.146c.048 0 .048 0 .097-.05h.048-.097l-.048.05zm.194-.05c.05 0 .05 0 .05-.05h.047-.098v-.145l.05.048v-.097h-.05v-.05l-.096.05h.048c0 .05 0 .05.05.05-.05.096-.098.145-.05.193h.05v-.05.05zm.535-.194c.048 0 .048 0 .048-.05-.048-.048-.048-.096-.048-.145-.05.05-.146.098-.195.244.05 0 .097 0 .146-.048h.05zm.146-.098h.097-.097zm.145 0c0-.048 0-.048.05-.048h-.05v.048zm.487-.194v-.05l-.05.05h.05zm.097-.05c.05-.047.097-.145.05-.193-.05 0-.05-.048-.05-.097l-.05.292.05-.048v.048zm.146-.048v-.05.05zm.05-.292v-.05.05zm.096.195h.047-.048zm.388-.147c.05 0 .05 0 .098-.048v-.05l-.098.098zm.292-.097c.05-.194.097-.292.097-.34l-.048.097-.05-.048c-.05.146-.097.243-.097.34.048-.05.048-.05.097-.05zm.632-.292c.05 0 .05 0 .097-.05l-.05-.048h-.097c-.048 0-.048 0-.097-.048 0 .048 0 .146.05.194v-.048s0-.05.047-.098l.05.098zm.34-.146c.05 0 .098-.05.05-.097 0 .05 0 .05-.05.098zm.876-.39c.048-.048.097-.048.146-.048 0-.146-.194-.194-.194-.097 0 .05-.05.097-.146.146h-.048l-.146.145h.097l.097-.05c.05-.048.05-.048.097-.048.05 0 .05 0 .098-.048zm.39-.194c.048-.048.048-.048.048-.097l.05-.048-.05.047c0 .05 0 .05-.05.097zm-2.724.68c0-.048.05 0 .097.05h-.047l-.05-.05zm-1.897 1.023v.05-.05zM177 28.342h-.097.097zm-.194.048c.048-.048.048-.048.097-.048l-.05.048h-.047zm.924-.39h.05-.05zm-.048.05c0 .05-.098.146-.05 0 .05-.05.05-.05.05 0zm-13.377-10.945c.05 0 .05 0 .05.05l-.05-.05zm.535-.39l-.05-.096.05.048v.048zm-.194.244c-.048.048-.097-.098-.048.048 0-.05 0-.05.048-.05zm.68.243v.05-.05zm2.92-1.946l.096.097c-.048 0-.048.05-.097.097v-.193zm2.188-.778c0 .047 0 .047.048.047l-.048.05v-.098zM168.83 15.16c0 .048 0 .048.047 0v.048c-.048 0-.048 0 0 .05.05.047 0 .047-.048 0v-.098zm-2.336 1.264v.05l-.05-.05h.05zm-.535.244l.048.048-.05-.048zm-.293.39c0-.05 0-.05.05-.05l-.05.05z"/></svg>
