<svg xmlns="http://www.w3.org/2000/svg" viewBox="0 0 1716.237 445.349"><path d="M7.84 121.413c20.414-9.96 32.174-15.025 35.278-15.19 3.59 0 5.39 15.764 5.39 47.284V297.56c0 34.626-1.455 53.98-4.36 58.06-4 4.085-16.265 6.616-36.798 7.596v12.004h123.474v-12.004c-21.597-.98-33.935-3.223-37.02-6.737-3.085-3.51-4.628-31.727-4.628-84.644V46.202H75.843L0 108.92l7.84 12.493zM191.65 336.39c19.902 29.643 47.23 44.464 81.98 44.464 33.747 0 61.002-17.065 81.76-51.203 17.11-28.417 25.67-65.9 25.67-112.448.16-56.183-8.705-98.32-26.6-126.414-19.794-31.194-45.92-46.792-78.376-46.792-34.428 0-62.08 15.6-82.963 46.792-20.884 31.197-31.323 72.355-31.323 123.474 0 51.778 9.95 92.484 29.854 122.127zm35.712-242.66c10.39-21.07 24.996-31.604 43.814-31.604 19.47 0 35.178 12.58 47.125 37.728 14.727 30.708 22.092 75.295 22.092 133.763 0 77.745-18.41 116.614-55.226 116.614-23.404 0-41.487-14.614-54.25-43.852-12.76-29.234-19.143-70.472-19.143-123.72.002-38.216 5.196-67.86 15.59-88.928zM456.424 336.39c19.9 29.643 47.23 44.464 81.98 44.464 33.746 0 61-17.065 81.76-51.203 17.11-28.417 25.67-65.9 25.67-112.448.16-56.183-8.705-98.32-26.6-126.414-19.795-31.194-45.92-46.792-78.377-46.792-34.428 0-62.08 15.6-82.962 46.792-20.885 31.197-31.324 72.355-31.324 123.474 0 51.778 9.948 92.484 29.854 122.127zm35.71-242.66c10.39-21.07 24.996-31.604 43.814-31.604 19.47 0 35.178 12.58 47.125 37.728 14.726 30.708 22.09 75.295 22.09 133.763 0 77.745-18.407 116.614-55.224 116.614-23.405 0-41.488-14.614-54.25-43.852-12.762-29.234-19.144-70.472-19.144-123.72 0-38.216 5.195-67.86 15.588-88.928zM667.786 445.35L844.286 0h-28.05L639.472 445.35h28.314zM1053.4 152.96s.5 0 1.002.5c-.5 0-.5 0-.5-.5-.503.5-.503.5 0 .5-.503.502-.503.502-1.005.502 0 .502-.5 1.505-1.003 3.01h.5-.5c-.502.502-.502 1.505-.502 2.007-.502.5-.502 1.504-1.003 2.006h.5c0 .5 0 .5.502.5-.502.502-1.003.502-1.003 1.004s0 .502.5.502h-.5v.5c.5 0-1.004-1.002-1.506-.5 0 .5 0 .5-.5.5v.502-.5c0 .5 0 1.002-.503 1.002l-.5.502h1.003c.5.5.5.5 0 .5-.502.502-1.003.502-1.003 1.004 0-.502 0-.502.5-.502l-.5-.5c-.502.5-.502.5-.502 1.002v1.505c.502-.5.502-.5.502 0-.502.502-.502 1.004 0 1.004l.5-.5v.5c-.5.502-1.002 1.506-1.504 2.51-.502 1.002-.502 1.504-1.003 1.504v-1.003l-.502.502c.503-.5.503-.5 1.004-.5 0 0 0-.503.502-1.004-.502 0-.502 0-.502-.502-.5-.5-2.508 1.003-1.505 1.505.5.502 0 1.004-.503 2.008l-.5-.502-.503.502c0 2.007.502 3.01 1.505 3.512 0-1.505 0-2.006.5-2.006v2.006c-.5 0-.5 0 0-.5.502-.503 0-.503-.5 0v.5h-1.004c-.502.502-.502 1.003-1.004 1.505-.5.502-1.505 1.505-2.006 1.003 0 1.505.5 2.508 1.003 2.508v.502c-.503 0-.503 0-.503.502h.502c-.503.5-.503.5 0 1.003h-1.004v.5c-.502 0-.502-.5-.502-1.002-.5-.5-.5-.5-1.003-.5h-.5c-.502.5-1.506 1.003-2.008 1.003.502.5 2.51 2.006 4.014 2.508-.502 0-2.007 0-1.505 1.004.503.502 0 1.003-.5 1.003v-.5c-.502 0-.502 0-.502.5v1.003c0-2.007-2.007-1.003-1.505.502 0 .5 0 1.003.502 1.505l.502-2.007c.5 0 1.003 0 .5.502-.5.5-.5 1.003 0 1.505l-1.002 1.003v-.5c-.502.5-.502.5-.502 0l-.5.5c-.502-.5-.502-1.505-1.004-3.01-.503-1.003-.503-2.007-1.004-2.508v1.003h-.502c0 .5.502 1.505 1.003 2.508.502 1.003.502 2.007 1.004 2.51-.5.5-1.003 0-1.504-.503l-.502-.5c-.5.5-.5 1.002 0 1.504.502.5.502 1.505 0 2.007l.502-.5c0 .5 0 .5-.502.5-.5 0-.5 0-.5.502-.503 0-1.004 0-1.506-.5l.502 2.006c0-.502 0-.502-.502-1.004-.5 0-.5 0-.5-.5-.503.5.5 2.006 1.002 1.504-.502.5-1.003.5-1.505.5l.502.503h-.502.502v1.004c-.502 0-.502 0-.502.5 0-.5-.5-1.002-2.007-2.507 0 .5 0 1.003.502 1.505l1.003 1.003v1.003l-.502-1.003c-1.002-.5-1.504-1.003-1.002-1.003s0 0-.5-.5l1.002 2.507-1.003-1.004c1.505 1.505-.502 2.51-2.007 4.014h.5c-1.504-1.505-1.504.502-1.504 1.003v1.003l.5.502h-1.002l.502-.502h-1.004l1.004 1.003c-.502 0-.502 0-.502-.502h-.502s0 .5.502 1.003h-1.503c2.007 1.506 3.01 2.008 3.01 2.008.5.502.5.502 0 0-2.007-1.003-4.014-1.505-2.51.502.502 1.003.502 1.505 0 1.505l-.5-1.505c-.502-.502-.502-.502-.502 0 0 .5 0 1.003.502 1.505-.502 0-1.004-.502-1.505-1.003l-1.505 1.003h.502-.502l1.505 1.505 1.003 1.003-.502-3.01c.502.5 1.004 1.504 1.004 2.006 0 .5.5 1.504 1.505 2.006l-1.505 1.003c0-1.506-.502-1.506-2.51-2.008l-1.504-1.505c0-.5-.502-1.003-1.004-1.505.502 1.004.502 1.505 1.004 1.505h-1.004v.502l1.505 1.504c-.5 0-1.003-.5-1.505-1.003 0 .503 0 1.506-.5 2.008 0-.5 0-1.003-.502-1.003v.502c.5.5 1.003 1.003.5 1.505h1.004c0 .502 0 .502-.502.502-.5.5-.5.5 0 1.003-1.505-.502-2.508-1.505-3.01-2.007v.5l1.505 2.008-1.003-1.003h-.502v.502c.502.5 1.003 1.003 1.505 1.003-.502 0-1.003 0-1.003-.502h-1.002l-.503.502c.5.5.5.5 1.002.5l.502.503c.5 1.505-1.003.5-1.003 0 0 0-1.002-.502-1.002 0l1.505 1.003c-.5 0-.5.5 0 1.505l-1.505-1.504v.5s-.502 0-1.003-.5l1.003 1.505c0-.5-.502-1.002-1.003-1.504-.502 0-.502 0-.502.5v1.004h-.5c0 1.003-.503 1.505-1.004 1.505h1.504c-.5.5-1.003.5-1.003.5-.5.503-1.002.503-1.504.503l.502-1.003c-.502.5-.502.5-1.003.5v.503c.5.5.5 1.003 1.003 1.505 0 .5-.502 1.003-1.003.5.5-.5.5-1.002-.5-1.504h-.503v1.003c-.502.5 0 1.003 1.505 2.007-.5-.502-1.003-.502-1.003-.502 0 .502-.502 0-1.004-.502l.502 2.51-.502-.503c-.5 0-.5 0-1.003-.5.5 0 1.003-.502.5-1.506-.5-1.003-.5-1.003.502-.5l-.502-.502-.5.5v-.5l-.503 1.003h-1.003v.502c.5.502.5 1.003 1.003 1.505.502.502.502 1.505 1.003 2.007h-2.508l1.003.5-1.505-1.002h-.502c.502.502.502.502 0 .502l.502.5-.502-.5-.5.5.5.503-.5-.502v1.003c-.502 0-.502-.5 0-1.003h-1.506c.502 1.505 1.004 2.007 1.505 2.007 0 .502 0 1.003.5 2.007-.5-.5-1.002-.5-1.002-1.003 0 0-.502 0-1.004-.5 1.003 1.504.5 1.504-1.004 1.002-3.512-1.505-1.003 1.003 0 1.505.502.503.502 1.004 1.003 1.506-.502-.502-1.004-1.003-1.004-.502l1.003 1.505c-.502-.503-.502-.503-.502-1.004 0-.502-.502-.502-1.003-.502.5 2.007 0 3.01-.502 3.01-.5.502 0 1.004 1.505 1.506 1.003.502 1.003 1.003.5 1.505-.5-.5-1.002-1.505-1.504-2.007-.502-.5-1.505-.5-2.007 0 1.505 1.505 2.007 2.51 2.007 3.01l-2.007-2.006c0 .5-.502.5-1.505 0 .502.5 0 1.003-.5 1.003.5.502 1.002 1.505 2.507 2.007 1.504.5 2.006 1.003 2.508 1.505-1.003-.5-1.505-.5-1.505-.5-.5.5-1.003 0-2.508-.503v-1.003c-.502-.5-1.003-.5-1.003 0 0 .503 0 .503.5 1.004v.502c-.5 0-1.002-.502-2.006-1.003 1.003-1.003.5-2.007-1.505-2.51l.502 1.506c-.5-.503-.5-.503 0-.503 0 0-.5 0-1.003-.502l1.002 1.004c0 .5 0 1.002.502 1.504l-.502 1.003-.5-.5v1.504c0-1.504-.503-1.504-1.506-.5-.502 0-.502 0 0 .5.502.503 1.505 2.008 2.007 2.51 0 .5-.5.5-1.003 0l-1.003-.502c1.505 1.505 2.007 2.51 1.003 3.01-1.003.502-.5 1.505 1.003 3.01-1.003-.5-1.505-1.003-1.003-1.505 0 0-.5-.502-1.003-1.505l-1.505-.5c0-1.506-1.505-2.51-1.004-.503.502 1.003.502 2.007 1.004 2.51-.502 0-1.004-.503-1.505-1.506-.5-.502-1.003-.502-1.003 0-.502 1.002 0 1.504 1.003 2.006 1.003.5 1.505 1.003 1.505 1.505l-2.51-1.504c.503 1.505.503 2.006 0 1.505-.5 0-1.504 0-2.006.502 0 .502 0 .502.5.502v.5c-.5 0-1.002.503-.5 1.506.5 1.003 0 1.505-.502 1.505 0-.502 0-.502-.5-.502-.503 0-1.004 0-1.506-.502l.502 2.008c0-.502-1.003-1.505-2.51-3.01 0 .5 0 .5.503.5v1.004c-.502-.502-.502-.502-.502-1.003l-.5-.502.5 3.01h.503v.5c0 2.008-2.007-.5-2.007-1.002.5.502.5 0 0-1.505-.502.503-.502 1.005-.502.503-.5-.502-1.003-.502-1.505-1.003 0 1.505.5 2.51 2.006 3.01-.502.502-1.003.502-1.003.502-.502 0 0 .5.5 1.505l-1.504-2.007v1.003l-1.506-2.007c-1.003 0-1.003.502.5 1.003 1.005 1.002 1.005 1.504 0 2.006l-1.504-1.505c0 .502.502 1.506 1.003 2.008.5.5.5.5-.5 0 .5.5 1.002 1.003 1.504 1.003.502.502 1.003 1.004.502 1.506-.503-.5-1.506-.5-2.51-.5.502.5 1.003 1.002 2.007 1.002-.502 1.003-1.505 1.003-3.01-.502s-2.508-1.505-2.007 0c.5.502 1.003 1.003 1.505 1.505.5.502 1.003.502 1.505 0 .502.502 0 1.004-1.003.502-1.003-.5-1.505 0-1.003.502l-1.003-2.007v1.505l-1.002-1.505c.502 1.505.502 2.508-.502 2.007-1.003-.502-.5 0 1.004 1.505-1.505-1.506-1.505-1.506-1.004-.502.502 1.003 0 1.003-.5.5-.503-1.002-.503-1.504 0-2.006.5 0 .5-.5-1.004-1.505-.502-.502-.502-.502 0 0 0 1.003-1.003 0-1.003-.502-.503-.5-2.008-1.505-1.004.502.5 1.003.5 2.007.5 2.508l.503-1.505 1.002 1.003c-.502 0 0 .5.5 1.505-.5-.5-1.002 0-.5.502 0 .5-.502 1.003-1.003.5v-.5c-.503.5-1.506.5-2.51-.502-1.505-1.003-2.007-1.505-2.508-1.003-.502 0-.502.502 0 1.003 0 .502.5 1.003 1.003 1.505.5.502.5.502 1.003 0 0-.502.5 0 2.007 1.505-2.007-1.505-2.51-1.505-2.007 0 .5 1.505 0 1.505-1.505 1.004-.5-.502-.5-1.004-1.003-1.505-.502 0-1.003-.5-1.505-1.003 0 .502.5 1.003 1.003 2.51l-1.003-1.005c.5 1.504 1.003 2.508 1.505 2.508 0 0 0 .502.502 2.007-.502-.5-.502-1.003-1.004-1.003-.5 0-1.003-.5-1.505-1.003-.502.5-.502 1.002 0 2.006v-.5c-.502.5-.502 1.002-1.003.5-.5 0-1.003.502-1.003 1.505l1.003.502c0 1.003 0 1.505-.5 2.007 2.507-.502 5.016-1.506 7.524-2.008 2.007-.5 4.014-1.505 6.522-2.007 8.53-2.508 16.557-4.516 25.086-6.522s16.557-4.014 25.086-6.522c6.522-2.006 9.03 0 13.546 5.52 3.512 4.516 5.52 9.533 6.02 14.55.503 5.52 1.005 10.536 2.51 15.553 3.512 12.042-6.02 24.083-18.563 27.595-2.006.5-3.51 1.505-4.515 2.007-5.017 2.508-10.034 5.52-15.05 8.53-10.035 6.02-22.077 12.04-36.125 18.06s-30.103 12.042-47.663 16.558c-8.53 2.51-17.56 5.017-26.09 7.526-3.51.5-7.023 1.504-10.535 2.006-6.522 2.007-13.546 1.003-19.567-1.505-3.512-1.504-6.02-3.01-8.53-5.518-7.524-7.526-15.05-15.052-22.074-22.577l-22.576-22.578c-5.52-5.52-3.01-9.533.5-15.05 5.52-6.523 10.537-13.547 16.056-20.57 5.017-6.523 10.536-13.547 16.055-20.07 20.07-23.08 40.137-46.158 60.708-69.237 20.07-22.577 40.138-45.656 60.206-68.735.5-1.003 1.504-2.007 2.006-3.01.502-1.003 1.505-2.508 2.007-4.014-26.59 8.028-49.67 20.07-61.71 49.67-2.008-1.002-4.015-2.006-6.022-3.01-2.508-1.002-4.013-2.508-5.518-4.013-8.027-10.536-14.55-21.072-22.075-32.612-2.007-3.512-4.014-6.522-6.02-10.034-4.516-6.02-12.543-17.56-11.04-24.583.502-3.512 3.513-7.526 8.028-13.045 14.55-16.055 32.612-27.093 52.68-34.618 24.083-9.533 49.168-12.042 75.76-8.028 14.047 2.51 22.075 10.536 28.095 22.075 4.516 9.534 9.03 18.564 13.546 27.595l13.546 27.093c4.014 8.53 5.017 16.557 3.01 24.584v-.493zM941.516 282.4c-2.007 2.007-3.512 3.512-4.516 5.017l.503-.502c.502 0 .502 0 .502-.502h.5c.502-.5.502-.5.502-1.003l.502-.5 1.002-1.004c0-.503 0-.503.5-1.004v-.502h.505zm54.185-36.625c1.505.5.5-.502 0-1.004h-.502c-.502 0 0 .502.502 1.004zm3.512-17.56c0-.5 0-.5.502-.5-.502-.502-.502-.502-1.003-.502v.5c-.502-1.002-1.003-1.504-1.505-1.504l.502 1.506s.5 0 1.003.5h.5c0-.5 0-.5-.5-.5l.5.5zm2.51 4.014c.5 0 .5 0 .5-.5l-.5.5zm1.002 0h-.5l.5.502v-.5zm5.017-6.522v-.502.502zm1.505-1.505h-.5l.5.502v-.502zm0-6.02c.502-.502 1.004-.502 1.505-.502-1.505-1.002-2.508-2.006-3.01-2.508-.502 0-.502 0-.502.502l2.008 2.508zm3.512 3.01c-.5.502-.5.502 0 .502h.502l-.502-.502zm2.007-9.03v-.503l-.5-.5v1.002h.5zm1.505-2.51c-.502.502 0 1.004.502 1.004v-.502c-.502-.502-.502-1.003-1.004-1.505-.5 0-.5-.5-1.003-1.003-.5.502-1.003 1.003-1.003 1.003.502.502 1.003 1.505 1.505 2.007l1.002-1.004zm1.004 1.505v-.5.5zm2.007 0c.5 0 .5 0 1.003-.5h-.502l-.5.5zm0-5.52c.5-.5 1.003-1.002.5-1.002l-1.002-1.003h-.5c0 .502 0 .502-.503.502l1.506 1.504zm1.505-1.503l-1.505-1.505v.502c-.5 0-.5 0-.5.5l1.504 1.004.5-.5zm2.007 4.013c0-.502 0-.502.5-.502l-.5-.5c-.502 0-.502 0-1.004-.503v.502s.503.5 1.005 1.003zm3.01-9.03v-.503c-.502.502-1.003 1.003-1.505 1.003s-1.505.502-2.007 1.003l-.502-.5-.5.5 1.505 1.506 2.007-2.007c.5 0 .5-.503.5-1.004l.503.5v-.5zm4.014-.503v.502-.502zm-1.005-5.52c.5.503 1.003 0 1.003-.5-.502-.502 0-.502.5 0v-.502h-.5c-.502.502-1.003.502-1.505 1.003-.5.502-1.003 1.004-1.505 1.004-.502 1.505-1.505 2.508-2.007 3.01l1.004 1.004c.5 0 .5-.502.5-1.004 0 .502 0 .502.503.502 0-.502 0-.502.5-.502v-1.003l.503.5 1.003-1.002c-.502-.502-.502-1.003 0-1.505l.002-1.004zm3.512-5.016c0-.502 0-.502.502-1.004h-.503l-1.003-1.003c-.5 1.505-1.003 2.007-1.003 2.007v.502h-.5v.5c-.502.503-.502.503-.502 1.004h.502v-.5l1.003 1.002.5-.502c.503-.5 1.004-1.505 1.004-2.007l-.5.5.5-.5zm1.004-1.004c0-.502 0-.502.503-.502-.502-.5-1.003-1.505-1.505-2.006l-.5.5c0 .503 0 .503-.503 1.004l1.505 1.003s.5-.5.5 0zm.503-1.505c.5 0 .5 0 .5.502l-.5-.5zm.5.503c.503-.5 1.005-1.003 1.005-1.505h-.502c-1.003-.502-1.003 0-.502 1.505zm5.02-8.53c-.503-.5-.503-.5-.503-1.003l-.502.502.502.5c-.502 0-.502 0-.502-.5l-4.515 6.02c.5.503 1.003 1.004 1.003 1.506 0-.502 0-.502.502-1.003-.502 0-.502 0-.502-.502h.502l.5-.502-.5-.5c.5-1.505 1.003-3.01 2.508-3.01-.5 0 0-.502 1.003-1.505h.502zm3.008-5.518c-.5.5-1.002 1.505-1.504 2.007-.5 1.003-1.505 2.007-2.007 2.508 0 .502 0 .502.5.502v.5c.502-.5.502-1.002.502-1.504 1.003-.5 1.505-1.505 1.505-2.007 0-.5.5-1.002 1.003-1.504v-.5zm3.012-3.01v-.503l-.502.502h.502zm.502-1.506c0 .5 0 .5-.5.5 0 .502 0 .502.5.502v-1.003zm3.512-5.52c.502 0 .502 0 .502-.5v-.502c0 .5 0 .5-.502 1.002zm6.522-20.068v1.003-1.003zm0 2.006c-.502.5-1.003.5-.502 1.003.502.502 0 1.004-.5 1.004.5-.502.5-.502.5-1.003-.5-.5-.5-1.002 0-1.504l-.5-.5.5.5.502.502zm0 2.51c-.502 0-.502 0 0-.503v.502zm-15.052 28.095c.502.502 0 .502-.5.502l.5-.502zm-1.003 1.505c0-.5 0-.5.502-1.003v.502c-.502 0-.502 0-.502.5zm-10.034 24.584h.5-.5zm21.573-40.64l.502.503h-.502v-.502zm-2.51 4.517l1.005.5h-.502l-.502-.5zm-1.003 3.51v-1.003h.502l-.502 1.003zm1.506-2.006l-.502.502.502-.502zm-5.52 8.53l.503.5c-.503.503-.503.503-.503 0v-.5zm2.008-1.004c.502 0 .502 0 .502-.5l.5.5h-1.002zm-7.024 11.038l-.502.5-1.003-1.002 1.505.502zm-4.014 9.532c0 .5 0 .5.502 0-.502.5-.502.5 0 .5.5 0 0 0-.502.502-.502 0-.502-.5 0-1.002zm-23.58 30.103c0-.5 0-.5.5-.5v.5h-.5zm-6.022 5.017h.502v.5l-.502-.5zm-11.54 18.062l.502.502-.5-.502zm-7.023 13.546s-.5-.5-1.002-1.505l1.003 1.505zm39.135-52.68c-.502 0-.502 0-1.003-.502h.5c0 .502 0 .502.503.502zm-5.017 8.53c-.502 0-.502 0 0 .5.5.502.5 1.003 0 1.003-1.004-.5-1.505-1.002-1.505-1.002s0-.5-.5-1.003c.5.502.5.502 1.002 0 .5 0 .5 0 1.003.502zm-20.07 30.103h-.5c-.502-.5-.502-.5-1.004-.5l1.505.5zm-8.528 3.512l2.007 1.003v.502l-2.007-1.505zm-.502 8.028c-1.505-.5-1.505-1.003-1.004-1.003l1.004.502v.5z"/><path d="M1302.755 132.89c1.505 1.505 1.505 2.51 1.004 4.014-1.005 1.505-1.506 2.508-1.005 4.014.502 4.515.502 9.533-1.003 14.048-1.505 4.516-2.51 9.533-3.01 14.048-1.506 14.048-6.022 26.09-10.537 39.635-.502.5-.502 2.006-.502 3.51-.502 4.517-1.505 9.032-3.01 13.045-1.505 4.516-2.51 8.53-4.014 13.045.5 1.505.5 3.01-1.004 4.515-1.505 1.505-2.007 3.01-1.505 4.516.503 2.51-.5 3.01-2.006 4.517-3.512 12.04-11.038 22.075-17.56 32.11-1.505 1.505-2.508 3.512-3.01 5.52-.502 2.006-1.505 4.013-3.01 5.518-9.533 13.546-20.07 26.09-33.615 36.124-2.51 2.508-5.52 5.016-8.53 7.525-3.01 2.51-6.02 5.017-9.03 7.526l-.502.502c0 .502 0 .502-.5 1.003-3.513 3.512-7.025 6.522-10.537 10.035-3.51 3.512-7.525 6.522-11.037 10.034-5.017 5.017-10.536 8.027-16.055 9.533-8.53 4.014-17.56 6.02-27.595 4.014-7.525 0-13.546-3.51-20.068-7.023-1.505 0-3.01-.502-4.014-1.505-1.504-.5-2.508-1.505-4.013-2.007-1.505-.5-4.014-1.505-6.522-3.01l-.502-.502c-.502 0-.502 0-1.003-.5l-3.01-1.506c-3.512-1.505-6.522-3.01-9.533-4.014-1.505 0-2.508-.5-3.01-1.505l-2.007-2.007 1.505-1.504-1.505 1.505c-.502-.5-1.003-.5-1.505-1.003-.502-.5-1.004-.5-1.505-1.003-9.533-4.516-17.058-12.042-23.08-21.574-.5-.5-1.002-1.003-1.002-2.508-2.007-1.505-3.512-3.512-4.014-7.024-1.003-.502-1.505-1.505-1.505-2.51v-2.508c-5.52-13.546-8.028-26.09-5.52-39.635v-4.014c-2.007-15.552.5-30.603 4.014-45.153.5-3.512 1.003-6.522 1.505-10.034 0-3.512 1.002-6.522 2.508-9.533 0-.5 0-1.003.5-1.505v-1.505c2.51-14.048 5.02-28.096 10.537-41.643 0-2.51 1.003-4.516 2.51-7.024 0-5.017 1.504-9.03 4.013-12.042.502-2.507 1.505-5.518 3.01-8.026 1.505-6.522 3.01-13.044 6.522-19.065 0-.502 0-1.004.5-1.004 0-2.51.503-4.014 2.008-5.52.502-3.01 1.505-5.016 3.01-6.52l1.506-3.01c-.502-1.004 0-2.008 1.003-3.01.502-.503.502-1.506 1.003-2.008.502-.502.502-1.003 1.004-1.505 0-3.01 1.003-5.52 2.508-7.024.5-.503 1.003-1.506 1.003-2.51 1.003-3.51 3.01-7.023 5.52-11.037 3.01-4.515 5.518-9.03 8.027-13.044 2.007-5.52 4.014-9.534 8.53-12.042v1.505V51.616c1.504-2.007 3.51-4.014 5.017-6.522 3.51-4.014 11.037-7.024 15.552-5.52 2.007 1.004 4.515 3.513 7.024 7.025.502.5 1.505 1.504 2.007 2.006 1.003 2.007 2.007 3.512 4.014 5.017 1.003.502 1.505 2.007 1.003 3.512 2.508 2.51 4.014 5.52 5.52 8.53 1.504 3.51 3.51 6.02 7.023 7.525 2.51-1.505 5.52-3.512 8.028-5.52 2.51-1.504 5.52-3.51 8.028-5.016 2.007-1.505 4.516-2.508 7.024-4.014.5 0 2.007-.5 4.014-1.003.5-.502 1.003-1.505 2.508-2.007 0-2.51 1.004-4.014 3.01-4.516 1.506-.5 3.513-1.003 5.018-2.007.5-1.004 1.505-1.505 3.01-1.505 1.003 0 2.007-.502 2.508-1.003 3.01-1.004 6.02-2.51 9.03-4.015 2.51-1.505 6.022-2.007 9.534-2.007 4.515-3.512 9.03-5.52 15.05-5.017 16.056-4.013 25.086 5.52 33.616 17.06 7.526 10.033 13.045 21.07 17.56 33.112 1.506.502 2.51 2.51 3.01 5.017.503 1.002 1.005 2.006 1.506 2.508 0 1.003.5 2.007 1.003 3.01.5.5 1.002 1.505 1.504 3.01 0 .5.5 1.003 1.003 2.51 5.518 9.53 6.02 19.563 5.518 31.102zm-253.367 183.127c0-.502 0-.502-.502-.502l.502.502zm11.038-96.83v-.502l-.5.5h.5zm14.048 48.665c.5 0 .5 0 .5-.5.002 0 .002 0-.5.5zm148.508-212.727l-.502.502c-.502 0-.502 0-1.003.502 1.003-.002 1.505-.504 1.505-1.005zm-21.574 35.62h-.5.5zm-18.563 46.16v.5-.5zm-20.57-59.705v.502-.502zm-17.56 3.01c-.502.502-.502.502-1.004.502h1.004v-.502zm-6.02 110.378c-.503 0-1.004.5-1.004 1.003 1.505.002 1.505-.5 1.004-1.002zm-1.005-112.385c-.502.502-1.003 1.003-1.505 1.003.502.502.502.502 1.003.502 0-.502 0-.502.502-.502v-1.003zm-4.013 112.385c-.502 0-.502 0-.502.5h1.003l-.5-.5zm-1.506.502v-.5.5zm-1.002-97.333h.502-.502zm-2.007 95.828h1.004c-.5 0-.5 0-.5-.502l-.503.502zm-2.006-5.017l1.003 1.003c-.5-.5-.5-.5-.5-1.002l-.503-.502v.502zm1.505 33.113c-.502.502-1.004.502-1.004.502-.502 0 0 .502 1.003 1.003.5 0 1.003 0 .5-.5-.5-.503-.5-.503-.5-1.004zm-2.008-159.545l-.5.5.5.503c.502 0 .502 0 .502-.502l-.502-.5zm-1.003 132.453s.5 0 1.002.5c0-.5 0-1.002.502-1.002l-1.505-1.505v2.008zm-2.008 8.53l.502.5c0-.5 0-.5.5-.5h.503c-.502-.503-1.505-1.004-2.007-1.506-1.004-.502-2.007-.502-2.51-1.003l3.01 3.01h.503l-.5-.503zm-2.508 7.525c-1.505-.5-2.51-1.505-3.512-2.007.502.502.502 1.003.502 1.003 0 .5 0 1.002.5 1.504 1.506 0 2.008 0 2.51-.5zm3.512-8.53c.502.502.502.502 1.003.502h-.502l-.502-.5zm.5-1.504l1.004 1.002-1.003-1.003zm1.005-4.517c-.5 0 .502 1.003 1.004.502-.502 0-.502 0-1.003-.502zm-1.003-9.03h-.502.502zm-11.54 10.535c-.5 1.505-1.002 3.512-1.504 7.024 1.004-.5 1.505-1.505 2.007-2.508.502-.502 1.004-1.004 1.505-1.004.502 0 .502 0 .502-.5v-.502h.5c-.5-.502-.5-1.004-.5-1.505 0 0-.502-.5-1.003-1.003.5.502 1.505 1.003 2.006 1.003l.502-.5-1.003-1.005 1.002.502 1.003-1.003c-.5-.502-1.003-1.003-1.003-1.505 0-.5-.502-1.003-1.003-1.505 1.504.5 1.504.5 1.002 0-.502-.502 0-.502 1.505 0-.502 0-.502 0-.502-.502h-.5c-.503-.5-1.005-.5-1.506-1.003-.502-.5-1.004-.5-.502-.5l2.007 1.002c-.502-.502-.502-.502-.502-1.003l-.502-.5h1.005c.5.5.5.5.5 0l-.5-.503c1.505.502 1.505 0 .5-1.505-1.002-1.505-.5-2.007 1.506-1.505-.5 0-.5 0 0 .5.502-.5 1.004-1.002 1.506-1.002.5.502 1.003 0 1.003-.502-4.015 0-5.018 2.007-6.523 4.516h1.003c-.5 0-1.003 0-1.003.5-.502 1.004-.502 2.008-1.003 3.01-.503 1.503-1.005 2.506-1.506 3.008zm1.004 15.052c.503 0 .503 0 1.004.502h.502v-.502c-.502 0-.502 0-.502-.5h-1.003v.5-.5.5h.503-.502zm-3.01-7.024c.502 0 .502 0 0-.502v.502zm0 .502v.5c0-.5 0-.5-.5-.5h.5zm-2.006 3.51c-2.51 2.51-5.017 5.52-6.522 9.032.502.5.502.5 1.003.5.502-2.006 1.003-3.01 1.003-3.01.502-.5.502-1.002.502-.5 0 .5 0 .5.5.5.503-1.002.503-1.504 0-1.504-.5.5-.5 0 .503-1.004v.502c0 .502 1.003 0 2.51-1.003 0-.5 0-.5.5-.5-2.007-1.506-1.505-2.008 0-2.008l.5.502c.503 0 .503 0 .503-.502 0-.5 0-.5.502-.5l-.502-.503c-.502 0-.502 0-1.003-.502v.5zm-6.522 10.036c-.5 0-.5 0-.5.5h.5v-.5zm-1.506 3.01s0 .5-.5 1.003h1.002c.502 0 .502 0 .502-.502 0-.5-.502-.5-1.004-.5zm-1.003 2.51h.5l-.5-.502v.5zm0 0v1.002c-.502.502-.502.502-.502 1.003h.503c.5 0 .5-.502.5-1.004.002 0 .002-.5-.5-1.003zm-.5 2.507c-.503.502-.503.502-.503 1.004 0 .5 0 .5-.5 1.003h1.504v-.502c-.502-.5-.502-1.002-.502-1.504zm-2.51 27.094c-.5 0-.5.5-.5 1.003.5-.5.5-.5.5-1.003zm-1.505-41.14v.5-.5zm-6.523 34.116c1.505-1.505 2.51-3.01 3.01-3.512.5.5 1.003.5 1.505 0v-2.005c-.502.5-1.505 1.002-2.007 1.504-.502.502-1.505 1.003-2.51 1.505v2.508zm4.014 28.096v-.5h-.503l.502.5zm-.503 0v.502c.502 0 .502 0 .502-.502h-.503zm-2.508 3.01c.5.502 1.002.502 1.002 0 0-.5.502-.5 1.003 0 0-.5 0-.5.5-1.003v-1.003c-.5.502-1.002.502-1.002 1.003 0 .502-.5 1.004-1.504 1.004zm2.006 0h-.5c0 .502 0 .502-.503.502h.502l.5-.5zm-3.512-28.095c0 .502 0 .502-.5 1.004h1.002l.502-.502-1.004-.5zm-.502 2.007h.5l-.5-.502v.502zm-.5.502v.5-.5zm-.503 1.504c0 1.003-.502 2.007-1.004 2.508.502-.5 1.505-1.003 3.01-1.003-1.003-.502-1.505-.502-1.003-.502l-1.004-1.004zm1.002 29.1l.5.5v-.5h-.5zm-2.508-24.083c-.502.503-.502 1.004-.502 1.004 0 .5 0 1.003-.502 1.505 1.004 0 2.007.5 3.513 1.002.5-.5-2.007-1.505-2.51-1.505.502-.5.502-1.504 0-2.006zm2.508 25.59h-.502c0 .5 0 .5.502.5v1.004-1.505zm-4.014-20.07h1.003-1.002zm0 20.07v.5-.5zm0 1.504v.5c-.5.503-.5.503-.5 1.004 0-.5 0-.5.5-.5v-1.004zm-.5 1.505v.5-.5zm0 2.508c-.503 3.01-1.005 6.02-1.005 9.03v9.534c.502-.502 1.004-1.505 1.004-3.01 0-1.003.5-1.505 1.003-1.003 0-.503 0-1.004-.5-1.004s-.502 0-.502.5c0-2.006 0-3.51-.502-4.514.502-.502.502-2.007.502-4.516 0-2.508.5-4.014 1.003-4.516-.5.502-.5 0-1.002-1.003v.5zm.5 33.614v-1.003c.5-.502.5-.502.5-1.004s0-.502-.5 0c-.5-1.505-1.003-3.512-.5-5.018.5-1.505 0-3.01-.503-4.516.502-.5.502-1.003 1.003-.5v-.502c-.5.5-1.003 0-.5-1.505 0-1.505-.503-1.505-1.005-1.003l1.505 15.05zm.502 11.04c.502 0 1.004.5 2.007 1.504-.502-3.512-1.505-7.024-1.505-10.536 0-.502 0-.502-.502 0 .502-.502.502-1.004 0-1.004-.5 0-.5-.5-.5-1.003 0 3.512.5 6.522 1.002 10.035-.502 0-.502.5-.502 1.003zm4.515-15.053v-.502.5zm2.007-18.063c.502-1.505.502-3.01-.5-4.516.5 0 .5-1.504.5-4.013.502-2.51 1.505-4.014 3.01-4.516-1.505.503-2.007.503-1.505 0 .502-.5 0-1.002-.5-1.504l-2.51.5 1.004-2.006c-.5-.5 0-1.003.502-.5.502.5 2.51-1.506 1.505-2.008-.5-.502-1.505-1.003-2.006-1.505v.502-1.004c0-.502.502-.502 1.004.5 1.505 2.51 2.007.503 0-1.504-1.505.5-2.007 1.505-2.007 2.007h-.502v1.002c.502.5.502.5 1.004.5-.503 0-1.005 0-1.005-.5V281.898c-.5 0-.5 0-.5-.502v1.003c-.502.5-.502 1.002 0 1.504v1.003c-.502 1.505-.502 2.007-1.004 2.508-1.002.502-1.504 2.007-1.002 3.01 0 .502 0 1.004.5.502v-1.003c.503-1.003.503-1.505 1.005-1.003-.502.502-.502 1.505 0 2.007.5 1.002 0 2.508-.502 4.013-.5-.5-.5-1.003-.5-.5-.502.5-.502.5-1.004 0 .502 1.002.502 2.006 1.003 2.507h-.502c.5 1.003 1.003 1.505 1.003 1.003 0 0 0 1.003.503 2.51-.502-.503-.502-.503-.502 0 0 .5 0 1.002-.5.5 0 1.003 0 1.505.5 2.007v2.51c-.5.5-.5 1.002 0 2.508v-.502c.503.502.503 1.505.503 2.007.5-1.003.5-2.007 0-3.01.5-.502 1.505-1.003 2.007-.502.5.503.5 0 1.003-.5-1.505.5-2.508.5-2.007-1.003 0-1.505-.5-2.007-1.505-2.007 1.506-.502 2.51-1.003 2.51-2.007-.502-1.003 1.003-1.505 3.512-1.003.5-.502 0-1.003-.502-1.003h-2.008zm0-16.055c.502 0 .502 0 .502-.5l-.502.5zm3.512-7.024h-2.51l1.004.5h-.502c0 .503 0 .503-.5.503 0 .503.5 1.004 2.006 1.004l.502-2.006zm1.004-9.533c.5-1.505 1.003-2.508 1.003-3.512l-.5-.502c-.502.503-.502.503-1.004 0-.502 0 0 .503.5 1.004 0 .502-.5 1.003-1.002 1.003s-.502.502 0 1.505h.502l.502.503zm1.505-5.017c1.505.5 2.007 0 2.007-1.505 0-1.003 1.004-1.003 2.51-.5h-.503c0 1.504 3.01.5 3.01-1.004-.5.5-1.504.5-2.006-.503-1.003-1.003-2.006-1.003-2.508 0l-.502-1.505c-.5 0-1.505 0-2.508-.502-1.003-.5-1.505-.5-2.007 0-.502 0 0 0 .502.502.5.502 1.003 1.003 1.505 1.505.5.502.5 0 .5-.5s1.005-.502 2.51.5c-1.003-.5-1.505-.5-1.505-.5-.502.5-.502.5 0 1.002 0 .5 1.003 1.504-1.004 1.504-.5-.5-1.003-1.003-1.505-1.003-.5.503-1.003 0-1.505-.5 0 .5.502 1.003 1.505 2.007l-1.505-.502c1.004.502 1.505 1.004 2.007 1.004.502.5.502.5 1.003 1.002v-.504zm165.065-126.934c0-2.007.5-4.014 1.003-6.02.503-1.506.503-3.513 1.004-5.52 0 0-.5 0-1.003-.502-.5-8.027-2.508-16.055 1.004-23.58h-.5l-4.517-1.506c-1.505 0-3.01-.5-4.516-1.505-1.002.502-2.507 1.004-5.016 1.004-.502 1.003-1.505 1.505-2.51 1.003-1.002 0-2.006 0-2.508.502-3.01.5-5.52 1.504-8.027 3.01-2.51 2.006-5.018 3.01-8.53 2.508-5.52 4.014-10.034 7.526-17.56 7.526-1.505 7.525-10.034 13.044-16.557 11.038v.502l-1.003.5c-.502 0-.502 0-.502.503h-.5c-.502 0-.502 0-.502.5l.5.503.502-.502c.502.502 1.004 1.003 1.004 2.007-.502 0-1.004 1.505-1.004 2.007 0 .502-1.003 0-2.508-.5l-.5.5c.5 1.505 0 3.01-1.005 4.516l.502 1.003-1.003-1.002c-1.003 1.505-2.007 2.508-3.512 3.512-.5 1.505-.5 2.508 0 3.01-1.505-.502-1.505-1.003-1.003-1.505.5 0 .5-.5-.502-1.003 0 .502 0 .502-.502.502 0 1.505-.502.5-.502.5l-3.01 3.01c-1.505 1.004-2.51 2.008-4.014 3.513 1.505 1.505.502 2.007 0 1.505-.5 0-.5.502-.5 1.004 1.504.5 1.504.5 1.002.5-1.003 0-1.003.502 0 1.506-.502.5-.502.5-1.003 0-.503-.502-.503-.502-1.004-.502v.502c0 .5 0 1.003.5 1.003-.5-.5-1.504-1.505-2.006-3.01-.5.5-1.003 1.003-1.505 1.003l-1.505 1.505c2.508 2.007 4.515 3.512 5.52 4.014.5.5.5.5-.503 0-1.003-.5-1.505-.5-2.007 0-1.505-.5-1.505-.5-1.003 1.003.5 1.505 0 2.007-.502 2.007l-.502-1.505c-.5-.502-1.505 1.505-1.003 2.007-.502-.503-1.004-1.004-1.505-2.008-1.505-2.007-4.014-1.505-2.51 2.007.502 2.006 1.506 3.51 2.51 4.013v-.502c0-.5 0-1.002.5-1.504v-2.51c.503.503 1.005 1.506 1.005 2.51-.502 1.003 0 2.007 1.003 2.51l-2.508 2.006c0-1.505-.502-2.007-1.003-2.51-.502.503-.502 1.004-.502.503h-1.505c-.502-.502-.502-1.505-1.003-2.51-.502-1.002-1.003-2.006-1.505-3.51-.502.5-1.505 1.002-2.007 1.504.502 1.504 1.505 2.507 2.007 3.01.502.5 1.003 1.504 1.505 2.006-1.505.5-4.516-2.007-5.017-3.512-.502 1.003-.502 2.51 1.003 4.014 1.505 1.505 1.505 3.01.502 3.512h1.505c-.5.5-1.003.5-1.505 1.003s-.502.502 0 1.003c-.502-.5-1.505-.5-2.007-1.003-1.003-.502-1.505-1.003-2.007-1.505l2.007 4.014c0-.502-.502-1.004-1.505-1.505s-1.505-1.003-2.007-1.505c-.5.502 2.51 3.512 3.01 3.512-1.504-.5-2.507-.5-2.507 0 0 .502-1.003 0-2.51-.5 0 .5 2.51 2.006 4.015 2.006 0 1.505-.5 2.007-1.505 2.007 0-1.505-3.01-3.512-5.017-5.018-.502.5-.502 1.003-.502 1.504 0 .502 0 .502.502 1.003l3.01 5.018-3.01-3.01c2.007 2.006-.502 6.02-2.007 7.525l.5-.5c-1.505-1.506-2.51 0-2.007 1.504-.502-.502-.502-.502 0-.502-.502 0-1.003 0-.502.502 0 .502 0 .502.503 1.003 0 .5 0 1.003.502 1.505 0 .5-.502.5-1.004.5.503-.5.503-1.002-1.002-2.507.5 1.003 0 2.007-.502 2.508-.5.502 0 1.505 1.505 2.508h-1.002c-.502.503-1.003 0-1.505-.5l.502 3.512c0-.502 0-.502-.502-.502h-1.003c.5-.5 1.003-1.505.5-2.51-.5-1.002-.5-1.504 1.005-1.002-1.505-.502-2.007-1.003-2.51-1.505-.5.502-1.504 1.003-2.006 1.505.5 2.007 1.504 4.515 3.01 6.522l-3.01 1.505 1.002.502-2.51-1.004c.503.502.503.502.503 1.004-.502 0-.502 0-.502-.502h-.5l.5.502c-1.505-.502-2.508-1.505-3.512-3.01h1.004c0 .5 0 .5.5.5-.5-.5-1.002-1.504-1.504-2.006-.502 0-1.003 0-1.003.502.5.502 1.003 1.003 1.003 1.003v.502h-.502c1.505 2.51 2.51 4.014 4.014 4.014l-2.007.503c.502 1.505 1.003 2.508 1.003 2.508 0 .503 0 1.004.502 2.51-.502 0-1.003 0-1.003-.502s-.502-.5-1.003-.5c.5.5 1.003 1.002.5 1.002-.5.502-1.504.502-2.006 1.004h-1.505c-.5.5-.5.5 0 1.003 0 .5.502 1.003 1.004 1.505.5.502 1.003 1.003 1.003 1.505v-1.003c-.502 0-.502 0-.502.5l1.003 1.506c-.5 0-.5 0-.5-.502-.502-.5-1.003-.5-1.505 0 .502 2.51.502 4.014-.502 4.516-.5 1.003 0 1.505 1.505 1.505s1.505.5 1.003 1.002c-2.508-.502-3.51-1.003-4.013-.502.502.502.502 1.003 1.003 1.505.5.5.5 1.003 1.003 1.505l-2.007-1.003c-.502.502-.502.502-.502 1.003-.5.502-1.003.502-1.505 0 .5 1.003 0 1.505-.503 1.505.502 1.003 1.505 1.505 3.01 1.003 1.506 0 2.51 0 3.01.5-1.504.503-2.006.503-2.006 1.004-.5.502-1.504.502-3.01 0v-1.505c-1.504.5-2.006 1.505-1.003 2.508 1.004 1.003.502 1.003-2.007.502.502-1.505 0-2.51-1.505-2.51l.5 2.008c-.5-.5-.5-.5 0-1.003h-1.002c.502 1.505 1.003 2.007 1.505 2.51l-.502 2.507c0-1.004-.5-1.004-1.003-.502l.502 2.007c0-2.007-3.01.502 0 2.007 1.505 1.003 1.505 1.505 0 2.007v-.503l-1.505.502c2.007 1.504 2.007 2.006 2.007 3.01-.5.5-.5 1.504-.5 2.006 0 .502.5 1.003 2.006 1.505-1.505.502-2.007 0-2.007-.5 0-.502-.502-1.004-1.003-2.008l-2.007.502c0-.502 0-.502.502-.502v-1.003c-2.508 1.504-1.505 3.01 0 4.515-.502.5-1.003 0-1.505-.502-1.003-.5-1.505-.5-1.505.502 0 1.505.5 2.508 2.006 2.007 1.003-.502 1.505 0 1.505.5h-2.51c1.505 2.51-.5 3.513-2.007 5.02 0 .5 0 .5.502.5-.502.502-.502 1.505 0 2.51 1.505 2.507 1.003 3.01-2.51 3.01l1.004 2.507c-.503-.502-1.506-1.004-3.01-2.008-.503.502-.503 1.003 0 1.003.5.502.5.502.5 1.003-.5-.5-1.003-1.003-1.504-1.003v.502c0 .5.5 1.505 1.003 2.007 0 .502 0 .502.5.502.502 0 .502 0 .502-.502 0 1.505-.5 2.508-1.003 3.01-.503-.502-1.004-1.003-1.506-1.003 1.003-.5 1.505-.5 1.003-1.002-.5 0-1.003-.5-1.505-1.003v1.003c-.502-.5-2.51 1.003-1.003 1.505.5.502 1.504.502 2.006 1.003-.5.502-.5 1.004-.5 1.004-.503.5 0 1.003.5 2.007l-2.007-1.004.5 1.505-2.508-1.505c-1.003 1.004-.5 1.505 1.003 1.505s1.505.502.502 2.007l-1.505-.5c0 .5.5 1.002 1.505 1.504.5.5.5 1.002-.502 1.002.502.502 1.003.502 1.505 0 .502-.5 1.004 0 1.004 1.505-.502 0-1.505.5-2.51 1.505.503 1.505 2.008 0 2.008-.5 0 1.504-1.003 2.507-3.01 2.006-2.007-.502-2.51.5-2.007 2.508.5-.5 1.505-.5 2.508 0 .502.502 1.004.502 1.505-1.003.5.502 0 1.003-1.003 1.505s-1.003 1.003-.502 2.007l-2.007-1.505c0 .5 0 .5.502.5v1.004l-1.505-.502c1.505 1.505 1.505 2.007.502 2.51-1.003.5-.502 1.002 1.003 2.006-1.505-.5-2.007-.5-1.003 0 .5.502.5 1.003 0 1.505-1.003-.502-1.003-1.505-.502-2.51.502-.5 0-1.504-1.505-2.006-.502.502-1.003.502-.502 1.003.502.502 0 .502-.5.502l-1.506-1.505c-1.003 1.003-1.003 2.007 0 2.51.502 1.002 1.003 2.006 1.505 2.507v-2.005c1.505.502 2.007.502 1.505.502-.5.5-.5 1.003 1.003 1.505-1.003.502-1.003.502-.5 1.003.5.502 0 1.003-.503 1.505v-.502c-.5 1.506-1.003 2.008-2.508 2.008-3.01.502-3.512 1.505-2.51 3.01.502.502 1.004 1.004 1.506.502.5.5 1.003.5 1.003-1.003 0-1.003 1.004-1.003 2.51 0-1.506 0-2.008 0-2.008.502 0 .5 0 1.002.502 1.504 0 1.003 1.003 2.007-1.003 3.512-.5-.502-1.002-1.003-1.504-.502-.502.502-1.505 0-2.007-.5 0 .5 0 1.002.5 1.002.502.5 1.004 1.003 1.506 1.505h-1.505c1.506 1.506 2.51 2.008 3.01 1.506 0 0 .502 1.003 1.004 2.508-.502-.5-1.003-1.003-1.505-.5-.502.5-1.004 1.002-1.506.5-.5.502-.5 1.505 1.004 2.007h-.502c.502 1.506 0 2.51-.502 2.51-.5 0-.5 1.003 0 2.508l1.004-.5c.5 1.504 1.003 3.51.5 5.518-.5 2.508 0 4.515.503 6.02l.502-1.504c0 .502 0 1.003.502 1.505.5 1.003-.502 2.508-1.003 1.003-1.504 0-2.508.5-2.508 1.505l1.505.502h-1.004c-.5.5 0 1.003 1.004.5.5-.5 1.003 0 1.003.503-2.51.502-3.01 1.505-2.51 3.01s-.5 3.01-2.006 3.512c1.505.5 2.508.5 2.007-1.003-.5-1.004-.5-1.004 1.004-.503-.502.502-1.003 1.003-1.003 1.505l1.506-.502c-.502 2.007-1.004 3.512-1.505 4.516-.5 1.505-1.002 3.01-.5 4.516h-.502c-.502 1.505-.502 2.006 1.003 2.508-.5 0-.5 0-.5-.502-.502-.5-1.004-.5-1.505 0 2.007.502 2.508 1.505 1.505 2.51-1.004 1.002-1.505 2.006-2.007 2.508 12.543 4.515 24.584 5.52 37.127 2.007l6.02-1.505c7.527-3.512 13.045-7.024 19.066-11.038 3.512-2.51 6.522-5.52 10.034-8.53 3.01-3.01 6.02-6.02 9.532-8.528 2.51-3.01 5.018-5.52 8.028-8.027 0-.5.5-1.003 1.003-1.505.502-2.007 2.007-3.512 4.014-4.014v-.5c1.505-3.513 4.014-5.52 6.522-8.028 4.013-6.02 8.528-11.038 13.043-16.557v-1.002c-.5-2.007.5-3.512 2.51-4.516.5 0 .5 0 1.002.5 1.505-2.006 3.01-4.013 4.014-6.02s2.508-4.014 4.013-5.52l1.505-1.504c.5-4.014 3.01-7.024 5.017-9.533.5-1.505 1.505-3.01 2.007-4.515.5-1.004 1.505-2.007 2.007-3.512 0-2.51 1.002-4.516 2.507-5.52 1.003-3.51 2.007-6.02 3.512-8.026 1.504-3.512 2.508-7.526 4.013-11.038 1.003-3.512 2.51-7.024 4.014-10.536-.5-2.007 0-3.512 2.51-4.014.5-4.516 1.504-8.53 2.508-13.045 1.003-4.015 2.007-8.028 3.01-12.544-.502-5.52 0-9.533 2.508-12.542-.5-5.52 0-10.536 1.003-15.554.506-5.01 1.51-10.027 2.012-15.546zm21.072 37.127h.5-.5zm4.014-26.088v-.502.502zm4.515 5.52l-.502-.503v.5h.5zm-165.066 72.747c-.502 0-.502 0-1.003-.502l1.004.5zm-7.525 23.58c1.002 0 1.504.502 1.002 1.004l-1.003-1.003zm-15.053 32.612c.5.502.5.502.5 0l-.5-.5v.5zm50.673-103.855c-.502-1.505-.502-2.007 0-2.51l-4.014-2.508 4.014 5.017zm-17.058 18.563c0 .5.502.5 1.003.5-.5.002-1.003.002-1.003-.5zm-18.563 52.68c-.503 0-.503 0-.503-.5l.502.5zm56.19-96.83c-.5 0-1.002 0-1.504-.503h1.003c0 .502 0 .502.5.502zm10.537-15.053c.5 0 1.003 0 1.003.502-.502.5-.502.5 0 1.002-.502.502-1.003.502-.502 0 0-.5 0-1.003-.5-1.505zm-21.574 28.598c-1.003.5-1.003.5 0 1.003.5.502.5 1.003 0 1.505-1.505-.5-2.007-1.003-1.505-1.505 0-.502 0-1.003-.5-1.505.5.5.5 1.003 1.002.5.5-.5.5-.5 1.003.002zm-32.11 54.186c.502-.5.502-.5 1.004-.5l.5.5h-1.504zm-7.526 10.537l2.007.502-2.007-.503zm.502 12.04c-1.506-.5-1.506-1.002-1.004-1.002.502.5.502.5 1.003 0v1.003zM1460.3 102.788c-.5 1.505-1.002 2.508-2.006 3.512-1.003 1.505-.5 2.51 2.007 4.014.503.502-.5 3.01-1.002 4.516-.502 3.01-1.505 6.02-2.51 9.03s-2.006 6.022-2.508 9.032l-4.516 19.567c-1.505 6.52-4.515 13.043-9.03 18.562-2.51 3.512-3.512 8.027-3.512 12.543-.502 6.522-2.007 13.546-4.516 20.068v1.003c0 .502 0 .502-.5.502l-.503.5c.502.503.502.503.502 1.004v-.5l-.502.5-1.505 4.516c-.502 1.505-1.505 3.01-2.007 4.516v.5l.502-.5c-.5 1.003-.5 2.007-1.003 2.508.5 0 .5 0 .5.502 0 .5 0 .5-.5.5 1.504 0 0 3.01-.503 3.513.502-1.505.502-1.505-.5-.502.5.502.5 1.003 0 1.505 1.504.5 2.006 1.505 1.504 2.508 0-.5 0-1.003-.5-.5v.5l-.503-.5c.502.5.502 1.002 0 1.504-.5.5-.5 1.505-.5 2.007 0-.503 0-.503-.503 0 .502.5.502.5 0 1.002-.5.502-.5.502 0 .502-.5 1.505-1.003 3.01-1.505 4.516-.502 2.007-1.004 3.01-1.506 3.512v2.007l-.5-.502c.5 1.003.5 1.505.5 1.505-.5.5-.5 1.003 0 1.505-.5-.502-1.003-.502-1.505 0l1.002 1.505h-1.003s.5 2.007.5 3.01c-.5.502-.5 1.004 0 1.506-.5 0-1.003 0-.5.5.5.502 0 1.004-.503 1.004v.5c1.004 0 1.505 0 1.004.503h-.5c0 .5 0 1.003-.503 1.505.502 0 .502 0 .502-.5l-.503.5v1.003c-.5.502-1.003 1.505-.5 2.51.5 1.504 0 2.507-.502 3.01v-.503c-.502.502-.502 1.004-1.004 1.505-.5.5-.5 1.505 0 2.007h.503c0 1.505 0 2.51-.502 3.01l1.005.502c-.502.5-.502 1.505-.502 2.508s-.502 1.505-1.003 2.007v1.004c-.502.502-.502 1.003-.502 1.505h-.5c-.503.5-.503 1.504-.503 2.507-.5.502-1.003 1.505-.5 2.51 0 1.002 0 2.006-.503 3.01v3.511c-.5.5-.5.5-.5 1.003l-.503 1.003v-.502c-.503.503-.503.503-1.004.503v1.003h-.5c0 1.003 0 2.007.5 2.508 0-.5 0-.5.5-.5 0 .5 0 .5.503.5-.503.502-1.004 1.004-.503 1.004 0 .5-.5 1.003-1.003 1.505.5-.5 1.003-.5.5.502s-.5 1.505 0 1.003c-.5.5-1.002.5-.5.5.5 0 0 0-.502.503.502-.5 0-1.504-.502-3.01l-.5.502c-.502-.5-.502-.5 0-1.003.5-.502.5-.502.5-1.004l-.5 1.003h1.002c.502-1.004 0-2.008-.502-3.513-.5.502-.5.502 0 0 0-.5-.5-1.003-1.003-.5v1.002s0-.503-.502-1.004c.502-1.003 1.003-2.007 1.003-3.512s.5-2.007 1.003-2.508c-1.002 0-1.002.5 0 1.505l.503-1.002c-.502.502-1.004 1.505-1.004 2.51.5-.503.5-.503 1.003 0 0 .5 2.508-1.506 1.003-2.008-.5-.502-1.003-1.003-.5-2.51 0-.5 0-.5.5-.5v-.502c0-1.505-.5-3.01-2.007-3.512 0 .502 0 .502.5.502v1.003c0 .503 0 .503-.5.503 0 1.003 0 1.505-.502 2.007l-.5-.502c0-.5 0-.5-.503-.5h.502-.502c0 1.504.502 2.006 1.003 1.504-.5.502-.5 1.003-.5 1.505h.5c-.5 0-.5 0-.5.5v-.5c-.503.5-.503 1.003 0 1.505h-1.005v1.003l-.5-1.003c-.503 1.003-.503 1.505 0 1.003.5 0 .5.502 0 2.007h-.503c0 .502 0 1.003.502 1.003.5.502 0 1.003-.502 1.505.502.502.502.502 1.003 0 .502-.502.502-.502 0 .502-.5.5-1.003 1.505-1.003 2.007 0 .5 0 .5.502 0v-.503c-.502 1.505-1.003 2.51-1.505 2.007-.5 0-1.003 1.003-.5 2.51.5-.503.5-.503 1.002 0 0 1.504 1.002-1.004 0 .5-.503.502-1.004 1.505-.503 2.007l-1.003-1.002c0 .502 0 .502.5 1.003h-1.002c.502.503.502 1.506 0 2.008s-.502 1.505 0 2.007c-.502-.5-1.003-.5-.502 0 .502.502.502 1.003 0 1.505-.5-.502 0-1.505.502-2.51.502-.5 0-1.002-.502-1.504-.5.5-.5.5 0 .5 0 .503 0 .503-.5 1.004 0-.5 0-.5-.503-1.003-.5.502-1.003 1.505-.5 2.007.5 1.003.5 2.007.5 2.51v-2.51c.502.502 1.003.502.502.502-.503.5-.503 1.003 0 1.505-.503.502-.503 1.004 0 1.506 0 .5 0 .5-.503 1.003v-.503c-.5 1.505-1.003 2.007-1.505 2.007-1.505.5-1.505 2.007-1.505 3.01 0 .5 0 1.003.502.5 0 .503 0 .503.5-1.002 0-1.003.502-1.003 1.003 0-1.003.502-1.505 1.003-1.003 1.505.502 1.003 0 2.007-1.003 3.512 0-.502 0-1.004-.502-.502-.5.5-.5.5-.5 0-.502.5-.502 1.003 0 1.003v1.004l-.502.5c.5 1.005.5 1.506 1.003 1.005v2.507c-.5-.502-.5-1.003-.5-.502-.502.502-.502 1.003-1.004.502v2.007c-.502 1.505-.502 2.007-.502 2.007-.5.503-.5 1.004-1.003 2.51h.5c0 1.505 0 3.512-.5 5.017-.502 2.007-1.003 4.014-1.505 5.52l.502-1.004v1.505c0 .5 0 1.505-.502 2.007v-1.003c-.502 0-1.003.502-1.003 1.003v.502h-.502c0 .5 0 1.003.5.5s.502 0 0 .502c-.5.5-1.002 1.504-1.002 3.01-.502 1.505-1.003 2.508-1.505 3.01.503.5 1.004.5 1.004-.502-.5-1.003 0-1.003.502-.5-.502.5-.502 1.002-1.003 1.504l1.003-.5c-1.505 3.51-2.007 5.016-2.007 8.528h-.502c0 1.004 0 1.505.5 2.007-.5.5-.5.5-.5 0 0-.502 0-.502-.502 0 .502 1.003.502 2.007 0 3.01-1.003 1.003-1.003 2.007-.502 2.508-.5-.5-1.003 0-1.505.502-.503.5-.503 1.003-1.004 1.003v1.505c.5 8.53-3.512 11.038-11.038 7.526-5.52-2.006-10.537-4.013-16.055-6.02-6.02-2.007-10.035-5.52-12.042-11.038 0 .5 0 1.003.503 1.003-.502 0-1.003.5-1.505 1.003-.502 1.003-1.505 1.003-2.007.5l.502.503c-.5 0-1.003-.5-.5-1.002 0-.502 0-.502-.503-1.003l.5-2.007h-1.003c0-.5 0-.5-.5 0 .5-.5.5-1.505.5-2.006 0-.502 0-1.505.502-2.007 0-1.505 0-2.508-.503-3.512 0-3.01 0-5.52.502-7.024 0-.502 0-.502-.503 0 .502-.502 1.004-1.004.502-1.004s-1.004 0-1.004-.502l1.003-1.003c0-.5 0-.5-.503 0 0-1.504 0-2.507.502-4.013.5-1.003.5-2.007 0-3.01.5-.502.5-.502 1.002 0v-.502c-.5.502-1.003.502-.5-.5.5-1.004 0-1.506-.503-1.004.5-.5 1.002-1.002 1.002-2.006 0-.502.5-1.003 1.003-.502.502-.5.502-1.003 0-1.003s-.502 0-.502.5c0-1.504 0-2.508-.5-3.01.5-.5.5-1.504 1.002-3.01 0-1.505.502-2.508 1.003-3.01-.5 0-.5 0-1.003-.502l-.502.502V316.513s.502 0 1.004-.5c0-.503-.502-1.004-1.004-1.506v-.5c0-.503 0-.503.502 0 0 .5 0 .5.502 0-.502 0-.502 0-.502-.503V312.5c0 1.004.502 1.004 1.003.503V312l-1.003.5c.502-3.51 1.505-7.023 1.505-10.535 0-1.505 0-2.508.502-3.01l-.502-.5c-1.003-.503-1.003-1.506-.5-3.01.5-1.004 1.002-2.008.5-3.01-.5-1.004 0-2.008.502-3.01.502-.503.502-1.005 0-1.506h1.003c-.5-1.004-1.003-2.51-.5-4.015h.5c-.5-.502-1.003-1.505-1.003-2.007h.502v-2.007c1.003 0 1.003-.5.5-2.006-.5-1.003-.5-1.505.502-2.007-.5-.5-.5-1.505-.5-3.01-.502-.5-.502-1.003 0-1.505.5-.502.5-1.003.5-1.505 0-.5-.5-.5-1.003 0 .5-.5 1.003-1.505.5-2.508-1.002-1.506-1.002-1.506.502-1.506 0-.5 0-1.003-.5-1.003-.502.503-.502 0 0-.5.5-.502 1.002-.502 1.504-1.003.5-.502 1.002-.502.5-1.003v.5c-.5-.5 0-1.504.502-2.006.5-.5.5-.5 0-1.003h-.502c.502-.502 1.003-1.003.502-1.003-1.003 0 0-2.508.5-3.01.503 0 0 0-.5-.502v.502-3.01-3.01c0 .5.5.5 1.003 0-.502-.502-.502-1.003 0-1.505-1.505-.5-2.007-1.505-2.007-2.007 0 .502 0 .502.5.502v-.502h.503c-.5-.5-.5-1.003 0-1.505.502-.5.502-1.003 0-1.505.502.502.502.502 1.004 0-.502 0-.502-.502 0-1.003.5-.5 0-.5-.502-.5l1.505-4.517c0-1.505.5-2.51 1.003-3.01v-1.505h.5c-.5-.5-1.002-1.003-.5-1.505 0 0 0-.502-.502-1.004.502.502 1.003.502 1.505 0l-1.003-1.505h1.003c-.502-.5-.502-.5 0-1.002-.502-.5-.502-1.505-.502-3.01.503 0 1.004 0 .503-.502-.502-.5 0-.5.5-.5-.5-.503-.5-.503-.5-1.004l-.502.5c-.5 0-.5 0 0-.5l.503-.502v-1.003l-.502.502c0-.503 0-.503.503-.503.5-.5.5-.5 0-1.003.5-.5 1.003-1.505.5-2.508-.5-1.003 0-2.007 1.005-2.51-.502 0-.502 0-.502.503.502-.503.502-1.506 1.003-2.008.5-.502.5-1.003.5-1.505h-.5v-2.51l-.502-.5c.5-.502.5-1.505.5-2.51 0-.5.502-1.002 1.004-1.504-.502-.502-.502-.502 0-1.003.502-.502.502-1.003.502-1.505h.5c.502-.5.502-1.505.502-2.007.502-.5 1.004-1.505 1.004-2.508 0-1.004 0-2.007.5-2.51h.502v-1.51c0 .5 0 .5 0 0-.5-.502-.5-.502 0-1.004 0-.5.502-1.003 1.003-1.505v-1.002c0 .5 0 1.003.502.5.502-.5.502-.5 1.003-.5l-.5-.502h.5v-2.007h-.5c0-.502 0-.502-.503-1.004.502-.502 1.003-.502 1.003-1.003 0 0 .5 0 1.004-.5-.502.5-.502 0 0-1.004.5-.503 0-1.004-.502-.503.502-.5 1.004-.5 1.004-.5-.5 0-.5 0 0-.503-.5.502-.5 1.003 0 1.505v1.504l1.003-.5c.5.5.5 1.002 0 1.002-.503.502-1.004.502-1.004 1.004 0-.502.5-1.004 1.003-1.004h-1.004c-.5.502-.5 1.505-.5 3.01.5-.5.5-.5.5 0 0 .502 0 1.004.5.502v-.5h.503v-1.004l-.503.5s0-.5.502-1.002c.5-1.003.5-2.007.5-3.01s0-2.007.5-3.01v-1.003l-.5.5c0-.5 0-.5-.5-1.003h1.504v-2.007c0-.5 0-.5-.502-1.003 0 .502 0 1.003-.5 1.505l.5-1.505c0-.5 0-.5.502-.5v.5c.502-.5.502-1.003.502-1.505v.5c-.502 0-.502 0-.502.503v-1.505l-.502-.502c-.5.502-.5.502-.5 1.003v-1.002c-.502-.502-.502-.502-1.004-.502-.5 0-.5 0-1.003-.5-2.51 4.514-5.018 8.528-7.526 12.54-2.51 4.015-5.018 8.03-7.526 12.544-7.526 12.542-11.038 14.048-24.584 8.53-9.533-3.513-17.56-8.028-27.092-12.544-4.516-2.508-5.52-6.522-2.51-11.038 26.09-48.165 51.678-94.824 77.767-142.488 5.52-9.532 13.044-18.563 20.57-26.59 7.526-7.527 9.533-6.523 17.058 1.002 7.024 8.028 14.048 16.055 21.072 23.58 14.048 16.056 28.096 29.602 27.595 43.15-.5 6.52-1.504 13.543-3.01 20.066zM1358.955 227.715h-.5.5zm-1.003 22.076c-.5 0-.5 0-1.002-.5.502 0 0-1.004-.5-.502h-.503v1.504l1.003-1.003c0 1.002.502 1.504 1.003 1.504v-1.003zm.503-2.006c-.502 0-.502 0-.502.5h.503v-.5zm.5-2.007c0-1.505 0-2.51.503-3.01-.502 0-1.003 0-1.505-.502 0 1.003.503 2.007 1.004 3.512zm.503-4.516c0-.5 0-.5.502-.5v-.502h-.502v1.003zm.502-1.504c0-.5 0-1.505.5-2.007-1.504 0-1.504.5-.5 1.504v-.502c-.502.503-.502 1.004 0 1.004zm1.003-6.522h-1.002c.5 0 1.003.5 1.003 2.007v-2.006zm.503-2.51c-.502-.5-1.003-.5-1.505-.5-.502.5-1.004.5-1.505 0l2.508 3.01c.503-.502.503-.502.503-1.003l-1.003-.5h1.003v-1.005zm.502-2.005l-1.004 1.002c0 .5.503.5 1.005.5v-1.503zm0 0c0-.503 0-.503.5-1.004h-1.504l1.005 1.003zm.5-2.008c-.5 0-1.002 0-1.002-.502l1.003 1.505v-1.003zm.503-2.007c0-.502 0-1.003.502-1.505v-1.505h-2.007c0 .5 0 1.003.502 1.505.5.5.5 1.003 1.003 1.505zm.502-4.014c-.502-1.504-1.505-3.01-3.01-4.515l.5 1.505h-.5c0 1.505 1.505 3.512 3.01 4.014v-1.003zm.502-2.006c0-.502 0-.502.5-1.003v-1.504h-1.002c-.502 1.003 0 2.006.502 2.508zm1.505-8.027c-.502 0-.502-.502-.502-1.004-.5-.5-1.003-.5-1.505 0l-1.003 1.004c-.5.5-.5.5-.5 1.003.5.502 2.006 1.004 3.51 1.004v-2.007zm.5-.502h-.5v.502l.5-.502zm1.506-9.03l-.5.5c-.503.503-.503 1.004-.503 1.506-.502.502-.502 1.506-1.003 2.008h-1.003c0 1.505.5 2.508 2.007 2.007-.5.5-.5 1.003-.5 1.003-.502 0-.502.5-.502 1.003l.5-.5 1.505-7.526zm0-.503l.5-.5h-.5v.5zm.502-2.007c.502-1.003.502-2.007 1.004-3.512 0-1.003 0-2.007.5-3.01-.5.502-1.003 1.505-1.003 2.007 0 1.003-.502 1.505-1.004 1.505l.5-.502v-.5l-.5.5c0-.5 0-.5.5-1.003.503 0 .503-.502.503-1.004-.502 0-.502 0-.502-.5-.5-.503-3.01 1.504-1.505 2.006.5.5.5 1.003 0 2.508l-.503-.5v1.002c0 2.007.502 3.01 1.505 3.01 0-1.505 0-2.007.503-2.007zm27.093 128.44c.502 0 .502 0 1.004-.5-.502.5-.502-.503-.502-2.008 0 1.003 0 2.006-.502 2.508zm16.557-47.663c.5-.5.5-1.003 0-1.505v1.003l.5.5h-.5zm.5-25.086c.502.502 1.004-.5.502-2.508-.5-1.505 0-2.51 1.505-3.01v-.502c-.5 0-.5 0-.5-.5-5.52 6.52-6.523 15.552-8.03 24.08-1.002 5.52-2.006 10.537-3.01 16.056l-3.01 16.557c-.5 3.51-1.002 6.52-1.504 9.532-.502 3.01-1.505 6.02-2.007 9.532.502-.5.502-1.505 1.004-2.508 0-.502.502-.502 1.004 0 .5-.502.5-1.003 0-1.505-.502 0-.502 0-.502.503.502-1.003.502-2.51.502-4.014.5-.503 1.003-1.506 1.505-4.015.5-2.007 1.003-3.512 1.505-4.014-.502.502-.502 0-.502-1.003l-1.003.502.5-2.008c0-.502 0-.502.503-.502 0-.5 0-.5.502-.5 0 .5 0 .5 0 0 .5-.502.5-1.004.5-1.506-.5 0-.5-.5-.5-1.003v-.5.5s.5 1.004 1.003-.5c-.5-.502-.5-.502-.5-1.003 0-.502 0-.502.5-1.003-.5.5 0 1.003.503 1.003l.502-1.505h-1.004c.503-1.003.503-2.007 1.005-3.512 0-1.003.5-2.007 1.003-3.01l1.505-7.526c.502.5 1.003 0 1.003-1.505 0-1.004.502-1.506 1.004-1.004-.502.502 0 1.003.5.502.502-.502.502-1.003.502-1.505-.5.502-.5.502-.5-.5-.502-.503-.502-.503-1.004 1.002l-.502-2.007c-1.003-1.003-1.003-2.51 0-4.014 1.004-1.505 1.505-3.01 1.505-4.515v.5c0-1.505.502-3.01 1.004-4.014.5-1.003 1.003-2.007.5-2.508h1.004c-.5-1.505 0-3.512.502-5.017v-1.504c-.502-.502-.502-1.003 0-2.007h.502l.504-2.514zm-11.538 50.673c0 .5 0 .5.502.5v-.5h-.503zm13.045-30.605s-.502 0-1.004-.502c0 .502 0 1.004.502 1.004v.5h-1.003l.5 1.506v-1.004c0-.502.503-.502 1.005-.502v-1.003zm0-.502c.5-.5.5-1.003.5-1.505 0 .5 0 .5-.5.5v1.005zm6.02-32.612l.502.503v-1.004h-.502v.5zm-.502 5.02v-.502.5zm-.5 1.002v.502-.502zm-2.51 11.54v.5c0-.5 0-.5.502-.5h-.502zm-1.004 12.04c0-.5 0-1.002-.502-1.002v1.003h.502zm2.007-6.02l1.003-1.003c-.5-.502-1.003-.502-2.007-.502 0 .5 0 .5-.502 1.003l1.505.502h-1.505v-.5c0 .5 0 1.002-.502 1.504h1.003l1.003-1.004zm2.007-7.526h.502c0-.5-.502-1.505-1.505-2.508 0 1.003 0 1.505.502 1.505-.503.5-.503.5 0 0 0-.502 0-1.004-.503-1.505l-1.003 1.003c0-.5 0-.5.502-.5v-1.004c-.502.502-.502 1.003-.502 1.505.502.503 1.505 1.506 2.007 3.01v-1.504zm2.51-11.037h-.503.502zm-2.008-3.514c.502.502 1.003.502 2.007.502l-1.004-1.505c-.5 0-.5 0-1.003.5l.502-.5h-1.004v.5l.502.503zm4.014-12.543c0-1.003 0-1.505-.502-2.007v1.505l.502.503zm1.505-7.024h1.004v-1.506c-.5 0-1.003.5-1.003 1.003v.502-.502 1.003l.502-.5h-.5zM1408.625 323.542l.502 1.004-.502-1.004zm.502-4.515c0 .5 0 1.003.5 1.505v2.007l-1.002-.502h.502v-2.007c-.502-.5-.502-.5 0-1.002zm-.502-.502v1.504l-.5-.502.5-1.002z"/><path d="M1715.177 279.894c3.512 13.546-2.007 20.57-12.04 28.096-16.558 11.54-33.114 22.577-52.682 28.598-32.11 9.533-63.216 19.567-95.326 30.103-3.513 1.004-6.523 2.51-9.534 4.015-3.512 1.505-7.024 3.01-10.536 3.512-12.543 2.508-24.584 4.014-38.13 5.52-8.53.5-14.55-2.51-19.065-9.533-3.512-5.52-7.024-10.536-10.536-15.553l-10.537-15.05c-1.505-2.51-3.01-6.523-1.505-8.028 1.505-2.007 4.515-2.51 8.027-3.01.5 0 1.505 0 2.007-.502h2.007c.5 0 .5 0 .5-.5h1.505c.5-.503.5-.503 1.003-.503.502 0 .502 0 1.004-.5h3.512c-.5-.503 0-.503 1.004-1.004l-1.004-.502h2.508c-.502.503 0 .503.502.503.5-.502 1.003-.502 1.505-1.003l.5-.502c.502 0 .502 0 0 .502-.5.5-.5.5 0 .5 0-.5 0-.5.502-.5h1.003c-1.505 0-.5.5 0 .5h1.003l-.5-1.002c2.006-.502 4.013-.502 6.02-.502 2.007.502 4.014.502 5.52 0 .5.502 1.003 1.004 2.006.502.502-.502 1.004 0 1.004.502h-.502c-.502 0-.502 0 0 .5.502.503 1.003.503 1.505 0-.5 0-.5 0 0-.5.503-.502 0-.502-1.002-.502l1.505-1.003c.502-1.003 1.505-1.505 3.01-1.003s2.51.502 3.512 0v.502c1.003-.502 2.007-1.004 3.01-.502s1.505 1.003 2.006.502l.503.5c1.004-.5 2.51-1.002 4.014-.5.502-.502 1.506-1.004 2.51-.502h2.508c0 .502.5.502 1.505 0s2.007-.502 2.51 0c.5 0 .5 0 1.002-.502h.5c.503 0 .503 0 1.005-.5h.5c0-.503 1.004-.503 2.51-.503h1.504c0-.5 0-.5-.5-1.003.5.502 1.505.502 2.508-.5 1.505-1.506 2.007-1.004 2.007.5h.5c.502-.5.502-.5.502-1.003-.5-.5 0-.5.502 0h-.503.502c0 .502 0 .502.5.502 2.51-.5 6.022-1.003 9.533-2.51h1.505c0-.5 0-.5.502-.5h-.502l.502-.502v1.003c0-.5 0-.5.502-.5 0 0 .5-.503.5 0h1.004l-.5-.503c1.504-.5 2.507-1.003 4.013-1.505 1.504-.502 2.507-1.003 4.013-1.505.5.502 1.003.502 1.505 0 .5-.5.5 0 1.003.502h-.5 1.003c0-.502 0-1.003-.502-1.003l.503-1.004c0-1.003.502-1.505 2.007-1.505 1.003.503 2.007 0 2.51-.5.5-.502 1.504-1.004 2.508-1.004.5.5 1.003.5 1.003 0l.503.5c.502-1.002 1.505-1.504 2.508-2.006l.503.5c0-1.002.5-1.504 1.003-1.504l2.007-.502c.502.502 1.003.502 1.505-.5.502-1.004 1.505-1.004 2.007 0 0-.502.502-1.004 1.505-2.008v.5c.5-.5 1.003-1.002 1.505-1.002 1.003.502 1.505-.5 1.003-1.003.5.503 1.003 0 1.505-.5.5-.502.5-1.003 1.003-1.003.502 0 1.004 0 1.004.5-.502.503-.502.503 0 .503.5-.502 1.003-.502.5-1.003-.5-.502-.5-.502 0 0 .502 0 1.004.5 1.506 1.003.5.5.5 1.003 1.003.5l-.502-.5c.5-.502 1.505-.502 2.007 0 .5.5.5 0 .5-.502l-.5-.5c1.003.5 1.505.5 1.505 0 0-.503.5-.503 1.003-.503v.502c1.003-.502 1.505-.502 1.505-1.003h-.502c.502-.502 1.505-.502 2.007-.502l.502-.5c0-.503 2.007-1.004 2.508-1.004-.5.5-.5.5 0 1.003 0-.5.502-1.002 1.004-1.002 0-1.505.5-2.007 1.003-2.51-.502.503 0 1.004 0 .503v1.004c.5-.502.5-1.003 1.003-1.003.5.502 1.003 0 1.505-.5v1.002c0-.5.502-1.003 1.004-.5.5.5.5 0 0-.503 1.505 0 2.508-.502 4.014-1.004 1.003-.5 2.007-.5 2.508 0 .5 0 .5 0 1.003-.5l1.004-1.004c0 .5.502 0 1.004-.502-.5.502-.5 1.003.502 1.003l.502-1.003.5.502c.502-.502 1.506-1.505 2.008-1.505s.5 0 .5-.5c.503.5 1.005 0 1.005-.503s0 0 .502.502l.502-.502c-.502-.502-.502-1.003 0-1.003l.502.502.502-.5h-.502 1.002-.5 1.003c.502.5 1.506 0 2.007-1.004.502-.502 1.004-1.003 2.007-.502-.5 0-.5 0-.5.502.5-.502 1.504-.502 2.006-.502.5.502.5 0 1.003-.5l-.502-.503c1.506-.5 2.008-1.003 2.008-1.003v-.5c.5-.503 1.505-1.004 2.007-1.506.5-.5 1.003 0 1.505.502 0-.502.5-.502 2.007-.502l.5.502c.502-.502.502-.502 1.004-.502l.503-.5c.5.5 1.505 0 2.007-.503.5-.5 1.505-.5 2.007-1.002v.502l1.003-1.003c0-.502 0-.502.5-.502.503-.5 1.004-.5 1.506-.5h1.003c-.503 0 0 .5.5 1.002l.502-.502v.502l1.505-1.505-.502-.5c.502-.503.502-.503 0-.503.502.5 1.003.5 1.505 0h1.004c-.502-.502-.502-.502-1.004-.502-2.508-.502-5.017-1.505-6.522-2.007-2.007-.5-4.014-.5-5.52-.5-11.538-1.506-22.074-3.01-32.11-1.506-9.03 1.505-18.06 2.007-26.59 1.003-9.03-1.003-18.062-1.505-26.59-1.003-28.6 1.003-49.17-12.04-61.21-38.632-4.515-9.533-9.532-19.567-14.048-29.1-5.017-9.533-10.035-19.567-14.55-29.1-9.533-19.065-10.536-38.13-3.512-57.196 5.52-12.543 11.54-25.587 24.083-33.113 5.018-3.512 7.025-7.526 6.022-12.04-.502-14.05 17.56-13.547 26.09-14.05 4.515-.5 8.528-1.002 13.044-1.504 22.075-3.513 44.15-6.523 66.73-10.036 22.074-3.01 44.15-6.02 66.727-9.532 1.505 0 2.508 0 3.01-.502 17.56-3.512 21.574.502 22.075 18.563.502 7.526 1.004 14.55 2.007 21.574.502 7.526 1.505 14.55 2.007 22.076v6.02c-.502 2.51 0 4.517.5 6.523 2.008 8.027-3.01 8.53-9.03 10.034-18.563 2.51-36.625 5.017-55.19 7.526-18.562 2.508-36.624 5.017-54.686 8.027h-1.003s-.502 0-1.004.502h-2.008c0 .5 0 .5.502.5v.503c0-.502 1.004-2.007 1.004-.502h.5-.5c0 .502 0 .502-.502.502s-.502 0 0 .5c-.502-.5-.502-.5 0-.5s0 0-.502-.502v1.003l-1.003-1.004h-1.003v.502c-.502.5-.502.5-.502 0l.502-.502h-.502c-.5.502-.5.502-1.003.502l.502.5v-.5 1.003-.5h-.502c-.502 0-.502 0-.502-.502-1.003 1.003-1.003 1.505 0 1.505-.5.502-1.003 1.003-1.003.502.502.5 1.003.5.502 0-.503 0-1.004 0-.503.5-.5.503-.5 0-1.003-.5v1.003c-.5-.502-.5-1.003 0-1.505 0-.5 0-.5-.5-1.003v-.5l-.503.5v1.002l-.5-1.002h-.502c0 1.505.502 2.51 1.505 3.512 0 .5-1.003 0-1.003-.502-.502-.5-1.004-.5-1.004 0 0 .502 0 1.003-.5 1.003l.5-.5c-.5-.503-1.003-.503-1.003.5 0-1.003 0-1.505-.502-2.007-1.504.502-1.504 1.505-1.002 3.01l1.003-1.505c.503.502.503 1.004 0 1.004s-.5.5-.5 1.003h-1.004v-.502l-.502-.5c0-1.004 0-2.008.502-2.51h-.502.502c0-.5 0-.5-.502-.5h-.502v.5c-.5.502-.5 1.003-.5 1.505v1.003c-.502 0-.502-.502-.502-1.505-.502.502-1.004 1.003-.502 1.505 0 .5-.502 1.003-1.003 1.003h.5c0 .502 0 .502-.5.502h-.5c-1.507 0-1.507-.502-.503-1.505l-.502 2.007s0-.5-.502-1.003v-.502 1.504c-.5-.5-1.003-.5-1.505-1.003.502 0 .502 0 .502.502 0 .5 0 1.002.5 1.002-.5.502-.5.502-1.002 0 0 0-.5-1.003-1.003-2.508l-.5 3.01c-.503 0-.503 0-.503-.502v-1.003c.502 1.504-1.003 2.006-2.51 2.507h.503c0-.5 0-.5-.502-.5-.5 0-.5 0-.5.5-.503-.5-.503-.5 0-.5-.503-.503-1.005 0-.503.5.502 1.003 0 1.505-.502 1.003 1.505 0 .502-.502-.502-.502-.5 0-.5.502 0 1.004-.5 0-1.002 0-1.002-.502l-1.004 1.505c.502-.5.502-.5 0-.5.502 0 .502-.502.502-1.004s.502-.5 1.003 0c-.502-.5-1.004-1.002-1.004-1.504-.502 0-1.003 1.003-1.505 3.512h-1.003l-.502-.502-.5.502v-.502.502c-.503-.502-.503-1.003-.503-1.505v-.502.503-1.504l-.502.5v.503h.502c-.502 1.004-.502 2.008 0 2.51l-.502-.502-1.003 2.007-.502-.502c0 .502-.502.502-1.003 0-.5-.5-1.003 0-.5.502v1.003h-.503v.502l-.503-.502c-.5 1.003-1.003 1.505-1.505 1.505-.502.5 0 .5.5.5.503.503.503.503 0 .503-.5-.502-1.002-1.003-1.504-.502v1.003l-.5-.5h-.502c-.502.5-.502.5-1.004.5 0 .502.502.502 1.004.502.5.5.5.5.5 1.002l-.5-.502c-.502.502-.502.502-1.004 0l.502-.5c-1.003 0-1.505 0-1.003.5 0 1.003-.5 0-.5-.5 0-.503 0-.503-.502-.503v.502l-.502-.503v1.505l-.5.5-.502-.5v1.003c0-.502-1.505-.502-1.004.502.502.5 0 1.003-.5.5h-.502c.5.502.5 1.004 0 1.506-2.007.5-.502 2.007-.502 0h-1.003l.5-.502c-.5-.5-1.002 0-1.002 1.506-.5 0-.5 0-.5-.5s0-.502-.502 0c-.5.5 0 1.002.502 1.002.5 0 .5 0 0 .502l-1.003-.502c0 .502 0 1.003-.502 1.003-.5 0-.5 0-1.003.502v.502c-.502 0-1.003 0-.502.502 0 .5 0 1.003-.5 1.003h-1.004l-.502 1.003c.502-.502 0-1.004-.5-1.505v1.003c0-.5 0-.5-.503-.5v1.504l.503-.5-1.004 1.002-.503-.502c.502 0 .502 0 .502-.5h-1.004v.5c0 .502 0 .502.5.502-.5.5-.5.5-.5 1.003l-.502-.503-.502.502v-.503c-.502.502-.502.502 0 .502s0 .5-.502 1.002l-.5-.502v1.003c0 .502 0 .502.5 0 .502 0 .502.502 0 1.003h-1.003c0 .502 0 .502.5.502s.502 0 .502-.502c-.502.502-1.004 1.003-1.506.502-.502 0-1.004.5-1.004 1.003.502-.5.502-.5.502 0 0 1.004 1.505.503.502.503-.502 0-1.004 0-.502.5l-.502-.5c-.5 0-.5 0 0 .5l-.5-.5c.5.5.5 1.003 0 1.003-.503 0-.503.502 0 1.003-.503-.502-1.005-.502-.503 0 0 .5 0 .5-.502.5-.5-.5 0-1.002.502-1.504.502 0 0 0-.502-.5-.5 0-.5 0 0 0 0 .5 0 .5-.5.5v-.5c-.502.5-.502 1.002-.502 2.006l.5-1.003c.502.5 1.004.5.502.5-.5 0-.5 0 0 .502-.5.5-1.003 1.003-.5 1.003-.502.502-.502 1.003-1.004.502-1.002 0-1.504 1.505-1.002 1.505.5.502.5 0 .5-.502 0-.5.503-.5 1.005 0-.502 0-1.004 0-.502.502 0 .502-.5 1.505-1.002 2.007v-.503c-.5.502-.5.502-1.003 0 0 .502 0 .502.502.502v.5h-.502c.502.502 1.003 1.004 1.003.502 0 0 0 .502.5 1.003-.5-.5-.5-.5-.5 0-.5.502-.5.502-.5 0-.503.502-.503.502 0 1.003 0 .5 0 1.003-.503 1.003s-.502.503 0 1.004h1.505c0 .502 0 .502.502.502 6.522 2.508 13.546 3.512 21.072 4.014 7.024.5 14.048.5 21.072 1.003 44.15 2.007 87.3 7.024 127.436 25.587 9.533 4.014 16.557 9.03 24.584 14.55 11.54 7.526 11.038 19.065 12.543 30.605.5 2.508 1.003 5.017 1.003 7.525 0 2.505.502 5.515 1.004 8.024zm-150.515-140.48l-.502.5h.502v-.5zm-8.027 2.006v-.5.5zm-7.025 1.505h.502-.502zm-3.51 1.003V144.93v-1.002zm-2.51 1.004h.502-1.004.502zm-.502 0l-.5.5.5-.5zm-5.017 5.017l-.5.5h.5v-.5zm-1.003-1.506h.502l-.503-.502v.502zm-2.508 0v1.003l.5-.5v-.502h-.5zm-1.004.502c0 .5 0 .5.502 1.003h.5l-1.002-1.004zm-5.018 9.03v.502-.502zm4.516-7.024v-.5.5zm0-1.505v1.004l.502-.5v-.503h-.502zm-5.017 2.51c-.5 0-.5 0 0 .5 1.003 1.004 1.505 1.004 1.505.502h-.502c.502-.502 1.003-1.004 1.505-.502.502.5 1.004 0 .502-.502l-.502-.502c.502.502 1.004.502 1.004 0 0-.5.5-.5 1.002-.5v.5c0-.5 0-.5.5-.5l-.5-1.506v1.505s0-.5-.502-1.003c0 1.003-.5 1.505-2.007 1.505 0-.5 0-.5-.5-.5l-.503.5c0 .502 0 1.004-.502.502v-.502l-.5.5zm-1.004.5v.502-.502zm-10.536 5.52c0 .5 0 .5-.502.5 0 .502.502 1.004 1.505 1.004v-.5h.5l.503-.502c.502 0 .502 0 .502-.502.5 1.003 1.003 1.003 1.505 0 0-1.003.502-1.003 1.505-.5-.502-.503-.502-1.004 0-1.506.5 0 .5 0 .5-.5h.503c-.502-.503 0-.503.502-.503h1.003c.502-.5.502-.5 0-1.003l.502-.502h-.502v.502-.502c-.5.502-1.505 1.004-2.007 1.004 0 .5 0 .5-.5 1.003v-.503c-.503 0-1.004.502-1.506 1.003h-.5v.502-.502h-.503c0 .502-.5 1.003-1.003 1.003-.502.502 0 .502.502.502.5.5.5.5 0 1.003-.502-.502-1.004-1.003-1.505-1.003v1.003-.502h-1.003zm-.502.5h-.5c.5.503.5.503.5 0zm-16.055 16.056v.502c.502 0 .502 0 .502.502v-1.505h-.502v.5zm0 5.018h.502-.502zm4.014-4.515v-.502c-.5.502 0 .502.502.502l.502-.502-1.004-.5c1.004-1.004 1.505-2.008 2.007-2.51l1.506-1.505c0-.502.5-1.003 1.003-1.505.5.502.5.502 1.002 0 0-.502.502-.502 1.004 0h-.502c0 .502 0 .502.502.502s.502 0 .502-.502c-.502 0-.502-.502 0-1.003 0-.5-.502 0-1.004.5v-1.504c-.502-.502 0-1.003.502-1.505 1.003-.5 1.505-1.003 2.007-1.504v.5c.502-.5 1.004-1.002 1.505-1.504.502 0 1.004 0 1.004-.502l.502.502c0-1.505.5-2.007 1.505-2.51 0 .503 0 .503.5.503-.5-.502-.5-.502 0-1.003h-1.505v-.502c-.5-.5-1.003-.5-.5 0 0 1.003-.503 0-.503-.5l-.502.5v.502h-.502v.5h-.5c.5 0 .5 0 0-.5v1.003-.502l-.503.502.502-.502h-.502c-.502 0-.502.502 0 1.004.502.5 0 1.003-.502.5l-.502-.5c.503.5.503 1.003 0 1.505-1.504.502-.5 2.007-.5 0h-.5v-.502c-.503-.5-.503 0-.503 1.505 0 0 0-.5-.502-1.003l-.502.502v-.502.502c-.5.5 0 .5.502.5s.502 0 0 .502h-.502c0-.5-.5 0-1.505 1.004v.5c-.5 0-.5 0 0 .502 0 .502 0 .502-.5 1.004 0-.502-.502-.502-1.004-.502V167.007c-.502 0-1.003-.503-.502 0l-.5-.503v1.505h.5-.5c0 .5 0 .5-.502.5v-.5-.502c-.502 0-.502 0-.502.5 0 .503 0 .503.502.503-.502 0-.502.503-.502 1.004l-.502-.5v.5l-.5-.5v.5c.5.502.5.502 0 .502h-.503l.502.5v-.5.5h-.502c.502.503.502.503 1.003 0v1.004h-1.003c0 .502 0 .502.502.502v-.502c0 .502-.502.502-1.505.502v.5c.502 0 .502 0 1.003.503v-.502c.502.502.502.502 0 .502-.5 0-1.003 0-.5.5l-.503-.5v.5h-.5c.5.503 1.002 1.004.5 1.004-.5 0-.5 0 0 .5-.5-.5-1.003-.5-.5 0 .5.503-.503 0 0-.5.5 0 0 0-.503-.502v.5h-.5v.503h.5c-.5 0 0 0 .502.503-.503.5-1.004 1.003-.503 1.003 0 .502-.5.502-1.505.502 0 .5 0 .5.502.5v1.004-.5c.502.5.502 0 .502-.503-.502-.502 0-.502.5 0-.5.5-.5.5 0 .5.503.502 0 1.004-.5 1.506.5.5 1.003 1.505 1.003 2.508.5-2.007 1.504-3.01 2.006-3.512-.502.502-.502 0-.502-.5h-1.003l.503-1.004h1.003c0-.502 0-1.003-.502-1.505v-.502c.502 0 .502 0 .502.503 0 .5 0 .5.5 0v-.498zm-26.59 150.013c-.503.502-.503.502-.503 0h.503zm116.398-22.577c.502 0 .502 0 1.003-.5h.502-1.003c-.502 0-.502 0-.502.5zm4.013-1.504c.502 0 .502 0 1.003-.5h.502-1.003c0-.002 0-.002-.502.5zm2.007-.502c.5 0 .5 0 .5-.502h.503-1.002v-1.505l.5.5v-1.002h-.5v-.5l-1.005.5h.502c0 .502 0 .502.502.502-.502 1.003-1.004 1.505-.502 2.007h.502v-.502.502zm5.52-2.007c.5 0 .5 0 .5-.502-.5-.5-.5-1.003-.5-1.505-.502.5-1.506 1.003-2.008 2.508.502 0 1.004 0 1.505-.5h.5zm1.504-1.003h1.003-1.004zm1.506 0c0-.502 0-.502.5-.502h-.5v.502zm5.017-2.007v-.502l-.502.502h.5zm1.002-.502c.502-.5 1.003-1.505.502-2.007-.502 0-.502-.5-.502-1.003l-.502 3.01.502-.5v.5zm1.505-.5v-.503.502zm.502-3.012v-.502.503zm1.002 2.007h.5-.5zm4.014-1.505c.502 0 .502 0 1.003-.5v-.503c-.502.5-1.004 1.003-1.004 1.003zm3.01-1.004c.502-2.006 1.004-3.01 1.004-3.51l-.502 1.002-.502-.5c-.502 1.504-1.003 2.507-1.003 3.51.5-.5.5-.5 1.003-.5zm6.523-3.01c.5 0 .5 0 1.002-.5l-.502-.502h-1.003c-.5 0-.5 0-1.003-.502 0 .502 0 1.505.502 2.007v-.5s0-.503.5-1.004l.503 1zm3.51-1.504c.502 0 1.004-.5.502-1.003 0 .5 0 .5-.502 1.003zm9.032-4.014c.5-.5 1.003-.5 1.505-.5 0-1.506-2.007-2.008-2.007-1.004 0 .5-.5 1.003-1.505 1.505h-.502l-1.505 1.505h1.003l1.005-.502c.502-.5.502-.5 1.003-.5s.502-.002 1.004-.504zm4.013-2.007c.502-.5.502-.5.502-1.003l.5-.5-.5.5c0 .502 0 .502-.502 1.003zm-28.096 7.024c0-.502.5 0 1.003.5h-.502l-.5-.5zm-19.568 10.535v.502-.502zm39.134-16.556h-1.003 1.003zm-2.007.5c.5-.5.5-.5 1.002-.5l-.5.5h-.503zm9.532-4.013h.5-.5zm-.502.5c0 .503-1.004 1.506-.502 0 .502-.5.502-.5.502 0zm-137.972-112.885c.502 0 .502 0 .502.5l-.502-.5zm5.52-4.013l-.503-1.004.502.502v.5zm-2.008 2.507c-.5.502-1.003-1.003-.5.502 0-.503 0-.503.5-.503zm7.024 2.51v.5-.5zm30.103-20.07l1.003 1.003c-.5 0-.5.502-1.003 1.004v-2.007zm22.577-8.028c0 .5 0 .5.502.5l-.502.502v-1.003zm-16.555 7.023c0 .502 0 .502.5 0v.502c-.5 0-.5 0 0 .502.502.5 0 .5-.5 0v-1.004zm-24.083 13.045v.5l-.5-.5h.5zm-5.52 2.51l.503.5-.502-.5zm-3.01 4.013c0-.5 0-.5.502-.5l-.5.5z"/></svg>
