<svg xmlns="http://www.w3.org/2000/svg" viewBox="0 0 162.137 274.874"><path d="M5.661 52.222c3.77-10.93 9.364-20.227 16.781-27.901 7.411-7.668 16.401-13.629 26.958-17.907 10.558-4.272 22.626-6.414 36.201-6.414 10.557 0 20.416 1.573 29.608 4.713 9.161 3.151 17.271 7.729 24.309 13.757 7.038 6.041 12.576 13.33 16.598 21.867 4.021 8.55 6.021 18.36 6.021 29.419 0 14.082-3.072 26.016-9.229 35.82-6.157 9.798-14.009 19.229-23.568 28.281-7.797 7.796-14.027 13.886-18.654 18.287-4.669 4.4-8.114 8.739-10.379 13.018-2.271 4.277-3.771 9.492-4.529 15.648-.752 6.156-1.261 15.006-1.512 26.566h-23.751c-.257-11.561.374-21.236 1.879-29.021 1.512-7.797 3.959-14.841 7.362-21.126 3.391-6.279 7.907-12.314 13.568-18.098 5.661-5.777 12.504-12.313 20.552-19.608 7.037-6.53 12.889-13.819 17.527-21.867 4.657-8.042 6.989-16.971 6.989-26.769 0-7.54-1.451-14.449-4.346-20.741-2.883-6.279-6.781-11.628-11.683-16.028-4.915-4.388-10.625-7.852-17.161-10.367-6.536-2.509-13.451-3.77-20.74-3.77-10.062 0-18.984 1.756-26.769 5.275-7.797 3.531-14.205 8.36-19.235 14.517-5.03 6.163-8.8 13.391-11.31 21.683-2.509 8.299-3.642 17.351-3.391 27.148h-23.757c.006-13.315 1.891-25.445 5.661-36.382zm92.755 182.694v39.958h-31.67v-39.958h31.67z"/></svg>
