<svg xmlns="http://www.w3.org/2000/svg" viewBox="0 0 371.83 54.684"><path d="M135.478 37.263c-.643 2.422-1.693 4.682-3.15 6.781-1.458 2.102-3.237 3.916-5.336 5.447-2.101 1.533-4.484 2.742-7.152 3.632-2.668.89-5.559 1.335-8.671 1.335-4.25 0-8.054-.742-11.414-2.225-3.36-1.482-6.214-3.457-8.56-5.929-2.348-2.47-4.139-5.349-5.374-8.635-1.236-3.285-1.853-6.756-1.853-10.413 0-3.508.604-6.893 1.816-10.154 1.21-3.261 2.952-6.139 5.225-8.634 2.272-2.495 5.027-4.496 8.264-6.003 3.235-1.507 6.88-2.261 10.932-2.261 3.754 0 7.089.507 10.005 1.52 2.915 1.013 5.422 2.384 7.523 4.113 2.1 1.73 3.792 3.769 5.077 6.115 1.284 2.347 2.174 4.88 2.668 7.597h-7.115c-.396-1.877-1.063-3.632-2.001-5.262-.939-1.63-2.149-3.039-3.632-4.225-1.482-1.186-3.2-2.112-5.151-2.779-1.953-.667-4.139-1-6.56-1-3.212 0-6.066.581-8.56 1.742-2.496 1.162-4.595 2.718-6.3 4.669-1.705 1.952-3.015 4.188-3.928 6.708-.915 2.52-1.371 5.139-1.371 7.856 0 2.866.469 5.571 1.408 8.115.938 2.546 2.309 4.781 4.113 6.708 1.803 1.927 4.014 3.459 6.633 4.595 2.618 1.138 5.607 1.705 8.968 1.705 1.778 0 3.52-.271 5.225-.815 1.705-.543 3.272-1.309 4.706-2.298 1.433-.987 2.68-2.16 3.743-3.52 1.062-1.359 1.864-2.854 2.409-4.484h7.413zM144.149 1.391h6.448v51.881h-6.448v-51.881zM175.574 54.087c-2.669 0-5.09-.471-7.264-1.408-2.175-.938-4.028-2.224-5.559-3.854-1.532-1.631-2.718-3.508-3.558-5.633-.841-2.125-1.26-4.373-1.26-6.745s.419-4.632 1.26-6.782c.839-2.149 2.025-4.039 3.558-5.669 1.531-1.63 3.384-2.915 5.559-3.854 2.173-.938 4.595-1.408 7.264-1.408 2.717 0 5.162.47 7.337 1.408 2.174.939 4.039 2.224 5.596 3.854 1.557 1.631 2.754 3.521 3.595 5.669.84 2.15 1.26 4.41 1.26 6.782s-.42 4.62-1.26 6.745c-.841 2.125-2.038 4.002-3.595 5.633-1.557 1.63-3.422 2.916-5.596 3.854-2.175.938-4.62 1.408-7.337 1.408zm0-5.781c1.729 0 3.298-.32 4.706-.963s2.605-1.494 3.595-2.558c.987-1.062 1.753-2.31 2.297-3.743.544-1.432.815-2.965.815-4.595s-.271-3.161-.815-4.595-1.31-2.693-2.297-3.78c-.989-1.086-2.187-1.952-3.595-2.594-1.408-.642-2.978-.963-4.706-.963-1.73 0-3.287.322-4.67.963-1.384.643-2.557 1.508-3.521 2.594-.963 1.087-1.717 2.347-2.26 3.78-.544 1.434-.815 2.965-.815 4.595s.271 3.163.815 4.595c.543 1.434 1.297 2.682 2.26 3.743.964 1.063 2.137 1.915 3.521 2.558 1.383.643 2.94.963 4.67.963zM231.013 19.624v33.648h-6.448v-6.003c-.989 2.074-2.509 3.73-4.559 4.965-2.051 1.234-4.483 1.854-7.3 1.854-2.372 0-4.41-.383-6.115-1.148-1.704-.766-3.051-1.841-4.039-3.225-.939-1.284-1.594-2.717-1.964-4.299-.371-1.58-.556-3.557-.556-5.93v-19.862h6.448v17.788c0 1.582.147 3.039.444 4.373.296 1.334.778 2.482 1.445 3.445.667.964 1.531 1.73 2.594 2.298 1.062.569 2.384.853 3.965.853 1.631 0 3.051-.309 4.262-.926 1.211-.618 2.211-1.457 3.002-2.521.79-1.062 1.383-2.285 1.779-3.669.395-1.383.593-2.841.593-4.373v-17.268h6.449zM267.401 47.417c-1.087 2.074-2.705 3.705-4.854 4.891s-4.46 1.779-6.93 1.779c-2.569 0-4.917-.471-7.041-1.408-2.125-.938-3.94-2.224-5.447-3.854-1.508-1.631-2.681-3.508-3.521-5.633-.841-2.125-1.26-4.373-1.26-6.745s.419-4.632 1.26-6.782c.84-2.149 2.013-4.039 3.521-5.669 1.507-1.63 3.322-2.915 5.447-3.854 2.124-.938 4.472-1.408 7.041-1.408 2.47 0 4.78.593 6.93 1.779 2.149 1.186 3.768 2.816 4.854 4.892v-24.014h6.374v51.881h-6.374v-5.855zm-11.413.889c1.729 0 3.298-.32 4.706-.963s2.605-1.494 3.595-2.558c.987-1.062 1.753-2.31 2.297-3.743.544-1.432.815-2.965.815-4.595s-.271-3.161-.815-4.595-1.31-2.693-2.297-3.78c-.989-1.086-2.187-1.952-3.595-2.594-1.408-.642-2.978-.963-4.706-.963-1.73 0-3.287.322-4.67.963-1.384.643-2.557 1.508-3.521 2.594-.963 1.087-1.717 2.347-2.261 3.78s-.814 2.965-.814 4.595.271 3.163.814 4.595c.544 1.434 1.298 2.682 2.261 3.743.964 1.063 2.137 1.915 3.521 2.558 1.383.643 2.94.963 4.67.963zM285.337 1.391h6.448v51.881h-6.448v-51.881zM301.42 6.875c0-1.433.493-2.668 1.481-3.706s2.198-1.557 3.632-1.557c1.433 0 2.668.519 3.706 1.557 1.037 1.038 1.557 2.273 1.557 3.706 0 1.434-.52 2.644-1.557 3.632-1.038.989-2.273 1.482-3.706 1.482-1.434 0-2.644-.494-3.632-1.482-.988-.987-1.481-2.198-1.481-3.632zm1.927 12.749h6.448v33.648h-6.448v-33.648zM335.586 34.521c1.285.396 2.532.814 3.743 1.26 1.21.445 2.285 1.014 3.225 1.705.938.691 1.691 1.557 2.26 2.594.567 1.037.853 2.348.853 3.928 0 1.681-.333 3.15-1 4.41s-1.594 2.311-2.779 3.15c-1.187.84-2.583 1.471-4.188 1.889-1.605.42-3.348.631-5.225.631-1.879 0-3.657-.248-5.336-.741-1.681-.493-3.15-1.247-4.41-2.261-1.26-1.012-2.273-2.285-3.039-3.816-.767-1.531-1.148-3.311-1.148-5.337h6.3c0 2.569.753 4.386 2.261 5.448 1.506 1.062 3.396 1.593 5.67 1.593 2.075 0 3.717-.382 4.928-1.148 1.211-.766 1.816-1.989 1.816-3.669 0-.938-.248-1.691-.741-2.261-.494-.567-1.198-1.075-2.112-1.519-.915-.445-2.038-.854-3.372-1.224s-2.842-.853-4.521-1.445c-1.285-.395-2.482-.815-3.595-1.26-1.111-.444-2.075-1.013-2.891-1.704-.814-.691-1.458-1.531-1.927-2.521-.47-.987-.704-2.247-.704-3.78 0-1.581.321-2.977.964-4.188.642-1.21 1.531-2.224 2.668-3.039 1.136-.815 2.47-1.432 4.002-1.853 1.531-.419 3.162-.63 4.892-.63 1.828 0 3.532.272 5.114.815 1.581.544 2.952 1.323 4.113 2.334 1.16 1.014 2.075 2.212 2.742 3.595.667 1.384 1.001 2.916 1.001 4.595h-6.226c0-1.976-.582-3.495-1.742-4.558-1.161-1.062-2.854-1.593-5.077-1.593-1.778 0-3.261.396-4.446 1.186-1.187.791-1.779 1.953-1.779 3.483 0 .841.21 1.532.63 2.075.42.544 1.05 1.014 1.891 1.408.839.396 1.853.778 3.038 1.149 1.183.372 2.566.805 4.147 1.299zM371.83 53.272c-.643.099-1.495.196-2.558.296s-2.138.148-3.224.148c-1.038 0-2.175-.1-3.409-.296-1.236-.197-2.385-.679-3.446-1.445-1.063-.766-1.953-1.938-2.669-3.521-.717-1.581-1.074-3.754-1.074-6.522v-16.898h-6.226v-5.41h6.226v-11.34h6.448v11.34h8.745v5.41h-8.745v15.44c0 1.626.136 2.918.407 3.879s.654 1.699 1.149 2.217c.493.516 1.074.848 1.741.996s1.42.222 2.261.222h2.335c.863 0 1.543-.074 2.038-.223v5.707zM15.635 0h54.683v7.532h-54.683zM0 0h7.367v7.532h-7.367zM0 23.576h7.367v7.531h-7.367zM0 47.153h7.367v7.531h-7.367zM15.635 23.576h43.549v7.531h-43.549zM15.635 47.153h54.683v7.531h-54.683z"/></svg>