<?xml version="1.0" encoding="utf-8"?>
<!-- Generator: Adobe Illustrator 16.0.0, SVG Export Plug-In . SVG Version: 6.00 Build 0)  -->
<!DOCTYPE svg PUBLIC "-//W3C//DTD SVG 1.1//EN" "http://www.w3.org/Graphics/SVG/1.1/DTD/svg11.dtd">
<svg version="1.1" id="Layer_1" xmlns="http://www.w3.org/2000/svg" xmlns:xlink="http://www.w3.org/1999/xlink" x="0px" y="0px"
	 width="612px" height="792px" viewBox="0 0 612 792" enable-background="new 0 0 612 792" xml:space="preserve">
<path d="M32.768,9.048c-0.147,0.586-0.351,1.133-0.703,1.64c-0.352,0.508-0.752,0.947-1.26,1.317
	c-0.508,0.371-1.069,0.663-1.713,0.878c-0.645,0.215-1.336,0.323-2.088,0.323c-1.027,0-1.943-0.18-2.755-0.539
	c-0.812-0.358-1.5-0.836-2.066-1.434c-0.567-0.597-1-1.293-1.298-2.088c-0.299-0.794-0.447-1.634-0.447-2.519
	c0-0.848,0.146-1.667,0.439-2.456c0.292-0.789,0.713-1.485,1.263-2.088c0.549-0.603,1.215-1.087,1.997-1.452
	c0.782-0.364,1.663-0.547,2.642-0.547c0.907,0,1.713,0.123,2.417,0.368s1.31,0.577,1.818,0.995c0.508,0.418,0.917,0.954,1.227,1.521
	c0.31,0.568,0.525,1.145,0.645,1.88h-1.719c-0.096-0.441-0.257-0.921-0.483-1.315c-0.227-0.395-0.52-0.756-0.878-1.043
	c-0.358-0.287-0.773-0.521-1.245-0.683c-0.472-0.161-1-0.247-1.585-0.247c-0.776,0-1.466,0.138-2.068,0.419
	c-0.604,0.281-1.11,0.656-1.522,1.128s-0.729,1.012-0.949,1.622c-0.221,0.609-0.331,1.243-0.331,1.9c0,0.693,0.113,1.347,0.34,1.962
	c0.227,0.616,0.558,1.156,0.994,1.622c0.436,0.466,0.97,0.837,1.603,1.111c0.632,0.275,1.355,0.413,2.167,0.413
	c0.43,0,0.851-0.065,1.263-0.197c0.412-0.131,0.791-0.316,1.137-0.556c0.346-0.239,0.647-0.492,0.904-0.821
	c0.257-0.328,0.45-0.613,0.582-1.054h1.674V9.048L32.768,9.048z M34.971,0.441h1.47v12.49h-1.47V0.441z M42.574,13.118
	c-0.645,0-1.23-0.114-1.755-0.341c-0.526-0.227-0.974-0.538-1.344-0.932c-0.37-0.395-0.657-0.849-0.859-1.362
	c-0.203-0.515-0.305-1.058-0.305-1.632s0.102-1.12,0.305-1.64c0.203-0.52,0.489-0.977,0.859-1.371
	c0.37-0.395,0.818-0.705,1.344-0.933c0.525-0.227,1.11-0.34,1.755-0.34c0.657,0,1.248,0.114,1.773,0.34
	c0.525,0.227,0.976,0.538,1.352,0.933s0.666,0.852,0.869,1.371c0.203,0.52,0.305,1.066,0.305,1.64s-0.102,1.118-0.305,1.632
	c-0.203,0.514-0.492,0.968-0.869,1.362c-0.376,0.394-0.827,0.705-1.352,0.932C43.822,13.004,43.231,13.118,42.574,13.118z
	 M42.574,11.719c0.418,0,0.797-0.077,1.137-0.233c0.34-0.155,0.63-0.361,0.869-0.619c0.238-0.257,0.423-0.559,0.555-0.905
	c0.131-0.346,0.197-0.717,0.197-1.111s-0.065-0.765-0.197-1.111c-0.132-0.347-0.317-0.651-0.555-0.914
	c-0.239-0.263-0.529-0.472-0.869-0.627c-0.34-0.156-0.719-0.233-1.137-0.233s-0.794,0.078-1.128,0.233s-0.618,0.364-0.851,0.627
	c-0.233,0.263-0.415,0.567-0.546,0.914s-0.197,0.717-0.197,1.111s0.065,0.765,0.197,1.111c0.131,0.347,0.313,0.649,0.546,0.905
	c0.233,0.257,0.516,0.463,0.851,0.619C41.78,11.642,42.156,11.719,42.574,11.719z M55.984,4.849v8.082h-1.617v-1.462
	c-0.294,0.502-0.583,0.902-1.079,1.201c-0.496,0.299-1.072,0.449-1.752,0.449c-0.573,0-1.06-0.093-1.472-0.278
	c-0.412-0.185-0.734-0.445-0.973-0.78c-0.227-0.311-0.381-0.657-0.471-1.04c-0.089-0.382-0.13-0.86-0.13-1.434V4.849h1.469v4.235
	c0,0.383,0.077,0.735,0.149,1.058c0.071,0.323,0.209,0.601,0.37,0.833c0.161,0.233,0.38,0.418,0.637,0.556s0.582,0.206,0.963,0.206
	c0.395,0,0.74-0.075,1.033-0.224c0.292-0.149,0.536-0.353,0.727-0.61c0.191-0.257,0.312-0.553,0.408-0.888
	c0.095-0.334,0.121-0.687,0.121-1.058V4.849H55.984L55.984,4.849z M64.8,11.504c-0.294,0.501-0.671,0.896-1.191,1.183
	c-0.52,0.287-1.087,0.43-1.684,0.43c-0.621,0-1.192-0.114-1.706-0.341c-0.514-0.227-0.955-0.538-1.319-0.932
	c-0.364-0.395-0.649-0.849-0.852-1.362c-0.203-0.514-0.305-1.058-0.305-1.632s0.101-1.12,0.304-1.64
	c0.203-0.52,0.486-0.977,0.851-1.371c0.364-0.395,0.803-0.705,1.316-0.933c0.513-0.227,1.08-0.34,1.701-0.34
	c0.597,0,1.172,0.144,1.692,0.43c0.519,0.287,0.896,0.681,1.191,1.184v-5.74h1.469v12.49H64.8V11.504L64.8,11.504z M62.006,11.719
	c0.418,0,0.797-0.077,1.138-0.233c0.34-0.155,0.629-0.361,0.869-0.619c0.238-0.257,0.423-0.559,0.555-0.905
	c0.132-0.346,0.197-0.717,0.197-1.111s-0.065-0.765-0.197-1.111c-0.131-0.347-0.316-0.651-0.555-0.914
	c-0.239-0.263-0.529-0.472-0.869-0.627c-0.34-0.156-0.72-0.233-1.138-0.233c-0.417,0-0.794,0.078-1.128,0.233
	c-0.334,0.155-0.618,0.364-0.851,0.627c-0.233,0.263-0.415,0.567-0.547,0.914c-0.131,0.347-0.196,0.717-0.196,1.111
	s0.065,0.765,0.196,1.111c0.132,0.347,0.314,0.649,0.547,0.905c0.233,0.257,0.517,0.463,0.851,0.619
	C61.212,11.642,61.589,11.719,62.006,11.719z M69.062,0.441h1.616v12.49h-1.616V0.441z M72.985,1.699
	c0-0.347,0.119-0.645,0.358-0.896c0.239-0.251,0.531-0.376,0.878-0.376c0.346,0,0.645,0.125,0.896,0.376
	c0.25,0.251,0.376,0.55,0.376,0.896c0,0.347-0.125,0.64-0.376,0.878c-0.251,0.239-0.549,0.358-0.896,0.358
	c-0.347,0-0.639-0.119-0.878-0.358C73.104,2.338,72.985,2.045,72.985,1.699L72.985,1.699z M73.469,4.849h1.47v8.082h-1.47V4.849z
	 M81.242,8.385c0.311,0.096,0.612,0.197,0.904,0.305c0.292,0.107,0.552,0.245,0.779,0.413c0.227,0.167,0.409,0.376,0.546,0.627
	c0.137,0.25,0.206,0.567,0.206,0.95c0,0.407-0.081,0.762-0.242,1.067c-0.162,0.305-0.385,0.559-0.671,0.762
	c-0.287,0.203-0.624,0.356-1.012,0.457c-0.388,0.102-0.809,0.152-1.263,0.152s-0.884-0.06-1.29-0.179
	c-0.406-0.119-0.761-0.301-1.065-0.547c-0.305-0.245-0.549-0.499-0.734-0.869c-0.186-0.37-0.277-0.796-0.277-1.237h1.522
	c0,0.588,0.182,1.007,0.547,1.264c0.364,0.256,0.82,0.358,1.37,0.358c0.501,0,0.898-0.105,1.19-0.291
	c0.293-0.185,0.439-0.488,0.439-0.894c0-0.227-0.06-0.413-0.179-0.55c-0.12-0.137-0.29-0.262-0.51-0.369s-0.493-0.207-0.815-0.297
	C80.365,9.417,80,9.3,79.594,9.156c-0.31-0.096-0.599-0.197-0.868-0.305c-0.269-0.107-0.501-0.245-0.699-0.413
	c-0.197-0.167-0.352-0.37-0.465-0.609c-0.113-0.239-0.17-0.543-0.17-0.915c0-0.382,0.077-0.72,0.233-1.013
	c0.155-0.292,0.37-0.538,0.645-0.735c0.274-0.197,0.597-0.346,0.967-0.448S80,4.567,80.418,4.567c0.442,0,0.854,0.065,1.236,0.197
	c0.382,0.132,0.713,0.32,0.994,0.564c0.28,0.245,0.501,0.554,0.663,0.888c0.161,0.335,0.242,0.69,0.242,1.13h-1.504
	c0-0.44-0.141-0.864-0.421-1.121c-0.281-0.257-0.689-0.395-1.227-0.395c-0.43,0-0.788,0.091-1.075,0.282
	c-0.287,0.191-0.43,0.47-0.43,0.84c0,0.204,0.051,0.37,0.152,0.501c0.101,0.132,0.254,0.245,0.457,0.34
	c0.203,0.096,0.448,0.188,0.734,0.277C80.525,8.161,80.86,8.266,81.242,8.385z M90,12.931c-0.155,0.147-0.361,0.042-0.618,0.066
	c-0.257,0.024-0.517,0.033-0.779,0.033c-0.25,0-0.525-0.025-0.824-0.073c-0.299-0.048-0.576-0.165-0.833-0.35
	c-0.257-0.186-0.439-0.469-0.613-0.852c-0.173-0.382-0.228-0.908-0.228-1.578V6.171H84.49V4.849h1.616V2.057h1.47v2.792h2.204v1.322
	h-2.204v3.654c0,0.393,0.045,0.706,0.11,0.938s0.164,0.411,0.284,0.536c0.119,0.125,0.263,0.212,0.424,0.248
	c0.162,0.036,0.346,0.061,0.549,0.061h0.564c0.208,0,0.419-0.032,0.419-0.068v1.391H90L90,12.931z M3.82,0h13.225v1.763H3.82V0z
	 M0,0h1.91v1.763H0V0z M0,5.73h1.91v1.763H0V5.73z M0,11.314h1.91v1.91H0V11.314z M3.82,5.73H14.4v1.763H3.82V5.73z M3.82,11.314
	h13.225v1.91H3.82V11.314z"/>
</svg>
