<svg xmlns="http://www.w3.org/2000/svg" viewBox="0 0 612 90.006"><path d="M222.985 61.332c-1.058 3.986-2.786 7.706-5.185 11.16-2.4 3.46-5.328 6.446-8.782 8.966-3.458 2.523-7.38 4.515-11.772 5.98-4.39 1.464-9.15 2.196-14.27 2.196-6.996 0-13.257-1.223-18.788-3.662-5.53-2.44-10.228-5.69-14.09-9.76-3.864-4.064-6.81-8.804-8.844-14.213-2.034-5.405-3.05-11.119-3.05-17.14 0-5.773.994-11.344 2.99-16.71 1.99-5.37 4.858-10.105 8.6-14.212 3.738-4.106 8.273-7.4 13.6-9.88 5.326-2.48 11.326-3.722 17.996-3.722 6.18 0 11.668.834 16.468 2.502 4.798 1.667 8.924 3.924 12.382 6.77 3.457 2.848 6.242 6.204 8.356 10.065 2.113 3.863 3.578 8.032 4.39 12.504h-11.71c-.65-3.09-1.75-5.978-3.292-8.66-1.545-2.684-3.537-5.003-5.978-6.955-2.44-1.952-5.267-3.476-8.478-4.574-3.214-1.098-6.812-1.646-10.797-1.646-5.288 0-9.985.956-14.09 2.867-4.108 1.912-7.563 4.473-10.37 7.684-2.806 3.213-4.96 6.893-6.464 11.04-1.506 4.148-2.256 8.46-2.256 12.93 0 4.718.772 9.17 2.317 13.358 1.544 4.189 3.8 7.87 6.77 11.04 2.968 3.172 6.607 5.692 10.917 7.562 4.31 1.873 9.23 2.807 14.76 2.807 2.927 0 5.794-.444 8.6-1.341 2.806-.894 5.385-2.153 7.746-3.781 2.36-1.625 4.41-3.557 6.16-5.794 1.75-2.236 3.07-4.697 3.966-7.381h12.2v-.002h-.002zm14.272-59.042h10.613v85.392h-10.613v-85.392zm51.722 86.732c-4.394 0-8.378-.774-11.957-2.317-3.58-1.544-6.63-3.659-9.15-6.343-2.52-2.685-4.473-5.773-5.855-9.27-1.384-3.5-2.074-7.198-2.074-11.104s.69-7.625 2.074-11.164c1.38-3.537 3.333-6.647 5.856-9.33 2.52-2.684 5.57-4.8 9.15-6.344 3.576-1.544 7.562-2.317 11.955-2.317 4.47 0 8.495.773 12.075 2.317 3.578 1.545 6.647 3.66 9.21 6.343 2.563 2.685 4.533 5.794 5.918 9.33 1.382 3.54 2.073 7.26 2.073 11.164s-.689 7.604-2.073 11.101c-1.385 3.498-3.354 6.588-5.917 9.271-2.562 2.683-5.633 4.8-9.209 6.343-3.58 1.544-7.604 2.317-12.077 2.317l.001.003zm0-9.515c2.845 0 5.427-.526 7.745-1.585 2.318-1.061 4.288-2.46 5.917-4.21 1.624-1.748 2.885-3.804 3.78-6.16.896-2.357 1.342-4.88 1.342-7.563 0-2.685-.445-5.204-1.342-7.563-.895-2.36-2.156-4.434-3.78-6.223-1.628-1.787-3.6-3.212-5.917-4.27-2.317-1.056-4.9-1.584-7.746-1.584-2.848 0-5.41.53-7.688 1.585-2.278 1.058-4.208 2.482-5.795 4.27-1.585 1.788-2.826 3.862-3.72 6.221-.896 2.359-1.342 4.88-1.342 7.563s.446 5.205 1.342 7.561c.894 2.359 2.135 4.415 3.72 6.161 1.586 1.75 3.517 3.15 5.795 4.211 2.277 1.06 4.84 1.585 7.687 1.585l.002.001zm91.248-47.207v55.38h-10.612v-9.88c-1.628 3.414-4.13 6.14-7.503 8.172-3.376 2.03-7.38 3.052-12.017 3.052-3.903 0-7.26-.63-10.063-1.89-2.806-1.261-5.022-3.03-6.648-5.309-1.545-2.112-2.623-4.472-3.231-7.076-.61-2.6-.915-5.854-.915-9.76v-32.689h10.612v29.276c0 2.604.24 5.002.73 7.197.487 2.196 1.28 4.086 2.378 5.67 1.098 1.587 2.52 2.848 4.27 3.783 1.748.937 3.925 1.403 6.526 1.403 2.685 0 5.021-.511 7.015-1.524 1.992-1.019 3.641-2.398 4.94-4.15 1.3-1.747 2.276-3.76 2.928-6.038.65-2.275.978-4.676.978-7.196v-28.421h10.612zm59.89 45.743c-1.788 3.413-4.45 6.099-7.988 8.051s-7.34 2.928-11.406 2.928c-4.229 0-8.093-.774-11.59-2.317-3.497-1.544-6.483-3.659-8.965-6.343-2.482-2.685-4.413-5.773-5.796-9.27-1.384-3.5-2.074-7.198-2.074-11.104s.69-7.625 2.074-11.164c1.383-3.537 3.312-6.647 5.795-9.33 2.48-2.684 5.467-4.8 8.965-6.344 3.496-1.544 7.36-2.317 11.59-2.317 4.064 0 7.866.976 11.405 2.928 3.537 1.952 6.2 4.635 7.99 8.052v-39.523h10.49v85.392h-10.49v-9.639zm-18.784 1.464c2.846 0 5.43-.526 7.746-1.585 2.315-1.06 4.287-2.46 5.917-4.21 1.624-1.748 2.885-3.804 3.78-6.16.896-2.357 1.342-4.88 1.342-7.563 0-2.685-.447-5.204-1.343-7.563-.896-2.36-2.156-4.434-3.78-6.223-1.628-1.787-3.601-3.212-5.917-4.27-2.317-1.058-4.9-1.584-7.746-1.584-2.848 0-5.41.53-7.688 1.585-2.276 1.058-4.207 2.482-5.795 4.27-1.585 1.788-2.825 3.862-3.722 6.221-.896 2.357-1.34 4.88-1.34 7.563s.446 5.205 1.34 7.561c.896 2.359 2.137 4.415 3.722 6.161 1.588 1.75 3.519 3.15 5.795 4.211 2.277 1.06 4.841 1.585 7.688 1.585l.001.001zm48.307-77.217h10.613v85.392h-10.613v-85.392zm26.47 9.025c0-2.358.812-4.39 2.439-6.1s3.617-2.563 5.978-2.563c2.359 0 4.392.854 6.1 2.563 1.707 1.708 2.563 3.74 2.563 6.1s-.856 4.352-2.562 5.978c-1.71 1.628-3.74 2.44-6.1 2.44-2.36 0-4.354-.814-5.98-2.44-1.625-1.624-2.437-3.617-2.438-5.978zm3.173 20.984h10.611v55.38h-10.611v-55.38zm53.063 24.52c2.115.65 4.167 1.34 6.16 2.072 1.992.731 3.762 1.67 5.311 2.807 1.543 1.136 2.781 2.561 3.72 4.271.932 1.706 1.401 3.862 1.401 6.464 0 2.767-.548 5.185-1.646 7.26-1.098 2.072-2.623 3.803-4.574 5.184-1.953 1.384-4.25 2.421-6.893 3.11-2.643.69-5.511 1.037-8.601 1.037-3.093 0-6.02-.408-8.782-1.22-2.768-.812-5.186-2.053-7.261-3.723-2.071-1.665-3.739-3.76-5-6.279-1.26-2.521-1.89-5.45-1.89-8.784h10.37c0 4.228 1.238 7.218 3.72 8.966 2.48 1.748 5.59 2.622 9.333 2.622 3.415 0 6.117-.63 8.11-1.89 1.994-1.261 2.989-3.273 2.989-6.04 0-1.543-.409-2.782-1.22-3.721-.812-.934-1.973-1.77-3.477-2.5-1.506-.732-3.354-1.405-5.55-2.016-2.196-.608-4.679-1.403-7.44-2.378-2.116-.65-4.086-1.342-5.918-2.074-1.83-.729-3.416-1.667-4.76-2.805-1.341-1.137-2.398-2.521-3.17-4.148-.774-1.625-1.16-3.7-1.16-6.222 0-2.603.53-4.9 1.588-6.894 1.057-1.99 2.52-3.66 4.39-5 1.87-1.342 4.066-2.358 6.588-3.05 2.521-.69 5.205-1.038 8.053-1.038 3.01 0 5.812.447 8.418 1.34 2.602.897 4.857 2.178 6.77 3.842 1.91 1.67 3.415 3.64 4.514 5.917 1.097 2.28 1.646 4.8 1.646 7.563h-10.245c0-3.252-.958-5.752-2.867-7.502-1.909-1.748-4.696-2.622-8.355-2.622-2.927 0-5.367.652-7.317 1.952-1.954 1.302-2.93 3.214-2.93 5.732 0 1.385.347 2.52 1.038 3.416.689.896 1.729 1.67 3.111 2.316 1.381.65 3.051 1.28 5 1.891 1.947.616 4.223 1.329 6.826 2.144zm59.654 30.861c-1.06.164-2.46.322-4.21.487-1.75.164-3.521.243-5.307.243-1.71 0-3.58-.163-5.61-.485-2.035-.324-3.926-1.117-5.673-2.378-1.75-1.261-3.214-3.19-4.394-5.797-1.18-2.602-1.768-6.18-1.768-10.733v-27.813h-10.25v-8.904h10.25v-18.665h10.61v18.665h14.395v8.904h-14.393v25.413c0 2.676.226 4.804.67 6.386.446 1.579 1.078 2.796 1.893 3.647.812.85 1.769 1.396 2.865 1.64 1.098.243 2.337.365 3.722.365h3.843c1.42 0 2.54-.122 3.354-.367v9.395h.003v-.003zm-586.266-87.68h90.003v12.397h-90.003v-12.397zm-25.734 0h12.125v12.397h-12.125v-12.397zm0 38.804h12.125v12.396h-12.125v-12.396zm0 38.806h12.125v12.396h-12.125v-12.396zm25.734-38.806h71.678v12.396h-71.678v-12.396zm0 38.806h90.003v12.396h-90.003v-12.396z"/></svg>
