<svg xmlns="http://www.w3.org/2000/svg" viewBox="0 0 612.5 90"><path d="M222.5 61.08c-1 3.987-2.383 7.707-4.779 11.162-2.397 3.46-5.123 6.446-8.574 8.965-3.456 2.523-7.274 4.514-11.662 5.979-4.388 1.465-9.092 2.197-14.21 2.197-6.989 0-13.22-1.222-18.746-3.663-5.526-2.439-10.207-5.69-14.065-9.759-3.862-4.065-6.801-8.804-8.832-14.213-2.033-5.407-3.044-11.12-3.044-17.14 0-5.774.995-11.346 2.988-16.713 1.99-5.368 4.855-10.105 8.594-14.211 3.736-4.107 8.268-7.4 13.591-9.881 5.32-2.48 11.315-3.722 17.979-3.722 6.174 0 11.658.834 16.454 2.502 4.794 1.668 8.917 3.924 12.372 6.77 3.454 2.848 6.236 6.493 8.35 10.354 2.111 3.864 3.575 7.794 4.387 12.794h-11.701c-.651-3-1.748-6.267-3.291-8.95-1.544-2.684-3.534-5.147-5.973-7.099-2.437-1.952-5.263-3.549-8.471-4.647-3.212-1.098-6.807-1.681-10.789-1.681-5.282 0-9.976.938-14.078 2.85-4.105 1.913-7.557 4.464-10.36 7.676-2.805 3.213-4.958 6.889-6.46 11.037-1.504 4.147-2.254 8.457-2.254 12.929 0 4.718.771 9.169 2.315 13.356 1.543 4.191 3.797 7.869 6.764 11.04 2.965 3.172 6.602 5.694 10.909 7.564 4.305 1.873 9.221 2.806 14.748 2.806 2.924 0 5.789-.445 8.593-1.341 2.804-.894 5.381-2.155 7.739-3.783 2.357-1.625 4.407-3.346 6.155-5.585 1.747-2.236 3.065-4.171 3.962-7.171h11.389v-.422zm15-58.58h10v85h-10v-85zm51.743 86.272c-4.389 0-8.371-.774-11.946-2.317-3.577-1.544-6.624-3.661-9.142-6.343-2.519-2.685-4.47-5.775-5.851-9.272-1.383-3.499-2.072-7.198-2.072-11.103 0-3.904.689-7.625 2.072-11.164 1.38-3.537 3.331-6.648 5.851-9.331 2.518-2.683 5.565-4.798 9.142-6.344 3.574-1.544 7.557-2.317 11.946-2.317 4.469 0 8.489.773 12.066 2.317 3.575 1.545 6.642 3.661 9.203 6.344 2.561 2.685 4.528 5.796 5.912 9.331 1.381 3.539 2.072 7.259 2.072 11.164 0 3.905-.691 7.604-2.072 11.103-1.384 3.497-3.352 6.587-5.912 9.272-2.562 2.683-5.628 4.799-9.203 6.343-3.577 1.544-7.597 2.317-12.066 2.317zm0-9.515c2.843 0 5.424-.526 7.739-1.585 2.316-1.059 4.284-2.459 5.913-4.21 1.623-1.748 2.882-3.803 3.777-6.162.896-2.356 1.341-4.88 1.341-7.563 0-2.684-.445-5.203-1.341-7.564-.895-2.36-2.154-4.433-3.777-6.222-1.626-1.788-3.597-3.213-5.913-4.27-2.315-1.057-4.897-1.585-7.739-1.585-2.845 0-5.406.53-7.68 1.585-2.276 1.058-4.205 2.482-5.79 4.27-1.584 1.789-2.824 3.863-3.717 6.222-.895 2.361-1.341 4.88-1.341 7.564 0 2.683.446 5.207 1.341 7.563.893 2.361 2.133 4.415 3.717 6.162 1.585 1.749 3.514 3.151 5.79 4.21 2.274 1.058 4.835 1.585 7.68 1.585zm91.257-46.757v55h-11v-9.951c-2 3.415-3.971 6.14-7.34 8.172-3.375 2.032-7.296 3.052-11.929 3.052-3.901 0-7.214-.63-10.018-1.89-2.802-1.261-4.998-3.031-6.623-5.308-1.544-2.113-2.594-4.472-3.202-7.077-.61-2.601-.889-5.855-.889-9.76v-32.238h10v28.825c0 2.604.526 5.002 1.015 7.197.488 2.197 1.423 4.086 2.52 5.671 1.097 1.586 2.589 2.847 4.337 3.783 1.746.937 3.957 1.403 6.558 1.403 2.683 0 5.035-.508 7.026-1.523 1.991-1.018 3.645-2.399 4.945-4.15 1.299-1.748 2.124-3.761 2.774-6.04.65-2.276.825-4.676.825-7.198v-27.968h11.001zm60 45.294c-2 3.413-4.568 6.098-8.104 8.05-3.533 1.953-7.395 2.928-11.457 2.928-4.226 0-8.115-.774-11.608-2.317-3.496-1.544-6.496-3.661-8.975-6.343-2.479-2.685-4.415-5.775-5.797-9.272-1.383-3.499-2.076-7.198-2.076-11.103 0-3.904.688-7.625 2.07-11.164 1.382-3.537 3.31-6.648 5.789-9.331 2.479-2.683 5.464-4.798 8.959-6.344 3.493-1.544 7.353-2.317 11.578-2.317 4.062 0 7.98.976 11.517 2.928 3.534 1.952 6.104 4.635 8.104 8.052v-39.061h10v85h-10v-9.706zm-19.011 1.463c2.844 0 5.425-.526 7.74-1.585 2.315-1.059 4.283-2.459 5.912-4.21 1.623-1.748 2.883-3.803 3.777-6.162.895-2.356 1.341-4.88 1.341-7.563 0-2.684-.446-5.203-1.341-7.564-.895-2.36-2.154-4.433-3.777-6.222-1.627-1.788-3.597-3.213-5.912-4.27s-4.897-1.585-7.74-1.585c-2.845 0-5.405.53-7.68 1.585-2.275 1.058-4.205 2.482-5.79 4.27-1.584 1.789-2.824 3.863-3.719 6.222-.895 2.359-1.339 4.88-1.339 7.564 0 2.683.446 5.207 1.339 7.563.895 2.361 2.135 4.415 3.719 6.162 1.585 1.749 3.515 3.151 5.79 4.21 2.275 1.058 4.836 1.585 7.68 1.585zm48.011-76.757h11v85h-11v-85zm26.706 8.561c0-2.358.811-4.391 2.436-6.1 1.624-1.709 3.615-2.563 5.973-2.563s4.388.854 6.096 2.563c1.704 1.708 2.561 3.741 2.561 6.1 0 2.361-.856 4.353-2.561 5.979-1.708 1.628-3.738 2.439-6.096 2.439s-4.349-.813-5.973-2.439c-1.625-1.625-2.436-3.619-2.436-5.979zm3.294 21.439h10v55h-10v-55zm52.895 24.067c2.113.651 4.163 1.34 6.155 2.073 1.99.732 3.759 1.669 5.304 2.807 1.543 1.137 2.781 2.562 3.717 4.27.932 1.707 1.402 3.864 1.402 6.465 0 2.767-.548 5.185-1.645 7.259-1.097 2.073-2.62 3.804-4.57 5.185-1.951 1.383-4.247 2.421-6.887 3.11-2.64.69-5.506 1.038-8.593 1.038-3.09 0-6.015-.408-8.776-1.22-2.764-.812-5.18-2.052-7.252-3.722-2.072-1.665-3.737-3.394-4.998-5.914-1.261-2.52-1.888-5.418-1.888-8.418h10.361c0 4 1.238 6.853 3.718 8.601 2.477 1.748 5.585 2.439 9.325 2.439 3.412 0 6.112-.721 8.104-1.981 1.992-1.261 2.986-3.32 2.986-6.086 0-1.544-.407-2.806-1.219-3.744-.812-.934-1.97-1.781-3.473-2.512-1.504-.732-3.352-1.411-5.545-2.021-2.194-.608-4.674-1.406-7.436-2.381-2.113-.651-4.081-1.344-5.912-2.076-1.827-.73-3.413-1.668-4.755-2.806-1.339-1.137-2.397-2.52-3.169-4.149-.773-1.625-1.157-3.699-1.157-6.222 0-2.603.527-4.901 1.585-6.894 1.057-1.991 2.518-3.661 4.388-5.002 1.868-1.341 4.062-2.357 6.581-3.05 2.519-.689 5.201-1.037 8.046-1.037 3.006 0 5.809.447 8.41 1.341 2.6.896 4.854 2.177 6.765 3.841 1.907 1.669 3.412 3.77 4.509 6.046 1.097 2.278 1.646 4.692 1.646 7.692h-10.239c0-3-.957-5.881-2.864-7.631-1.91-1.748-4.693-2.687-8.35-2.687-2.925 0-5.363.62-7.312 1.92-1.953 1.303-2.927 3.199-2.927 5.717 0 1.385.346 2.514 1.036 3.408.691.896 1.728 1.665 3.11 2.313 1.38.651 3.047 1.279 4.996 1.889 1.948.614 4.222 1.325 6.823 2.139zm59.605 30.933c-1.058 1-2.459.288-4.207.453-1.748.164-3.517.226-5.302.226-1.708 0-3.577-.172-5.606-.496-2.033-.324-3.922-1.122-5.668-2.383-1.747-1.261-2.991-3.192-4.17-5.798-1.179-2.602-1.547-6.182-1.547-10.738v-27.264h-11v-9h11v-19h10v19h15v9h-15v24.865c0 2.676.308 4.803.752 6.385.446 1.581 1.117 2.796 1.932 3.648.811.85 1.787 1.443 2.884 1.688 1.097.243 2.355.413 3.739.413h3.84c1.42 0 2.854-.218 2.854-.463v9.464h.499zm-586.5-88h90v12h-90v-12zm-26 0h13v12h-13v-12zm0 39h13v12h-13v-12zm0 38h13v13h-13v-13zm26-38h72v12h-72v-12zm0 38h90v13h-90v-13z"/></svg>
