<svg xmlns="http://www.w3.org/2000/svg" viewBox="0 0 485.569 548.291"><path d="M454.84 196.121h-13.164v-63.531c0-.399-.064-.795-.115-1.2-.021-2.52-.824-5-2.551-6.96l-105.713-120.753-.086-.075c-.629-.707-1.363-1.292-2.141-1.796-.23-.157-.463-.286-.705-.419-.672-.365-1.385-.672-2.119-.893l-.576-.188c-.8-.188-1.628-.306-2.466-.306h-259.807c-11.864 0-21.501 9.649-21.501 21.502v174.613h-13.163c-16.972 0-30.733 13.756-30.733 30.73v159.811c0 16.966 13.761 30.735 30.733 30.735h13.163v109.399c0 11.854 9.637 21.501 21.501 21.501h354.777c11.854 0 21.502-9.647 21.502-21.501v-109.398h13.164c16.967 0 30.729-13.764 30.729-30.73v-159.81c.002-16.98-13.762-30.731-30.729-30.731zm-389.443-174.619h249.053v110.006c0 5.94 4.818 10.751 10.752 10.751h94.973v53.861h-354.778v-174.618zm161.861 291.679c-26.68-9.291-44.063-24.054-44.063-47.39 0-27.404 22.861-48.368 60.732-48.368 18.107 0 31.448 3.811 40.969 8.107l-8.09 29.3c-6.431-3.107-17.863-7.632-33.591-7.632-15.717 0-23.339 7.149-23.339 15.485 0 10.247 9.047 14.769 29.78 22.632 28.341 10.479 41.681 25.238 41.681 47.873 0 26.91-20.721 49.787-64.792 49.787-18.338 0-36.449-4.776-45.497-9.771l7.38-30.017c9.772 5.015 24.775 10.006 40.264 10.006 16.671 0 25.488-6.907 25.488-17.396-.004-10.008-7.631-15.719-26.922-22.616zm-189.144-10.489c0-54.781 39.074-85.27 87.654-85.27 18.822 0 33.113 3.811 39.549 7.149l-7.392 28.816c-7.38-3.084-17.632-5.939-30.491-5.939-28.822 0-51.206 17.375-51.206 53.099 0 32.158 19.051 52.4 51.456 52.4 10.947 0 23.097-2.379 30.241-5.238l5.483 28.346c-6.672 3.34-21.674 6.92-41.208 6.92-55.5.001-84.086-34.551-84.086-80.283zm382.06 218.27h-354.777v-103.57h354.777v103.57zm-24.015-140.379h-42.399l-51.451-160.536h39.787l19.527 67.894c5.479 19.047 10.479 37.387 14.299 57.397h.709c4.047-19.298 9.045-38.353 14.525-56.692l20.486-68.599h38.6l-54.083 160.536z"/></svg>
