<svg xmlns="http://www.w3.org/2000/svg" viewBox="0 0 542.305 542.305"><path d="M397.902 382.014c0-7.532-3.531-13.534-10.592-18.006-45.428-27.068-98.034-40.602-157.819-40.602-31.305 0-65.081 4.001-101.329 12.004-9.886 2.119-14.829 8.238-14.829 18.359 0 4.708 1.589 8.768 4.767 12.181s7.355 5.12 12.534 5.12c1.177 0 5.531-.942 13.063-2.825 31.069-6.355 59.667-9.533 85.794-9.533 53.195 0 99.917 12.122 140.166 36.366 4.473 2.589 8.356 3.883 11.651 3.883 4.472 0 8.356-1.588 11.651-4.766s4.943-7.238 4.943-12.181zm33.894-75.909c0-9.415-4.119-16.594-12.357-21.537-55.784-33.188-120.277-49.782-193.479-49.782-36.013 0-71.672 4.943-106.978 14.829-11.298 3.06-16.947 10.592-16.947 22.596 0 5.885 2.06 10.886 6.179 15.005s9.121 6.179 15.005 6.179c1.648 0 6.002-.942 13.063-2.825 28.716-7.767 58.255-11.651 88.619-11.651 65.67 0 123.102 14.593 172.295 43.78 5.649 3.06 10.121 4.59 13.417 4.59 5.884 0 10.886-2.06 15.005-6.179s6.178-9.12 6.178-15.005zm38.131-87.559c0-11.062-4.708-19.301-14.123-24.714-29.657-17.183-64.14-30.187-103.447-39.013-39.308-8.827-79.675-13.24-121.101-13.24-48.017 0-90.855 5.532-128.515 16.594-5.414 1.647-9.945 4.649-13.593 9.003-3.648 4.354-5.473 10.062-5.473 17.124 0 7.297 2.413 13.417 7.238 18.359 4.826 4.943 10.886 7.414 18.183 7.414 2.589 0 7.296-.941 14.122-2.824 31.305-8.709 67.435-13.063 108.391-13.063 37.425 0 73.849 4.001 109.273 12.004 35.424 8.002 65.258 19.183 89.501 33.541 4.943 2.824 9.65 4.237 14.123 4.237 6.826 0 12.769-2.413 17.83-7.238 5.06-4.827 7.591-10.887 7.591-18.184zm72.378 52.606c0 49.193-12.122 94.562-36.365 136.106-24.244 41.543-57.138 74.437-98.681 98.681-41.544 24.244-86.913 36.365-136.106 36.365s-94.562-12.122-136.106-36.365c-41.543-24.244-74.438-57.138-98.681-98.681-24.244-41.544-36.366-86.912-36.366-136.106s12.122-94.562 36.365-136.105c24.244-41.544 57.138-74.438 98.681-98.682 41.544-24.243 86.913-36.365 136.106-36.365s94.562 12.122 136.106 36.365c41.543 24.244 74.437 57.138 98.681 98.682 24.244 41.543 36.366 86.912 36.366 136.105z"/></svg>
