<svg xmlns="http://www.w3.org/2000/svg" viewBox="0 0 466.889 535.753"><g transform="translate(0 -952.362)"><path d="M343.546 969.565c-84.38.344-126.38 66.532-197.44 67.703-43.92.004-85.316-18.967-111.957-51.314-3.928-5.002-11.475-1.77-11.51 2.876-.608 85.696-.048 172.536-.036 245.938 0 1.242.38 2.562 1.483 3.842 29.028 35.247 74.16 55.933 122.02 55.928 81.296-1.348 117.334-66.542 197.433-67.704 45.502.004 85.31 18.99 111.942 51.342 1.242 1.555 3.23 2.44 5.317 2.37 3.793-.13 6.095-3.138 6.087-6.228-.22-85.245-.02-171.86 0-244.84 0-1.348-.31-2.743-1.342-3.96-29.02-35.252-68.553-55.43-122.003-55.955l.004.002zM4.57 972.243v6H1.523v509.873h15.235v-177.134h-.023v-332.74h-3.023v-6H4.57z"/><circle cx="9.141" cy="961.504" r="9.141"/></g></svg>
