<svg xmlns="http://www.w3.org/2000/svg" viewBox="0 0 528.162 486.314"><path d="M0 160.99v164.114h115.127l108.81 87.785v-336.523l-108.81 84.624h-115.127zm193.906-24.836v216.576l-67.147-57.655h-97.103v-104.517h97.102l67.148-54.404zM450.084 0l-25.447 19.013c45.176 60.743 71.957 143.141 71.957 224.599s-26.787 162.964-71.957 223.694l25.447 19.008c49.039-65.987 78.078-154.059 78.078-242.708 0-88.648-29.039-177.619-78.078-243.606zM376.74 429.28c37.312-50.176 59.707-118.39 59.707-185.674s-22.394-136.384-59.707-186.56l-25.275 18.888c33.383 44.89 53.42 107.478 53.42 167.678s-20.02 121.884-53.42 166.786l25.275 18.882zM303.842 372.622c25.537-34.342 40.861-82.965 40.861-129.016s-15.324-95.578-40.861-129.902l-25.275 18.888c21.609 29.05 34.568 72.053 34.568 111.014 0 38.968-12.959 81.077-34.568 110.127l25.275 18.889z"/></svg>