<svg xmlns="http://www.w3.org/2000/svg" style="display:none"><symbol id="icon-audio-paused" viewBox="0 0 73.784 58.753"><path d="M0 41.23h15.62l16.973 15.708V1.815l-16.655 15.71H0z"/></symbol><symbol id="icon-audio-playing" viewBox="0 0 73.784 58.753"><path d="M44.848 16.743l-4.213 4.212c2.17 2.148 3.514 5.127 3.514 8.42s-1.345 6.274-3.515 8.422l4.213 4.213c3.23-3.235 5.23-7.7 5.23-12.634 0-4.932-2-9.397-5.23-12.633zM61.93 29.377c0-8.204-3.334-15.63-8.72-20.995l-4.17 4.17C53.34 16.86 56 22.807 56 29.376S53.342 41.893 49.04 46.2l4.17 4.17c5.386-5.364 8.72-12.79 8.72-20.993zm11.854 0C73.784 17.9 69.122 7.51 61.592 0L57.4 4.19c6.46 6.44 10.456 15.346 10.456 25.187 0 9.84-3.996 18.747-10.456 25.186l4.19 4.19c7.532-7.51 12.194-17.9 12.194-29.376zM0 41.23h15.62l16.973 15.708V1.815l-16.655 15.71H0z"/></symbol><symbol id="icon-caret-asc" viewBox="0 0 612 306"><path d="M306 306L612 0H0l306 306z"/></symbol><symbol id="icon-caret-desc" viewBox="0 0 586.666 293.333"><path d="M293.333 0L0 293.333h586.666L293.333 0z"/></symbol><symbol id="icon-outline-audio-paused" viewBox="0 0 528.162 486.314"><path d="M0 160.99v164.114h115.127l108.81 87.785V76.365l-108.81 84.624H0zm193.906-24.836V352.73l-67.147-57.655H29.655V190.558h97.102l67.148-54.404z"/></symbol><symbol id="icon-outline-audio-playing" viewBox="0 0 528.162 486.314"><path d="M0 160.99v164.114h115.127l108.81 87.785V76.365l-108.81 84.624H0zm193.906-24.836V352.73l-67.147-57.655H29.655V190.558h97.102l67.148-54.404zM450.084 0l-25.447 19.013c45.176 60.743 71.957 143.14 71.957 224.6s-26.787 162.963-71.957 223.693l25.447 19.008c49.04-65.987 78.078-154.06 78.078-242.708S499.122 65.986 450.084 0zM376.74 429.28c37.312-50.176 59.707-118.39 59.707-185.674s-22.394-136.384-59.707-186.56l-25.275 18.888c33.383 44.89 53.42 107.478 53.42 167.678s-20.02 121.884-53.42 166.786l25.275 18.882zm-72.898-56.658c25.537-34.342 40.86-82.965 40.86-129.016s-15.323-95.578-40.86-129.902l-25.275 18.888c21.61 29.05 34.568 72.053 34.568 111.014 0 38.968-12.96 81.077-34.568 110.127l25.275 18.89z"/></symbol></svg>