<svg xmlns="http://www.w3.org/2000/svg" viewBox="0 0 224.845 32.059"><path d="M19.367 19.19c-.556 4.92-2.562 7.38-6.017 7.38-2.108 0-3.842-.9-5.204-2.702-1.362-1.8-2.042-4.574-2.042-8.322 0-3.19.703-5.666 2.108-7.422C9.618 6.367 11.33 5.49 13.35 5.49c1.786 0 3.162.592 4.128 1.778.966 1.186 1.58 2.715 1.844 4.59l5.885-.923c-.35-3.338-1.632-5.995-3.843-7.97C19.154.987 16.468 0 13.306 0 9.676 0 6.55 1.376 3.93 4.128 1.31 6.88 0 10.686 0 15.546c0 5.534 1.237 9.668 3.71 12.407 2.475 2.736 5.688 4.105 9.64 4.105 3.396 0 6.148-1.025 8.256-3.074s3.41-4.86 3.91-8.432l-6.15-1.36zM30.57 31.4h18.62v-5.49H36.5V.66h-5.93V31.4zM64.083 26.613c-2.108 0-3.835-.87-5.182-2.613s-2.02-4.486-2.02-8.234c0-3.337.69-5.885 2.065-7.64 1.376-1.758 3.09-2.636 5.138-2.636 2.02 0 3.726.878 5.116 2.635 1.39 1.756 2.085 4.304 2.085 7.64 0 3.808-.673 6.566-2.02 8.28-1.347 1.712-3.074 2.568-5.182 2.568zm0 5.446c1.756 0 3.41-.31 4.962-.923 1.552-.615 2.964-1.545 4.238-2.79 1.274-1.243 2.284-2.94 3.03-5.093.747-2.152 1.12-4.648 1.12-7.488 0-2.547-.374-4.845-1.12-6.895-.747-2.05-1.756-3.71-3.03-4.983-1.273-1.274-2.693-2.24-4.26-2.9S65.81 0 64.083 0c-1.728 0-3.375.33-4.94.988-1.566.66-2.986 1.625-4.26 2.9C53.61 5.16 52.6 6.82 51.853 8.87c-.747 2.05-1.12 4.35-1.12 6.896 0 2.84.373 5.336 1.12 7.488.747 2.15 1.757 3.85 3.03 5.094 1.274 1.244 2.687 2.174 4.238 2.79 1.552.613 3.207.92 4.963.92zM82.05 21.387c0 3.455 1.047 6.098 3.14 7.928s4.897 2.744 8.41 2.744 6.324-.916 8.432-2.745c2.108-1.83 3.162-4.473 3.162-7.928V.66h-5.93v20.55c0 1.642-.482 2.944-1.448 3.91s-2.372 1.45-4.216 1.45c-1.845 0-3.243-.492-4.194-1.473-.95-.98-1.427-2.305-1.427-3.975V.66h-5.93v20.727zM117.496 25.91V6.148h4.348c2.08 0 3.756.783 5.03 2.35s1.91 4.062 1.91 7.488c0 2.05-.192 3.755-.572 5.116s-.923 2.38-1.625 3.053-1.45 1.134-2.24 1.383c-.79.25-1.712.373-2.767.373h-4.084zm-5.928 5.49h10.012c1.816 0 3.492-.264 5.03-.79s2.963-1.355 4.28-2.482c1.318-1.127 2.357-2.73 3.118-4.81s1.142-4.522 1.142-7.333c0-2.576-.373-4.867-1.12-6.873-.746-2.005-1.75-3.608-3.008-4.81s-2.664-2.107-4.216-2.722-3.206-.922-4.963-.922h-10.276V31.4zM140.207 31.4h18.62v-5.49h-12.692V.66h-5.928V31.4zM164.98 31.4h5.928V.66h-5.928V31.4zM176.18 21.123c.44 3.63 1.736 6.36 3.888 8.19 2.15 1.83 4.97 2.745 8.454 2.745 3.426 0 6.162-.893 8.212-2.68s3.074-4.04 3.074-6.762c0-2.313-.63-4.15-1.89-5.512-1.258-1.362-3.586-2.628-6.98-3.8-3.514-1.2-5.695-2.04-6.545-2.524-.85-.483-1.273-1.178-1.273-2.086 0-.966.373-1.742 1.12-2.328s1.882-.878 3.403-.878c2.87 0 4.758 1.45 5.666 4.348l5.75-1.45c-.525-2.78-1.836-4.874-3.93-6.28C193.038.704 190.54 0 187.644 0c-3.19 0-5.717.856-7.575 2.57-1.86 1.712-2.788 3.77-2.788 6.17 0 2.078.666 3.827 1.998 5.247s3.594 2.627 6.785 3.623c3.396 1.054 5.57 1.91 6.52 2.57.952.657 1.428 1.602 1.428 2.83 0 1.173-.496 2.058-1.492 2.658s-2.328.9-3.996.9c-1.962 0-3.375-.534-4.238-1.603-.863-1.07-1.486-2.804-1.866-5.205l-6.237 1.363zM209.913 31.4h5.93V6.148h9.002V.658H200.91v5.49h9.003V31.4z"/></svg>
