<svg xmlns="http://www.w3.org/2000/svg" viewBox="0 0 5.245 8.712" enable-background="new 0 0 5.245 8.712"><path d="M1.908 6.288c0-.288.018-.542.054-.762.036-.22.096-.42.18-.601.084-.18.192-.344.324-.492.132-.148.298-.29.498-.426l.384-.282c.136-.108.264-.23.384-.366.12-.136.22-.29.3-.462.08-.172.121-.366.121-.582 0-.44-.137-.772-.408-.996-.273-.223-.637-.335-1.093-.335-.448 0-.82.14-1.116.42-.296.28-.444.688-.444 1.224h-1.092c0-.408.07-.776.21-1.104s.33-.604.57-.828c.24-.224.52-.396.84-.516.32-.12.664-.18 1.032-.18s.712.054 1.032.162c.32.108.594.262.822.462.228.2.408.442.539.726.133.284.199.606.199.966 0 .296-.047.556-.139.78-.091.224-.202.422-.335.594-.132.172-.273.318-.426.438l-.408.312c-.191.144-.35.272-.474.384-.124.112-.224.232-.3.36s-.128.278-.156.45c-.028.172-.042.39-.042.654h-1.056zm-.336 1.535c0-.239.082-.443.246-.611.164-.168.37-.252.618-.252s.458.084.63.252c.172.168.258.372.258.611 0 .24-.086.449-.258.625-.172.176-.382.264-.63.264s-.454-.088-.618-.264c-.164-.176-.246-.385-.246-.625z"/></svg>